<?xml version="1.0" encoding="UTF-8" standalone="no"?>
<svg
   xmlns:dc="http://purl.org/dc/elements/1.1/"
   xmlns:cc="http://creativecommons.org/ns#"
   xmlns:rdf="http://www.w3.org/1999/02/22-rdf-syntax-ns#"
   xmlns:svg="http://www.w3.org/2000/svg"
   xmlns="http://www.w3.org/2000/svg"
   xmlns:sodipodi="http://sodipodi.sourceforge.net/DTD/sodipodi-0.dtd"
   xmlns:inkscape="http://www.inkscape.org/namespaces/inkscape"
   inkscape:version="1.0 (4035a4fb49, 2020-05-01)"
   sodipodi:docname="3Dmensional Imagotipo Positivo.svg"
   id="svg11"
   version="1.1"
   viewBox="0 0 1841.0243 1841.0243">
  <metadata
     id="metadata15">
    <rdf:RDF>
      <cc:Work
         rdf:about="">
        <dc:format>image/svg+xml</dc:format>
        <dc:type
           rdf:resource="http://purl.org/dc/dcmitype/StillImage" />
        <dc:title>3Dmensional Imagotipo Positivo</dc:title>
      </cc:Work>
    </rdf:RDF>
  </metadata>
  <sodipodi:namedview
     fit-margin-bottom="0"
     fit-margin-right="0"
     fit-margin-left="0"
     fit-margin-top="0"
     showborder="true"
     borderlayer="false"
     inkscape:current-layer="svg11"
     inkscape:window-maximized="1"
     inkscape:window-y="-8"
     inkscape:window-x="1358"
     inkscape:cy="1305.8631"
     inkscape:cx="-308.13905"
     inkscape:zoom="0.17327311"
     showgrid="false"
     id="namedview13"
     inkscape:window-height="1057"
     inkscape:window-width="1920"
     inkscape:pageshadow="2"
     inkscape:pageopacity="0"
     guidetolerance="10"
     gridtolerance="10"
     objecttolerance="10"
     borderopacity="1"
     bordercolor="#666666"
     pagecolor="#ffffff" />
  <defs
     id="defs4">
    <style
       id="style2">.cls-1{fill:#2a2d34;}</style>
  </defs>
  <title
     id="title6">3Dmensional Imagotipo Positivo</title>
  <circle
     r="920.51215"
     cy="920.51215"
     cx="920.51215"
     id="path17"
     style="fill:#ffffff;stroke-width:13.0961;stroke-linejoin:round;stroke-opacity:0.741936" />
  <g
     transform="translate(212.61215,278.46063)"
     data-name="Layer 2"
     id="Layer_2">
    <g
       data-name="Layer 1"
       id="Layer_1-2">
      <path
         d="m 138.23,1141.7 h 91.61 q 36.63,0 36.64,35.6 v 71.2 q 0,35.6 -36.64,35.6 h -91.61 z m 27.48,30.52 v 81.37 h 64.13 q 9.15,0 9.16,-5.09 v -71.2 q 0,-5.08 -9.16,-5.08 z m 188.62,82.59 50.38,-66.73 v 96 h 27.48 V 1141.7 h -28.31 l -49.55,65.61 -49.56,-65.61 h -28.3 v 142.4 H 304 v -96 z m 87.85,-113.11 v 142.4 h 128.24 v -30.51 H 469.66 v -25.43 h 82.44 v -30.52 h -82.44 v -25.42 h 100.76 v -30.52 z m 238.26,142.4 h 28.21 v -142.4 h -27.48 v 95.92 l -72.45,-95.92 h -28.31 v 142.4 h 27.48 v -96 z m 74.84,-142.4 q -36.63,0 -36.64,35.6 v 15.26 q 0,35.6 36.64,35.6 h 55 q 9.15,0 9.16,5.08 v 15.26 q 0,5.09 -9.16,5.09 h -55 q -9.15,0 -9.16,-5.09 v -5.09 h -27.48 v 5.09 q 0,35.6 36.64,35.6 h 55 q 36.63,0 36.63,-35.6 v -15.26 q 0,-35.6 -36.63,-35.6 h -55 q -9.15,0 -9.16,-5.08 v -15.26 q 0,-5.08 9.16,-5.08 h 55 q 9.15,0 9.16,5.08 v 5.09 h 27.47 v -5.09 q 0,-35.6 -36.63,-35.6 z m 129.08,0 h -27.49 v 142.4 h 27.49 z m 46.62,0 h 55 q 36.63,0 36.64,35.6 v 71.2 q 0,35.6 -36.64,35.6 H 931 q -36.63,0 -36.64,-35.6 v -71.2 q 0,-35.6 36.64,-35.6 m 55,30.52 h -55 q -9.15,0 -9.16,5.08 v 71.2 q 0,5.09 9.16,5.09 h 55 q 9.15,0 9.16,-5.09 v -71.2 q 0,-5.08 -9.16,-5.08 m 146.66,111.88 h 28.21 v -142.4 h -27.48 v 95.92 l -72.46,-95.92 h -28.31 v 142.4 h 27.49 v -96 z m 66.23,-15.26 -6.69,15.26 h -30.5 l 62.75,-142.4 h 21.06 l 62.75,142.4 h -30.5 l -6.69,-15.26 z m 13.47,-30.51 h 45.25 l -22.63,-51.26 z m 124.21,15.26 V 1141.7 H 1309 v 142.4 h 106.8 v -30.51 z M 128.24,1197.64 H 10 a 10,10 0 0 0 -10,10 v 10.5 a 10,10 0 0 0 10,10 h 118.24 z m 0,55.94 H 10 a 10,10 0 0 0 -10,10 v 10.49 a 10,10 0 0 0 10,10 h 118.24 z m 0,-111.88 H 10 a 10,10 0 0 0 -10,10 v 10.5 a 10,10 0 0 0 10,10 h 118.24 z m 846.31,-419.77 -259.82,150 V 746.08 L 977.27,594.5 a 16.35,16.35 0 0 1 24.53,14.16 v 66.07 a 54.51,54.51 0 0 1 -27.25,47.2 z m 201,-447.55 -460.82,266.08 v 125.85 l 331.62,-191.46 a 16.36,16.36 0 0 1 24.53,14.15 v 225.62 a 54.49,54.49 0 0 1 -27.25,47.19 L 714.73,951.7 v 120.92 a 54,54 0 0 0 20.19,-6.73 l 0.25,-0.13 417.45,-241 0.1,-0.06 a 54.52,54.52 0 0 0 27.15,-47.14 v -482 a 54.44,54.44 0 0 0 -4.27,-21.18 z m -935.36,0 A 54.44,54.44 0 0 0 236,295.51 v 70.8 a 54.49,54.49 0 0 0 27.25,47.19 L 701.11,666.31 V 540.46 Z M 236,505.85 v 66.07 a 54.51,54.51 0 0 0 27.25,47.2 L 701.11,871.93 V 746.08 L 260.5,491.69 A 16.36,16.36 0 0 0 236,505.85 Z m 0,205.62 v 66.07 a 54.51,54.51 0 0 0 27.16,47.15 h 0.09 l 417.45,241 0.26,0.14 a 54.1,54.1 0 0 0 20.18,6.72 V 951.7 L 260.5,697.31 A 16.35,16.35 0 0 0 236,711.47 Z M 1152.65,248.32 735.17,7.3 a 54.53,54.53 0 0 0 -54.5,0 l -417.45,241 a 54.54,54.54 0 0 0 -16.17,14.26 l 460.87,266.1 460.87,-266.08 a 54.54,54.54 0 0 0 -16.17,-14.26 z"
         class="cls-1"
         data-name="3Dmensional Imagotipo Positivo"
         id="_3Dmensional_Imagotipo_Positivo" />
    </g>
  </g>
</svg>
