<svg width="431" height="92" viewBox="0 0 431 92" fill="none" xmlns="http://www.w3.org/2000/svg">
<g filter="url(#filter0_i)">
<path d="M19.3017 24.5427C20.359 22.174 22.125 20.1916 24.3563 18.8689C26.8243 17.5068 29.6136 16.8346 32.4311 16.9228C34.7303 16.8892 36.9974 17.4647 39.0022 18.5909C41.0508 19.7645 42.785 21.4163 44.0568 23.4054C45.5223 25.7291 46.5581 28.2972 47.1149 30.9874H64.6166C63.7299 25.0616 61.6861 19.3681 58.6016 14.2312C55.9147 9.80863 52.1211 6.16309 47.5951 3.65439C42.9432 1.17827 37.7381 -0.0740934 32.469 0.0150413C26.3912 -0.160319 20.3673 1.20006 14.9547 3.9703C10.1393 6.52878 6.24289 10.5268 3.80919 15.4064C1.12853 21.0569 -0.170832 27.2635 0.018208 33.5147V58.1435C-0.171802 64.3948 1.12761 70.6016 3.80919 76.2518C6.23665 81.1072 10.12 85.0833 14.9168 87.6247C20.3371 90.3701 26.3577 91.7167 32.4311 91.5421C37.6885 91.6348 42.8823 90.382 47.5193 87.9027C52.0353 85.3896 55.8197 81.7445 58.5005 77.3259C61.5932 72.2201 63.67 66.5647 64.6166 60.6708H47.1022C46.5922 63.3607 45.5851 65.932 44.1326 68.2528C42.9105 70.236 41.2121 71.8824 39.1917 73.0421C37.1434 74.1464 34.8464 74.7076 32.5196 74.6722C29.7021 74.7604 26.9128 74.0882 24.4448 72.7261C22.2235 71.4082 20.4595 69.4413 19.3901 67.0902C18.1174 64.2823 17.4871 61.2258 17.5452 58.1435V33.5147C17.461 30.431 18.0609 27.367 19.3017 24.5427V24.5427Z" fill="white"/>
<path d="M99.481 0.937481L65.1726 90.6575H83.4199L88.4745 76.277H121.33L126.384 90.6575H144.594L110.222 0.937481H99.481ZM94.1231 59.9884L104.902 29.3825L115.631 59.9884H94.1231Z" fill="white"/>
<path d="M192.474 61.4037L175.377 0.937481H153.111V90.6575H168.477V28.1315L185.006 80.6619H199.942L216.471 26.9436V90.6575H231.837V0.937481H209.559L192.474 61.4037Z" fill="white"/>
<path d="M265.349 0.937481H247.822V90.6575H265.349V0.937481Z" fill="white"/>
<path d="M333.903 66.6226L301.995 0.937481H281.335V90.5943H297.497V25.9201L329.278 90.5943H350.065V0.937481H333.903V66.6226Z" fill="white"/>
<path d="M426.883 15.7224C424.265 10.8159 420.267 6.7832 415.384 4.12197C410.057 1.42201 404.17 0.0150146 398.198 0.0150146C392.226 0.0150146 386.339 1.42201 381.012 4.12197C376.125 6.78242 372.123 10.815 369.5 15.7224C366.699 21.0733 365.299 27.0467 365.431 33.0851V58.51C365.306 64.5356 366.705 70.4952 369.5 75.8348C372.123 80.7422 376.125 84.7748 381.012 87.4352C386.339 90.1352 392.226 91.5422 398.198 91.5422C404.17 91.5422 410.057 90.1352 415.384 87.4352C420.267 84.774 424.265 80.7413 426.883 75.8348C429.669 70.4929 431.06 64.5334 430.927 58.51V33.0851C431.067 27.0489 429.676 21.0756 426.883 15.7224V15.7224ZM413.438 58.9396C413.497 61.8071 412.851 64.6453 411.555 67.204C410.363 69.5317 408.507 71.4535 406.222 72.7262C403.741 74.0052 400.99 74.6725 398.198 74.6725C395.406 74.6725 392.655 74.0052 390.174 72.7262C387.889 71.4535 386.033 69.5317 384.841 67.204C383.522 64.6519 382.858 61.812 382.908 58.9396V32.6555C382.845 29.7876 383.491 26.9486 384.791 24.3911C385.983 22.0634 387.839 20.1416 390.123 18.8689C392.605 17.5899 395.356 16.9226 398.147 16.9226C400.939 16.9226 403.69 17.5899 406.172 18.8689C408.456 20.1416 410.312 22.0634 411.504 24.3911C412.798 26.9507 413.444 29.7882 413.387 32.6555L413.438 58.9396Z" fill="white"/>
</g>
<defs>
<filter id="filter0_i" x="0" y="0" width="434.936" height="95.5571" filterUnits="userSpaceOnUse" color-interpolation-filters="sRGB">
<feFlood flood-opacity="0" result="BackgroundImageFix"/>
<feBlend mode="normal" in="SourceGraphic" in2="BackgroundImageFix" result="shape"/>
<feColorMatrix in="SourceAlpha" type="matrix" values="0 0 0 0 0 0 0 0 0 0 0 0 0 0 0 0 0 0 127 0" result="hardAlpha"/>
<feOffset dx="4" dy="4"/>
<feGaussianBlur stdDeviation="5"/>
<feComposite in2="hardAlpha" operator="arithmetic" k2="-1" k3="1"/>
<feColorMatrix type="matrix" values="0 0 0 0 0 0 0 0 0 0 0 0 0 0 0 0 0 0 0.05 0"/>
<feBlend mode="normal" in2="shape" result="effect1_innerShadow"/>
</filter>
</defs>
</svg>
