<svg width="723" height="90" viewBox="0 0 723 90" fill="none" xmlns="http://www.w3.org/2000/svg">
<g filter="url(#filter0_i)">
<path d="M19.4124 24.3703C20.4468 22.0649 22.1738 20.1391 24.3533 18.8607C26.7498 17.5468 29.4568 16.905 32.188 17.0031C34.4355 16.9523 36.6559 17.5019 38.6201 18.5953C40.5757 19.7596 42.2192 21.3814 43.4094 23.3214C44.8378 25.5767 45.844 28.0731 46.379 30.6886H63.3752C62.5384 24.9209 60.5671 19.3761 57.575 14.3747C54.9718 10.0782 51.2908 6.53662 46.8971 4.10112C42.3735 1.69467 37.311 0.481249 32.188 0.5755C26.2946 0.396504 20.4505 1.70001 15.1918 4.36649C10.5384 6.86359 6.77614 10.7451 4.42538 15.4741C1.80327 20.9622 0.529561 26.9972 0.710215 33.0769V56.9601C0.537079 63.0269 1.81057 69.0478 4.42538 74.525C6.77768 79.2433 10.5406 83.1122 15.1918 85.5947C20.4547 88.2495 26.2958 89.5523 32.188 89.3857C37.2883 89.4788 42.327 88.2605 46.8212 85.8474C51.2045 83.4123 54.8764 79.8755 57.4739 75.5865C60.4767 70.6037 62.4811 65.0842 63.3752 59.3358H46.379C45.8962 61.9683 44.9185 64.4853 43.4978 66.7535C42.2896 68.6897 40.6118 70.2893 38.6201 71.4037C36.6362 72.482 34.4078 73.0304 32.1501 72.996C29.4174 73.0777 26.7126 72.4276 24.3154 71.1131C22.1425 69.8381 20.4167 67.9226 19.3745 65.6288C18.1681 62.9021 17.5853 59.9406 17.6686 56.9601V33.0769C17.5975 30.0813 18.1931 27.1074 19.4124 24.3703V24.3703Z" fill="white"/>
<path d="M120.152 4.55598C115.027 1.82697 109.289 0.456542 103.484 0.575444C97.6748 0.453244 91.9315 1.8238 86.8035 4.55598C82.069 7.13916 78.1911 11.0478 75.6454 15.8026C72.9289 20.9991 71.5684 26.7974 71.6901 32.6598V57.3139C71.5684 63.1723 72.9289 68.9665 75.6454 74.1585C78.1873 78.9193 82.0658 82.8329 86.8035 85.4177C91.9315 88.1499 97.6748 89.5204 103.484 89.3982C109.289 89.5171 115.027 88.1467 120.152 85.4177C124.885 82.827 128.762 78.9149 131.31 74.1585C134.022 68.9653 135.378 63.1712 135.252 57.3139V32.6598C135.378 26.7985 134.022 21.0002 131.31 15.8026C128.76 11.0508 124.883 7.14329 120.152 4.55598V4.55598ZM118.231 57.7309C118.289 60.5141 117.664 63.2693 116.411 65.7551C115.248 68.0115 113.446 69.8751 111.23 71.113C108.824 72.3502 106.158 72.9956 103.452 72.9956C100.747 72.9956 98.0804 72.3502 95.6744 71.113C93.4584 69.8751 91.6563 68.0115 90.4934 65.7551C89.2403 63.2693 88.6155 60.5141 88.6737 57.7309V32.2302C88.6171 29.4511 89.2418 26.7005 90.4934 24.2186C91.6526 21.9596 93.4556 20.095 95.6744 18.8606C98.0804 17.6235 100.747 16.9781 103.452 16.9781C106.158 16.9781 108.824 17.6235 111.23 18.8606C113.449 20.095 115.252 21.9596 116.411 24.2186C117.663 26.7005 118.287 29.4511 118.231 32.2302V57.7309Z" fill="white"/>
<path d="M187.151 60.1319L170.572 1.47272H148.963V88.5011H163.874V27.858L179.91 78.7962H194.392L210.44 26.6954V88.5011H225.339V1.47272H203.73L187.151 60.1319Z" fill="white"/>
<path d="M291.264 4.79606C286.838 2.51262 281.913 1.37027 276.934 1.47263H242.07V88.501H258.497V54.736H276.997C281.972 54.8442 286.896 53.7152 291.327 51.4505C295.365 49.3449 298.702 46.1086 300.931 42.1373C303.275 37.8586 304.452 33.0385 304.343 28.1612C304.447 23.2762 303.271 18.4491 300.931 14.1598C298.688 10.1648 295.328 6.91071 291.264 4.79606V4.79606ZM286.032 33.8603C285.245 35.428 284.032 36.742 282.532 37.6513C280.962 38.5696 279.169 39.0374 277.351 39.0034H258.497V17.2684H277.452C279.287 17.2283 281.098 17.6962 282.684 18.6205C284.187 19.518 285.395 20.8358 286.159 22.4115C287.021 24.1904 287.454 26.1467 287.422 28.1233C287.423 30.0989 286.946 32.0455 286.032 33.7971V33.8603Z" fill="white"/>
<path d="M365.428 50.25C369.076 48.0951 372.018 44.9249 373.895 41.1263C375.964 36.871 376.991 32.1842 376.89 27.4535C376.992 22.7186 375.966 18.0274 373.895 13.7681C372.02 9.97622 369.089 6.80765 365.454 4.64441C361.614 2.43637 357.245 1.31787 352.817 1.40944H314.705V88.501H331.133V53.4849H341.09L360.702 88.501H380.58L359.767 52.613C361.755 52.0915 363.66 51.2963 365.428 50.25V50.25ZM331.095 17.2178H351.503C353.092 17.1636 354.659 17.5987 355.992 18.4643C357.326 19.3299 358.361 20.5843 358.959 22.0577C359.685 23.7621 360.042 25.601 360.007 27.4535C360.004 29.3046 359.626 31.1358 358.895 32.8367C358.281 34.2959 357.253 35.5434 355.938 36.4255C354.618 37.2765 353.074 37.7163 351.503 37.6892H331.095V17.2178Z" fill="white"/>
<path d="M436.408 4.55601C431.242 1.93909 425.532 0.575439 419.741 0.575439C413.949 0.575439 408.239 1.93909 403.073 4.55601C398.336 7.13562 394.457 11.0451 391.915 15.8026C389.192 20.997 387.832 26.7968 387.959 32.6598V57.3139C387.832 63.1729 389.192 68.9686 391.915 74.1585C394.453 78.9219 398.332 82.8365 403.073 85.4177C408.239 88.0346 413.949 89.3983 419.741 89.3983C425.532 89.3983 431.242 88.0346 436.408 85.4177C441.146 82.8329 445.024 78.9193 447.566 74.1585C450.289 68.9686 451.649 63.1729 451.522 57.3139V32.6598C451.649 26.7968 450.289 20.997 447.566 15.8026C445.021 11.0478 441.143 7.13919 436.408 4.55601V4.55601ZM434.525 57.7309C434.585 60.5158 433.956 63.2723 432.693 65.7551C431.531 68.008 429.734 69.8707 427.525 71.1131C425.116 72.3503 422.448 72.9957 419.741 72.9957C417.033 72.9957 414.365 72.3503 411.956 71.1131C409.743 69.8715 407.942 68.0088 406.775 65.7551C405.522 63.2693 404.897 60.5142 404.956 57.7309V32.2302C404.899 29.4511 405.524 26.7005 406.775 24.2186C407.938 21.9623 409.74 20.0987 411.956 18.8607C414.365 17.6234 417.033 16.9781 419.741 16.9781C422.448 16.9781 425.116 17.6234 427.525 18.8607C429.737 20.0994 431.535 21.9631 432.693 24.2186C433.955 26.6972 434.584 29.4494 434.525 32.2302V57.7309Z" fill="white"/>
<path d="M503.408 60.1319L486.841 1.47272H465.232V88.5011H480.131V27.858L496.167 78.7962H510.661L526.697 26.708V88.5011H541.595V1.47272H520L503.408 60.1319Z" fill="white"/>
<path d="M574.097 1.47272H557.101V88.5011H574.097V1.47272Z" fill="white"/>
<path d="M637.153 41.4801C632.697 39.7262 628.079 38.4142 623.367 37.5628C623.132 37.527 622.9 37.4764 622.672 37.4112C622.457 37.4112 622.217 37.3101 621.989 37.2595L621.509 37.1711C621.347 37.155 621.186 37.1254 621.029 37.0826C618.02 36.5238 615.042 35.8067 612.108 34.9344C610.099 34.3143 608.273 33.2124 606.788 31.7247C606.046 30.929 605.472 29.9917 605.1 28.969C604.729 27.9463 604.568 26.8592 604.627 25.7728V25.7096C604.604 24.2787 604.978 22.8695 605.707 21.6382C606.437 20.4069 607.493 19.4017 608.759 18.7342C611.514 17.0494 615.406 16.2069 620.435 16.2069C624.018 16.2464 627.568 16.8916 630.936 18.115C634.646 19.459 638.16 21.2905 641.387 23.5614L648.324 9.66114C645.539 7.74459 642.577 6.09856 639.478 4.7455C636.429 3.41454 633.26 2.37784 630.014 1.64953C626.87 0.941807 623.658 0.581609 620.435 0.575413C614.493 0.417169 608.581 1.4884 603.072 3.72193C598.566 5.5654 594.737 8.75075 592.104 12.8456C589.488 17.1907 588.173 22.1943 588.313 27.264V27.3271C588.313 33.6707 589.648 38.5695 592.319 42.0235C594.801 45.3302 598.19 47.8454 602.074 49.2643C606.784 50.857 611.632 52.0077 616.556 52.7015L617.819 52.8784C617.932 52.9002 618.048 52.9002 618.161 52.8784C618.272 52.8848 618.383 52.906 618.489 52.9416C621.237 53.3409 623.955 53.9192 626.627 54.6728C628.568 55.2169 630.339 56.2478 631.77 57.6677C632.466 58.4121 633.006 59.2893 633.355 60.2468C633.705 61.2043 633.858 62.2225 633.805 63.2404C633.842 64.8034 633.45 66.3467 632.67 67.7017C631.89 69.0566 630.752 70.1712 629.382 70.9235C626.425 72.7431 622.276 73.653 616.935 73.653C612.359 73.6715 607.811 72.9328 603.477 71.4668C599.256 70.0783 595.322 67.9378 591.864 65.1485L584.282 78.6697C587.14 81.009 590.287 82.9711 593.645 84.5078C597.196 86.1299 600.918 87.3465 604.74 88.1345C608.745 88.9835 612.828 89.4071 616.922 89.3982C623.043 89.5551 629.134 88.4941 634.841 86.277C639.465 84.4966 643.434 81.3437 646.214 77.2418C648.895 72.9856 650.25 68.0284 650.106 63.0003V62.8739C650.106 56.9769 648.867 52.3434 646.391 48.9737C644.075 45.6595 640.874 43.0629 637.153 41.4801V41.4801Z" fill="white"/>
<path d="M718.053 15.8026C715.5 11.0491 711.618 7.14137 706.882 4.55601C701.716 1.93909 696.006 0.575439 690.214 0.575439C684.423 0.575439 678.713 1.93909 673.547 4.55601C668.812 7.13919 664.934 11.0478 662.389 15.8026C659.666 20.997 658.306 26.7968 658.433 32.6598V57.3139C658.305 63.1729 659.666 68.9686 662.389 74.1585C664.931 78.9193 668.809 82.8329 673.547 85.4177C678.713 88.0346 684.423 89.3983 690.214 89.3983C696.006 89.3983 701.716 88.0346 706.882 85.4177C711.624 82.8337 715.506 78.9202 718.053 74.1585C720.765 68.9654 722.121 63.1712 721.995 57.3139V32.6598C722.121 26.7985 720.765 21.0003 718.053 15.8026V15.8026ZM704.999 57.7309C705.058 60.5142 704.433 63.2693 703.18 65.7551C702.013 68.0088 700.212 69.8715 697.999 71.1131C695.593 72.3502 692.926 72.9956 690.221 72.9956C687.515 72.9956 684.849 72.3502 682.443 71.1131C680.227 69.8751 678.425 68.0115 677.262 65.7551C675.999 63.2723 675.369 60.5158 675.43 57.7309V32.2302C675.371 29.4494 676 26.6972 677.262 24.2186C678.421 21.9596 680.224 20.095 682.443 18.8607C684.849 17.6235 687.515 16.9782 690.221 16.9782C692.926 16.9782 695.593 17.6235 697.999 18.8607C700.215 20.0987 702.017 21.9623 703.18 24.2186C704.431 26.7005 705.056 29.4511 704.999 32.2302V57.7309Z" fill="white"/>
</g>
<defs>
<filter id="filter0_i" x="0.693359" y="0.559265" width="725.31" height="92.8541" filterUnits="userSpaceOnUse" color-interpolation-filters="sRGB">
<feFlood flood-opacity="0" result="BackgroundImageFix"/>
<feBlend mode="normal" in="SourceGraphic" in2="BackgroundImageFix" result="shape"/>
<feColorMatrix in="SourceAlpha" type="matrix" values="0 0 0 0 0 0 0 0 0 0 0 0 0 0 0 0 0 0 127 0" result="hardAlpha"/>
<feOffset dx="4" dy="4"/>
<feGaussianBlur stdDeviation="5"/>
<feComposite in2="hardAlpha" operator="arithmetic" k2="-1" k3="1"/>
<feColorMatrix type="matrix" values="0 0 0 0 0 0 0 0 0 0 0 0 0 0 0 0 0 0 0.05 0"/>
<feBlend mode="normal" in2="shape" result="effect1_innerShadow"/>
</filter>
</defs>
</svg>
