<svg width="377" height="93" viewBox="0 0 377 93" fill="none" xmlns="http://www.w3.org/2000/svg">
<g filter="url(#filter0_i)">
<path d="M19.3017 25.2829C20.359 22.9142 22.125 20.9318 24.3563 19.6091C26.8243 18.247 29.6136 17.5748 32.4311 17.663C34.7303 17.6294 36.9974 18.2049 39.0022 19.3311C41.0508 20.5047 42.785 22.1565 44.0568 24.1456C45.5223 26.4693 46.5581 29.0374 47.1149 31.7276H64.6166C63.7299 25.8018 61.6861 20.1083 58.6016 14.9714C55.9147 10.5488 52.1211 6.90329 47.5951 4.39459C42.9432 1.91848 37.7381 0.66611 32.469 0.755245C26.3912 0.579885 20.3673 1.94026 14.9547 4.71051C10.1393 7.26898 6.24289 11.267 3.80919 16.1466C1.12853 21.7971 -0.170832 28.0037 0.018208 34.2549V58.8837C-0.171802 65.135 1.12761 71.3418 3.80919 76.992C6.23665 81.8474 10.12 85.8235 14.9168 88.3649C20.3371 91.1103 26.3577 92.4569 32.4311 92.2823C37.6885 92.375 42.8823 91.1222 47.5193 88.6429C52.0353 86.1298 55.8197 82.4847 58.5005 78.0661C61.5932 72.9603 63.67 67.3049 64.6166 61.411H47.1022C46.5922 64.1009 45.5851 66.6722 44.1326 68.993C42.9105 70.9762 41.2121 72.6226 39.1917 73.7823C37.1434 74.8866 34.8464 75.4478 32.5196 75.4124C29.7021 75.5006 26.9128 74.8284 24.4448 73.4663C22.2235 72.1484 20.4595 70.1815 19.3901 67.8304C18.1174 65.0225 17.4871 61.966 17.5452 58.8837V34.2549C17.461 31.1712 18.0609 28.1072 19.3017 25.2829V25.2829Z" fill="white"/>
<path d="M128.583 51.9714C132.344 49.7488 135.374 46.4769 137.303 42.5571C139.442 38.1696 140.503 33.3348 140.398 28.4546C140.502 23.5786 139.441 18.7483 137.303 14.3648C135.38 10.4493 132.359 7.17812 128.609 4.95052C124.656 2.67197 120.154 1.5183 115.593 1.61446H76.2803V91.3976H93.1881V55.2948H103.449L123.668 91.3976H144.152L122.669 54.4102C124.742 53.87 126.732 53.0495 128.583 51.9714V51.9714ZM93.2007 17.8525H114.228C115.872 17.8096 117.489 18.2709 118.863 19.1746C120.236 20.0782 121.3 21.3808 121.911 22.9072C122.663 24.6581 123.034 26.5493 122.998 28.4546C122.989 30.3661 122.598 32.2566 121.848 34.0147C121.211 35.5169 120.154 36.8028 118.802 37.7173C117.435 38.5794 115.844 39.019 114.228 38.9809H93.1881L93.2007 17.8525Z" fill="white"/>
<path d="M162.234 1.67769H156.131V91.3977H162.234H173.039H216.231V75.1091H173.039V54.9916H209.445V38.703H173.039V17.9663H216.231V1.67769H173.039H162.234Z" fill="white"/>
<path d="M254.798 1.67769L220.489 91.3977H238.686L243.741 77.0172H276.596L281.65 91.3977H299.847L265.526 1.67769H254.798ZM249.44 60.7286L260.168 30.1227L270.884 60.7286H249.44Z" fill="white"/>
<path d="M355.802 91.3977H376.286L354.804 54.4104C356.861 53.8691 358.833 53.0485 360.667 51.9715C364.431 49.749 367.466 46.4775 369.399 42.5572C371.534 38.1687 372.591 33.3339 372.482 28.4547C372.59 23.5798 371.533 18.7495 369.399 14.3649C367.472 10.4523 364.452 7.18222 360.705 4.95063C356.759 2.67833 352.268 1.52495 347.715 1.61456H308.415V91.3977H325.323V55.2949H335.584L355.802 91.3977ZM325.323 17.9032H346.363C347.995 17.8581 349.605 18.2978 350.988 19.1668C352.345 20.0773 353.408 21.364 354.046 22.8694C354.794 24.6212 355.16 26.5124 355.12 28.4168C355.121 30.3281 354.734 32.2198 353.982 33.9769C353.341 35.48 352.279 36.7658 350.924 37.6795C349.563 38.5434 347.975 38.9832 346.363 38.9431H325.323V17.9032Z" fill="white"/>
</g>
<defs>
<filter id="filter0_i" x="0" y="0.740204" width="380.286" height="95.5571" filterUnits="userSpaceOnUse" color-interpolation-filters="sRGB">
<feFlood flood-opacity="0" result="BackgroundImageFix"/>
<feBlend mode="normal" in="SourceGraphic" in2="BackgroundImageFix" result="shape"/>
<feColorMatrix in="SourceAlpha" type="matrix" values="0 0 0 0 0 0 0 0 0 0 0 0 0 0 0 0 0 0 127 0" result="hardAlpha"/>
<feOffset dx="4" dy="4"/>
<feGaussianBlur stdDeviation="5"/>
<feComposite in2="hardAlpha" operator="arithmetic" k2="-1" k3="1"/>
<feColorMatrix type="matrix" values="0 0 0 0 0 0 0 0 0 0 0 0 0 0 0 0 0 0 0.05 0"/>
<feBlend mode="normal" in2="shape" result="effect1_innerShadow"/>
</filter>
</defs>
</svg>
