<svg width="415" height="90" viewBox="0 0 415 90" fill="none" xmlns="http://www.w3.org/2000/svg">
<g filter="url(#filter0_i)">
<path d="M6.68312 1.10876H0.693359V88.1372H17.0957V53.6013H51.2651V37.7929H17.0957V16.9045H57.8488V1.10876H17.0957H6.68312Z" fill="white"/>
<path d="M112.742 57.0763C112.742 62.0636 111.394 65.9346 108.698 68.6894C106.003 71.4442 102.212 72.8216 97.3255 72.8216C92.4478 72.8216 88.6568 71.4442 85.9525 68.6894C83.2483 65.9346 81.9215 62.0636 81.972 57.0763V1.10876H65.5444V56.6467C65.3754 62.6969 66.6489 68.7005 69.2596 74.1611C71.6284 78.8888 75.4145 82.7588 80.0892 85.2307C85.418 87.8907 91.3215 89.1929 97.275 89.0217C103.232 89.1903 109.139 87.8883 114.473 85.2307C119.171 82.7686 122.98 78.8977 125.366 74.1611C128.015 68.7111 129.315 62.7043 129.157 56.6467V1.10876H112.73L112.742 57.0763Z" fill="white"/>
<path d="M132.67 16.9045H156.364V88.1372H172.766V16.9045H196.472V1.10876H132.67V16.9045Z" fill="white"/>
<path d="M247.17 57.0763C247.17 62.0636 245.822 65.9346 243.127 68.6894C240.431 71.4442 236.64 72.8216 231.754 72.8216C226.884 72.8216 223.093 71.4442 220.381 68.6894C217.668 65.9346 216.341 62.0636 216.4 57.0763V1.10876H199.973V56.6467C199.8 62.6959 201.069 68.6994 203.675 74.1611C206.044 78.8888 209.83 82.7588 214.505 85.2307C219.892 87.7366 225.762 89.0349 231.703 89.0349C237.645 89.0349 243.514 87.7366 248.902 85.2307C253.594 82.7618 257.401 78.8927 259.794 74.1611C262.44 68.7098 263.739 62.7039 263.585 56.6467V1.10876H247.158L247.17 57.0763Z" fill="white"/>
<path d="M328.601 49.886C332.252 47.7346 335.194 44.5635 337.067 40.7624C339.137 36.5071 340.163 31.8203 340.062 27.0896C340.165 22.3547 339.138 17.6634 337.067 13.4041C335.193 9.61228 332.261 6.44372 328.626 4.28048C324.787 2.07124 320.418 0.952657 315.989 1.04551H277.877V88.1371H294.305V53.121H304.263L323.875 88.1371H343.752L322.927 52.2491C324.92 51.7311 326.83 50.9356 328.601 49.886V49.886ZM294.267 16.8539H314.688C316.275 16.8023 317.839 17.2386 319.17 18.1041C320.501 18.9695 321.534 20.2224 322.131 21.6937C322.857 23.3982 323.215 25.2371 323.18 27.0896C323.183 28.9413 322.804 30.7738 322.068 32.4728C321.46 33.9286 320.441 35.1758 319.136 36.0616C317.819 36.9109 316.28 37.3506 314.713 37.3252H294.267V16.8539Z" fill="white"/>
<path d="M410.752 15.4386C408.198 10.6851 404.317 6.77739 399.581 4.19203C394.414 1.57511 388.704 0.211456 382.913 0.211456C377.122 0.211456 371.412 1.57511 366.245 4.19203C361.508 6.77164 357.629 10.6812 355.087 15.4386C352.365 20.633 351.004 26.4328 351.132 32.2959V56.9499C351.004 62.809 352.365 68.6047 355.087 73.7945C357.626 78.558 361.505 82.4725 366.245 85.0537C371.412 87.6707 377.122 89.0343 382.913 89.0343C388.704 89.0343 394.414 87.6707 399.581 85.0537C404.322 82.4697 408.205 78.5562 410.752 73.7945C413.464 68.6014 414.82 62.8072 414.694 56.9499V32.2959C414.82 26.4345 413.464 20.6363 410.752 15.4386V15.4386ZM397.698 57.3669C397.756 60.1502 397.131 62.9053 395.878 65.3912C394.712 67.6449 392.911 69.5075 390.697 70.7491C388.289 71.9863 385.621 72.6317 382.913 72.6317C380.206 72.6317 377.537 71.9863 375.129 70.7491C372.917 69.5103 371.119 67.6466 369.961 65.3912C368.698 62.9084 368.068 60.1518 368.128 57.3669V31.8662C368.069 29.0855 368.699 26.3333 369.961 23.8546C371.115 21.5965 372.914 19.7318 375.129 18.4967C377.537 17.2594 380.206 16.6141 382.913 16.6141C385.621 16.6141 388.289 17.2594 390.697 18.4967C392.913 19.7347 394.715 21.5983 395.878 23.8546C397.13 26.3365 397.755 29.0872 397.698 31.8662V57.3669Z" fill="white"/>
</g>
<defs>
<filter id="filter0_i" x="0.693359" y="0.211456" width="418.009" height="92.8252" filterUnits="userSpaceOnUse" color-interpolation-filters="sRGB">
<feFlood flood-opacity="0" result="BackgroundImageFix"/>
<feBlend mode="normal" in="SourceGraphic" in2="BackgroundImageFix" result="shape"/>
<feColorMatrix in="SourceAlpha" type="matrix" values="0 0 0 0 0 0 0 0 0 0 0 0 0 0 0 0 0 0 127 0" result="hardAlpha"/>
<feOffset dx="4" dy="4"/>
<feGaussianBlur stdDeviation="5"/>
<feComposite in2="hardAlpha" operator="arithmetic" k2="-1" k3="1"/>
<feColorMatrix type="matrix" values="0 0 0 0 0 0 0 0 0 0 0 0 0 0 0 0 0 0 0.05 0"/>
<feBlend mode="normal" in2="shape" result="effect1_innerShadow"/>
</filter>
</defs>
</svg>
