<svg width="594" height="90" viewBox="0 0 594 90" fill="none" xmlns="http://www.w3.org/2000/svg">
<g filter="url(#filter0_i)">
<path d="M34.2148 55.6163H47.3822V57.0568C47.4557 59.8954 46.84 62.7095 45.5878 65.258C44.4575 67.5006 42.6728 69.347 40.4699 70.5527C38.0858 71.8127 35.4196 72.4433 32.7237 72.3851C29.9969 72.4389 27.2944 71.8638 24.8258 70.7044C22.6345 69.6639 20.8008 67.9973 19.5563 65.9151C18.2826 63.7231 17.6397 61.2215 17.6988 58.687V33.0599C17.6413 30.2403 18.2655 27.4485 19.5184 24.9219C20.6853 22.6513 22.4906 20.7713 24.7121 19.5135C27.0578 18.2039 29.7092 17.5411 32.3951 17.5927C34.3717 17.5913 36.3323 17.9466 38.1827 18.6415C39.9907 19.314 41.6389 20.3555 43.0225 21.6996C44.3882 23.015 45.4082 24.647 45.9922 26.451H63.6834C62.7396 21.5188 60.6967 16.8628 57.7063 12.8287C54.8281 8.96585 51.0614 5.85361 46.7251 3.75559C42.2449 1.60045 37.3285 0.506467 32.3572 0.558526C26.5568 0.438602 20.8252 1.8323 15.7275 4.60224C10.9968 7.23123 7.13645 11.1838 4.61986 15.9752C1.91454 21.2561 0.56817 27.1279 0.702512 33.0599V58.687C0.572789 64.328 1.94665 69.902 4.68305 74.8366C7.31045 79.4322 11.2181 83.1642 15.9296 85.5777C21.1364 88.1872 26.9008 89.4884 32.7237 89.3687C38.5284 89.4902 44.2644 88.0965 49.3661 85.325C54.1065 82.667 57.9638 78.6778 60.4611 73.8509C63.1594 68.5675 64.5053 62.6974 64.3784 56.7662V39.8205H34.2148V55.6163Z" fill="white"/>
<path d="M128.812 50.233C132.467 48.0857 135.41 44.9135 137.279 41.1094C139.348 36.8541 140.375 32.1673 140.274 27.4366C140.376 22.7017 139.35 18.0104 137.279 13.7511C135.413 9.95727 132.485 6.7875 128.85 4.62747C125.01 2.42182 120.642 1.3035 116.214 1.3925H78.0891V88.4841H94.5167V53.468H104.462L124.061 88.4841H143.926L123.126 52.5961C125.123 52.0779 127.037 51.2825 128.812 50.233ZM94.4914 17.2009H114.9C116.487 17.1675 118.049 17.6074 119.386 18.4646C120.699 19.3464 121.73 20.588 122.355 22.0407C123.082 23.7452 123.439 25.5841 123.404 27.4366C123.395 29.2871 123.017 31.1173 122.292 32.8198C121.678 34.2789 120.65 35.5265 119.335 36.4086C118.014 37.2596 116.471 37.6994 114.9 37.6722H94.4914V17.2009Z" fill="white"/>
<path d="M177.451 1.45575L144.166 88.4841H161.857L166.735 74.5839H198.592L203.482 88.4841H221.174L187.863 1.45575H177.451ZM172.257 58.687L182.67 29.0415L193.057 58.687H172.257Z" fill="white"/>
<path d="M280.452 65.1696L249.517 1.45575H229.463V88.4209H245.145V25.6928L275.966 88.4209H296.134V1.45575H280.452V65.1696Z" fill="white"/>
<path d="M360.214 5.10771C354.367 2.52254 348.016 1.27489 341.626 1.45573H312.827V88.4841H341.55C348.086 88.6881 354.578 87.355 360.505 84.592C365.394 82.2413 369.437 78.4367 372.08 73.6993C374.753 68.6445 376.085 62.9882 375.947 57.2717V32.6429C376.118 26.7445 374.723 20.9062 371.903 15.7225C369.206 11.0546 365.12 7.34413 360.214 5.10771V5.10771ZM358.951 57.7771C358.951 62.5285 357.472 66.1973 354.515 68.7836C351.558 71.3868 347.401 72.6757 342.005 72.6757H329.255V17.2515H342.005C347.401 17.2515 351.558 18.5152 354.515 21.1436C357.472 23.772 358.951 27.4619 358.951 32.1627V57.7771Z" fill="white"/>
<path d="M395.546 1.45575H389.62V88.4841H395.546H406.022H447.925V72.6757H406.022V53.1648H441.341V37.369H406.022V17.2515H447.925V1.45575H406.022H395.546Z" fill="white"/>
<path d="M512.145 16.1774V1.45575H457.921V17.2515H492.634L456.847 73.7498V88.4841H513.345V72.6757H476.358L512.145 16.1774Z" fill="white"/>
<path d="M575.593 88.4841H593.284L559.974 1.45575H549.549L516.276 88.4841H533.968L538.858 74.5839H570.74L575.593 88.4841ZM544.355 58.687L554.767 28.9909L565.167 58.687H544.355Z" fill="white"/>
</g>
<defs>
<filter id="filter0_i" x="0.693359" y="0.551392" width="596.591" height="92.8249" filterUnits="userSpaceOnUse" color-interpolation-filters="sRGB">
<feFlood flood-opacity="0" result="BackgroundImageFix"/>
<feBlend mode="normal" in="SourceGraphic" in2="BackgroundImageFix" result="shape"/>
<feColorMatrix in="SourceAlpha" type="matrix" values="0 0 0 0 0 0 0 0 0 0 0 0 0 0 0 0 0 0 127 0" result="hardAlpha"/>
<feOffset dx="4" dy="4"/>
<feGaussianBlur stdDeviation="5"/>
<feComposite in2="hardAlpha" operator="arithmetic" k2="-1" k3="1"/>
<feColorMatrix type="matrix" values="0 0 0 0 0 0 0 0 0 0 0 0 0 0 0 0 0 0 0.05 0"/>
<feBlend mode="normal" in2="shape" result="effect1_innerShadow"/>
</filter>
</defs>
</svg>
