<svg width="1405" height="820" viewBox="0 0 1405 820" fill="none" xmlns="http://www.w3.org/2000/svg">
<g filter="url(#filter0_i)">
<path d="M51.3836 33.4106C45.0411 30.6237 38.1607 29.274 31.2354 29.4581H0.0171509V123.808H31.1582C38.2282 124.025 45.2508 122.582 51.6615 119.593C56.9688 117.046 61.3586 112.921 64.2291 107.782C67.113 102.305 68.5531 96.1835 68.4131 89.9955V63.301C68.6017 56.9252 67.0995 50.613 64.0592 45.0055C61.1497 39.9107 56.7168 35.8558 51.3836 33.4106V33.4106ZM49.9786 90.5359C49.9786 95.6772 48.4347 99.6605 45.177 102.47C41.9193 105.28 37.4574 106.685 31.6213 106.685H17.8032V46.5957H31.6985C37.5346 46.5957 42.0531 48.0007 45.2542 50.8106C48.4656 53.6206 50.0558 57.6039 50.0558 62.7452L49.9786 90.5359Z" fill="white"/>
<path d="M103.074 29.4582H84.6398V123.808H103.074V29.4582Z" fill="white"/>
<path d="M183.914 111.611C186.816 106.995 188.283 101.621 188.129 96.1712V96.0323C188.129 89.6404 186.786 84.5763 184.1 80.8864C181.585 77.3136 178.111 74.525 174.079 72.8425C169.245 70.9332 164.234 69.5059 159.119 68.5813C158.869 68.5462 158.621 68.4946 158.378 68.4269L157.637 68.257L157.112 68.1644L156.587 68.0718C153.324 67.4694 150.097 66.686 146.922 65.725C144.743 65.0628 142.76 63.8752 141.148 62.2666C140.345 61.3995 139.726 60.38 139.325 59.2688C138.925 58.1575 138.752 56.977 138.816 55.7975V55.7975C138.792 54.2483 139.197 52.7226 139.988 51.3898C140.778 50.0571 141.922 48.9695 143.294 48.2477C146.279 46.4362 150.493 45.5356 155.938 45.5459C159.827 45.5898 163.68 46.2946 167.333 47.6302C171.377 49.0513 175.21 51.0146 178.727 53.4662L186.246 38.4129C183.221 36.3359 180.006 34.5523 176.642 33.0864C173.312 31.6303 169.848 30.503 166.298 29.7206C162.898 28.9505 159.424 28.557 155.938 28.5472C149.502 28.3779 143.1 29.5396 137.133 31.9593C132.25 33.9611 128.099 37.4161 125.245 41.8559C122.432 46.555 121.018 51.9593 121.169 57.4341V57.4341C121.169 64.2994 122.615 69.6106 125.508 73.3674C128.2 76.95 131.874 79.6745 136.083 81.2106C141.19 82.9553 146.446 84.2267 151.785 85.0087L153.221 85.1939C153.339 85.2141 153.459 85.2141 153.576 85.1939C153.694 85.1731 153.814 85.1731 153.931 85.1939C156.914 85.6202 159.865 86.2495 162.763 87.0775C164.87 87.6571 166.79 88.7744 168.336 90.3198C169.073 91.1197 169.643 92.0591 170.012 93.0826C170.38 94.1061 170.54 95.193 170.482 96.2793V96.2793C170.522 97.9755 170.095 99.65 169.249 101.12C168.402 102.59 167.168 103.8 165.681 104.617C162.469 106.582 157.971 107.565 152.187 107.565C147.196 107.568 142.24 106.744 137.519 105.126C132.939 103.602 128.671 101.264 124.921 98.2247L116.692 112.892C119.787 115.424 123.197 117.547 126.835 119.207C130.708 121.066 134.779 122.48 138.971 123.422C143.316 124.334 147.746 124.789 152.187 124.78C158.819 124.946 165.419 123.802 171.609 121.414C176.61 119.47 180.902 116.051 183.914 111.611Z" fill="white"/>
<path d="M220.83 123.808H266.252V106.67H220.83V85.5182H259.119V68.396H220.83V46.5958H266.252V29.4582H220.83H209.482H203.059V123.808H209.482H220.83Z" fill="white"/>
<path d="M307.984 21.1518C307.935 20.5367 308.01 19.918 308.203 19.332C308.397 18.7461 308.706 18.2047 309.111 17.7397C309.576 17.334 310.118 17.0254 310.704 16.8318C311.29 16.6383 311.908 16.5638 312.523 16.6127C313.623 16.6142 314.713 16.8238 315.735 17.2302C316.8 17.6471 318.19 18.2801 319.919 19.1447L320.367 19.3763L320.83 19.5924H321.015C322.188 20.21 323.3 20.7195 324.365 21.1364C325.473 21.5837 326.614 21.9451 327.777 22.2171C329.008 22.498 330.267 22.6379 331.529 22.634C333.506 22.7422 335.474 22.3055 337.219 21.3717C338.964 20.4378 340.419 19.0426 341.426 17.3383C343.618 13.8696 344.709 8.60482 344.699 1.54393V0H331.205V1.2969C331.305 2.63892 330.903 3.97027 330.078 5.0332C329.632 5.47539 329.097 5.81714 328.509 6.03551C327.92 6.25387 327.292 6.34379 326.666 6.29922C325.865 6.2745 325.076 6.10719 324.334 5.80517C323.47 5.48094 322.235 4.95601 320.629 4.26124L319.95 3.90614L319.27 3.61279L319.07 3.48928C316.738 2.45484 314.7 1.652 312.894 1.08075C311.199 0.529057 309.427 0.247705 307.645 0.247028C305.68 0.139356 303.722 0.561061 301.976 1.46812C300.23 2.37519 298.759 3.73435 297.717 5.40374C295.504 8.83126 294.398 14.0086 294.398 20.9357V22.5568H307.907L307.984 21.1518Z" fill="white"/>
<path d="M299.477 55.7358L332.903 123.746H354.765V29.4582H337.767V98.5335L304.217 29.4582H282.479V123.746H299.477V55.7358Z" fill="white"/>
<path d="M389.581 108.693H424.149L429.445 123.808H448.59L412.508 29.4582H401.222L365.14 123.808H384.285L389.581 108.693ZM406.873 59.3795L418.143 91.5549H395.587L406.873 59.3795Z" fill="white"/>
<path d="M477.276 55.7358L510.686 123.746H532.564V29.4582H515.565V98.5335L482.016 29.4582H460.277V123.746H477.276V55.7358Z" fill="white"/>
<path d="M604.681 33.4106C598.339 30.6208 591.458 29.271 584.532 29.4582H553.33V123.808H584.471C591.541 124.025 598.563 122.582 604.974 119.593C610.303 117.061 614.712 112.933 617.588 107.782C620.479 102.308 621.919 96.1843 621.772 89.9955V63.301C621.966 56.9265 620.469 50.6142 617.434 45.0055C614.501 39.9007 610.041 35.8451 604.681 33.4106V33.4106ZM603.291 90.5359C603.421 92.7563 603.058 94.9779 602.228 97.0413C601.398 99.1048 600.121 100.959 598.49 102.47C595.278 105.28 590.77 106.685 584.918 106.685H571.1V46.5958H584.918C590.77 46.5958 595.278 48.0007 598.49 50.8107C600.121 52.3223 601.398 54.1764 602.228 56.2398C603.058 58.3032 603.421 60.5249 603.291 62.7452V90.5359Z" fill="white"/>
<path d="M688.516 32.8085C682.916 29.9671 676.724 28.4863 670.444 28.4863C664.164 28.4863 657.973 29.9671 652.373 32.8085C647.235 35.6068 643.027 39.8465 640.268 45.0055C637.319 50.6445 635.848 56.9391 635.992 63.301V89.9956C635.851 96.3473 637.322 102.631 640.268 108.26C643.038 113.404 647.244 117.63 652.373 120.426C657.976 123.258 664.166 124.734 670.444 124.734C676.722 124.734 682.913 123.258 688.516 120.426C693.655 117.622 697.862 113.378 700.62 108.214C703.566 102.585 705.038 96.301 704.897 89.9492V63.301C705.036 56.9495 703.564 50.6661 700.62 45.0364C697.871 39.8627 693.662 35.6107 688.516 32.8085V32.8085ZM686.478 90.4587C686.536 93.4738 685.858 96.4576 684.502 99.151C683.242 101.606 681.288 103.636 678.882 104.987C676.27 106.323 673.378 107.02 670.444 107.02C667.511 107.02 664.619 106.323 662.007 104.987C659.606 103.649 657.655 101.629 656.402 99.1819C655.038 96.4915 654.359 93.5056 654.426 90.4896V62.807C654.359 59.791 655.038 56.8051 656.402 54.1147C657.655 51.6679 659.606 49.6476 662.007 48.3095C664.619 46.9734 667.511 46.2767 670.444 46.2767C673.378 46.2767 676.27 46.9734 678.882 48.3095C681.283 49.6526 683.237 51.6711 684.502 54.1147C685.858 56.8081 686.536 59.7919 686.478 62.807V90.4587Z" fill="white"/>
<path d="M773.262 123.808H818.685V106.67H773.262V85.5182H811.552V68.396H773.262V46.5958H818.685V29.4582H773.262H761.914H755.492V123.808H761.914H773.262Z" fill="white"/>
<path d="M852.682 29.4582H834.911V123.808H842.832H852.682H898.12V106.67H852.682V29.4582Z" fill="white"/>
<path d="M960.633 86.3673H997.687V69.2298H960.633V46.5958H1004.82V29.4582H960.633H949.347H942.847V123.808H960.633V86.3673Z" fill="white"/>
<path d="M1080.77 108.662C1083.61 102.746 1085.01 96.2347 1084.83 89.6713V29.4582H1066.98V90.1345C1066.98 95.5383 1065.52 99.7326 1062.61 102.718C1059.7 105.702 1055.58 107.195 1050.26 107.195C1044.98 107.195 1040.89 105.702 1038 102.718C1035.11 99.7326 1033.66 95.5383 1033.65 90.1345V29.4582H1015.92V89.6713C1015.73 96.2302 1017.11 102.74 1019.94 108.662C1022.5 113.791 1026.61 117.987 1031.68 120.658C1037.52 123.373 1043.88 124.78 1050.32 124.78C1056.76 124.78 1063.12 123.373 1068.95 120.658C1074.05 117.991 1078.18 113.796 1080.77 108.662Z" fill="white"/>
<path d="M1160.43 46.5958V29.4582H1091.25V46.5958H1116.96V123.808H1134.73V46.5958H1160.43Z" fill="white"/>
<path d="M1218.05 90.1345C1218.05 95.5383 1216.59 99.7326 1213.67 102.718C1210.74 105.702 1206.63 107.195 1201.32 107.195C1196.04 107.195 1191.96 105.651 1189.06 102.718C1186.15 99.7841 1184.7 95.5383 1184.7 90.1345V29.4582H1166.92V89.6713C1166.74 96.2296 1168.11 102.737 1170.93 108.662C1173.5 113.786 1177.6 117.98 1182.67 120.658C1188.51 123.373 1194.87 124.78 1201.31 124.78C1207.75 124.78 1214.11 123.373 1219.95 120.658C1225.04 117.981 1229.17 113.789 1231.76 108.662C1234.61 102.745 1235.99 96.2334 1235.81 89.6713V29.4582H1218.05V90.1345Z" fill="white"/>
<path d="M1302.81 84.9159C1304.98 84.3467 1307.06 83.4789 1308.99 82.3375C1312.95 79.9979 1316.14 76.5598 1318.18 72.441C1320.42 67.8279 1321.53 62.7472 1321.42 57.6193C1321.52 52.4918 1320.41 47.4122 1318.18 42.7976C1316.14 38.6839 1312.96 35.2467 1309.02 32.901C1304.88 30.4955 1300.16 29.2626 1295.37 29.3345H1253.99V123.807H1271.78V85.8422H1282.59L1303.86 123.807H1325.4L1302.81 84.9159ZM1271.78 46.5184H1293.91C1295.63 46.4837 1297.32 46.9621 1298.77 47.8925C1300.19 48.8496 1301.31 50.2017 1301.98 51.7832C1302.77 53.6253 1303.16 55.6148 1303.12 57.6193C1303.12 59.6259 1302.71 61.611 1301.92 63.4553C1301.25 65.0407 1300.13 66.3976 1298.71 67.3614C1297.27 68.2739 1295.6 68.7462 1293.91 68.7201H1271.78V46.5184Z" fill="white"/>
<path d="M1400.71 108.26C1403.66 102.631 1405.13 96.3473 1404.99 89.9955V63.301C1405.13 56.9494 1403.66 50.6661 1400.71 45.0363C1397.96 39.8773 1393.75 35.6377 1388.61 32.8393C1383.01 29.9979 1376.82 28.5172 1370.54 28.5172C1364.26 28.5172 1358.07 29.9979 1352.47 32.8393C1347.33 35.6333 1343.12 39.8741 1340.36 45.0363C1337.42 50.6661 1335.95 56.9494 1336.09 63.301V89.9955C1335.94 96.3473 1337.42 102.631 1340.36 108.26C1343.14 113.411 1347.35 117.64 1352.5 120.426C1358.1 123.258 1364.29 124.734 1370.57 124.734C1376.85 124.734 1383.04 123.258 1388.64 120.426C1393.76 117.626 1397.95 113.399 1400.71 108.26V108.26ZM1386.56 90.4587C1386.62 93.4747 1385.94 96.4606 1384.58 99.151C1383.33 101.609 1381.38 103.641 1378.98 104.987C1376.36 106.323 1373.47 107.02 1370.54 107.02C1367.6 107.02 1364.71 106.323 1362.1 104.987C1359.7 103.644 1357.75 101.625 1356.48 99.1819C1355.12 96.4884 1354.45 93.5046 1354.5 90.4895V62.8069C1354.45 59.7918 1355.12 56.808 1356.48 54.1146C1357.75 51.671 1359.7 49.6525 1362.1 48.3095C1364.71 46.9734 1367.6 46.2766 1370.54 46.2766C1373.47 46.2766 1376.36 46.9734 1378.98 48.3095C1381.38 49.6476 1383.33 51.6678 1384.58 54.1146C1385.94 56.805 1386.62 59.7909 1386.56 62.8069V90.4587Z" fill="white"/>
<path d="M19.9338 750.009C21.037 747.567 22.8712 745.528 25.1831 744.173C27.7376 742.768 30.6221 742.075 33.5358 742.166C35.9065 742.131 38.2444 742.722 40.3136 743.879C42.4035 745.088 44.1762 746.776 45.4858 748.805C46.9803 751.211 48.0265 753.868 48.5736 756.648H66.7302C65.8286 750.529 63.7301 744.648 60.5545 739.34C57.7722 734.773 53.8513 731.006 49.1758 728.409C44.375 725.855 39.0036 724.564 33.5667 724.658C27.2835 724.474 21.0553 725.876 15.4564 728.733C10.4958 731.387 6.48598 735.521 3.98502 740.56C1.18984 746.398 -0.170536 752.818 0.0171257 759.288V784.716C-0.170409 791.174 1.18454 797.584 3.96958 803.413C6.47218 808.445 10.4896 812.565 15.4564 815.193C21.0545 818.036 27.2752 819.432 33.5512 819.254C38.9799 819.344 44.3417 818.047 49.1294 815.487C53.7979 812.891 57.7092 809.124 60.4773 804.556C63.6651 799.251 65.7938 793.379 66.7457 787.264H48.6354C48.1115 790.064 47.0639 792.741 45.5475 795.153C44.2701 797.206 42.4968 798.905 40.3908 800.094C38.2793 801.241 35.9079 801.826 33.5049 801.792C30.5996 801.86 27.7282 801.157 25.1831 799.754C22.8764 798.393 21.0438 796.356 19.9338 793.918C18.6384 791.006 18.0157 787.84 18.112 784.655V759.288C18.0269 756.098 18.6491 752.929 19.9338 750.009V750.009Z" fill="white"/>
<path d="M129.784 728.919C124.325 726.014 118.212 724.557 112.029 724.689C105.851 724.559 99.7437 726.016 94.2893 728.919C89.245 731.67 85.1134 735.834 82.4011 740.9C79.5168 746.432 78.0726 752.602 78.2016 758.84V785.087C78.0686 791.325 79.513 797.496 82.4011 803.027C85.1134 808.093 89.245 812.257 94.2893 815.008C99.7426 817.916 105.85 819.378 112.029 819.254C118.213 819.38 124.326 817.918 129.784 815.008C134.825 812.252 138.956 808.09 141.672 803.027C144.56 797.496 146.005 791.325 145.872 785.087V758.84C146.001 752.602 144.557 746.432 141.672 740.9C138.956 735.838 134.825 731.675 129.784 728.919V728.919ZM127.777 785.535C127.839 788.497 127.171 791.43 125.832 794.073C124.596 796.477 122.679 798.464 120.32 799.785C117.758 801.104 114.918 801.792 112.037 801.792C109.155 801.792 106.315 801.104 103.754 799.785C101.395 798.464 99.4778 796.477 98.2418 794.073C96.9023 791.43 96.2342 788.497 96.2964 785.535V758.392C96.2354 755.43 96.9035 752.498 98.2418 749.855C99.4804 747.46 101.398 745.484 103.754 744.173C106.315 742.854 109.155 742.166 112.037 742.166C114.918 742.166 117.758 742.854 120.32 744.173C122.678 745.488 124.596 747.47 125.832 749.87C127.17 752.514 127.838 755.446 127.777 758.408V785.535Z" fill="white"/>
<path d="M217.371 793.47L184.424 725.646H163.071V818.235H179.761V751.445L212.585 818.235H234.061V725.646H217.371V793.47Z" fill="white"/>
<path d="M246.798 742.459H272.042V818.297H289.488V742.459H314.731V725.646H246.798V742.459Z" fill="white"/>
<path d="M378.928 777.568C382.812 775.274 385.944 771.9 387.944 767.857C390.04 763.289 391.125 758.323 391.125 753.298C391.125 748.272 390.04 743.306 387.944 738.738C385.951 734.7 382.83 731.327 378.959 729.027C374.874 726.674 370.224 725.483 365.511 725.584H324.921V818.281H342.383V781.011H352.974L373.864 818.281H395.015L372.86 780.085C374.987 779.522 377.027 778.676 378.928 777.568V777.568ZM342.383 742.397H364.106C365.799 742.36 367.466 742.827 368.892 743.741C370.271 744.691 371.343 746.021 371.98 747.57C372.752 749.379 373.131 751.331 373.092 753.298C373.089 755.266 372.69 757.214 371.918 759.026C371.281 760.574 370.209 761.904 368.83 762.854C367.424 763.761 365.779 764.229 364.106 764.198H342.383V742.397Z" fill="white"/>
<path d="M456.371 785.226C456.371 790.537 454.935 794.644 452.079 797.577C449.223 800.511 445.162 801.978 439.928 801.978C434.694 801.978 430.742 800.434 427.886 797.577C425.029 794.721 423.624 790.537 423.624 785.226V725.646H406.163V784.778C405.98 791.216 407.335 797.604 410.115 803.413C412.628 808.453 416.663 812.574 421.648 815.194C427.378 817.872 433.626 819.259 439.951 819.259C446.276 819.259 452.524 817.872 458.255 815.194C463.257 812.577 467.313 808.457 469.85 803.413C472.648 797.609 474.014 791.219 473.833 784.778V725.646H456.371V785.226Z" fill="white"/>
<path d="M515.565 765.525L497.856 725.646H479.576L506.842 782.539V818.297H524.304V782.539L551.57 725.646H533.29L515.565 765.525Z" fill="white"/>
<path d="M565.527 725.646H559.212V818.297H565.527H576.674H621.278V801.468H576.674V780.702H614.268V763.873H576.674V742.459H621.278V725.646H576.674H565.527Z" fill="white"/>
<path d="M691.496 793.47L658.564 725.646H637.211V818.235H653.901V751.445L686.725 818.235H708.201V725.646H691.496V793.47Z" fill="white"/>
<path d="M779.021 729.536C772.794 726.786 766.033 725.457 759.228 725.646H728.581V818.281H759.166C766.089 818.483 772.963 817.061 779.237 814.128C784.453 811.631 788.767 807.581 791.589 802.533C794.422 797.157 795.836 791.147 795.695 785.071V758.825C795.878 752.564 794.408 746.366 791.434 740.853C788.576 735.881 784.236 731.924 779.021 729.536ZM777.647 785.596C777.776 787.778 777.42 789.962 776.606 791.991C775.792 794.019 774.539 795.843 772.938 797.33C769.788 800.099 765.347 801.478 759.614 801.468H746.043V742.459H759.629C765.352 742.459 769.793 743.843 772.953 746.612C774.554 748.097 775.806 749.918 776.62 751.944C777.434 753.97 777.79 756.151 777.662 758.331L777.647 785.596Z" fill="white"/>
<path d="M861.343 728.919C855.839 726.135 849.757 724.684 843.588 724.684C837.419 724.684 831.337 726.135 825.833 728.919C820.792 731.675 816.661 735.838 813.945 740.9C811.06 746.432 809.616 752.602 809.745 758.84V785.087C809.612 791.325 811.057 797.496 813.945 803.028C816.661 808.09 820.792 812.253 825.833 815.008C831.335 817.802 837.418 819.258 843.588 819.258C849.758 819.258 855.842 817.802 861.343 815.008C866.384 812.253 870.515 808.09 873.231 803.028C876.119 797.496 877.564 791.325 877.431 785.087V758.84C877.56 752.602 876.116 746.432 873.231 740.9C870.515 735.838 866.384 731.675 861.343 728.919V728.919ZM859.336 785.535C859.398 788.497 858.73 791.43 857.391 794.073C856.155 796.477 854.238 798.464 851.879 799.785C849.311 801.105 846.464 801.79 843.577 801.785C840.689 801.78 837.845 801.083 835.282 799.754C832.923 798.433 831.006 796.446 829.77 794.042C828.43 791.399 827.762 788.466 827.825 785.504V758.393C827.764 755.43 828.432 752.498 829.77 749.855C831.009 747.46 832.926 745.484 835.282 744.173C837.844 742.854 840.683 742.166 843.565 742.166C846.446 742.166 849.286 742.854 851.848 744.173C854.206 745.488 856.124 747.47 857.36 749.87C858.698 752.514 859.366 755.446 859.305 758.408L859.336 785.535Z" fill="white"/>
<path d="M978.11 768.243C973.359 766.372 968.436 764.971 963.412 764.059C963.167 764.024 962.925 763.972 962.687 763.904L961.945 763.75C961.779 763.704 961.608 763.673 961.436 763.657L960.926 763.549C957.722 762.962 954.552 762.199 951.431 761.264C949.291 760.61 947.344 759.438 945.765 757.852C944.975 757.003 944.364 756.004 943.969 754.913C943.574 753.823 943.402 752.664 943.465 751.506V751.506C943.444 749.984 943.843 748.484 944.62 747.174C945.396 745.864 946.519 744.793 947.865 744.08C950.798 742.32 954.941 741.44 960.293 741.44C964.108 741.483 967.887 742.172 971.472 743.478C975.445 744.878 979.211 746.81 982.665 749.221L990.045 734.431C987.08 732.393 983.927 730.645 980.627 729.212C977.351 727.779 973.944 726.667 970.452 725.893C967.117 725.147 963.711 724.764 960.293 724.75C953.952 724.572 947.643 725.713 941.766 728.101C936.978 730.067 932.909 733.457 930.11 737.812C927.318 742.467 925.924 747.826 926.095 753.251V753.251C926.095 760.003 927.516 765.217 930.357 768.891C933.001 772.415 936.61 775.097 940.747 776.611C945.771 778.305 950.939 779.535 956.187 780.285L957.592 780.471C957.704 780.49 957.819 780.49 957.931 780.471C958.049 780.457 958.168 780.457 958.286 780.471C961.211 780.897 964.105 781.516 966.948 782.323C969.018 782.894 970.906 783.989 972.429 785.504C973.153 786.292 973.714 787.217 974.077 788.224C974.44 789.232 974.599 790.301 974.544 791.371V791.371C974.582 793.037 974.161 794.681 973.328 796.124C972.495 797.567 971.281 798.753 969.819 799.553C966.732 801.499 962.254 802.456 956.573 802.456C951.671 802.467 946.802 801.658 942.168 800.063C937.674 798.572 933.488 796.275 929.816 793.285L921.742 807.783C924.788 810.259 928.14 812.335 931.715 813.958C935.53 815.706 939.527 817.022 943.634 817.88C947.899 818.78 952.245 819.23 956.603 819.223C963.121 819.384 969.606 818.256 975.686 815.904C980.593 813.995 984.803 810.641 987.76 806.285C990.613 801.748 992.053 796.465 991.898 791.108V790.985C991.898 784.696 990.58 779.74 987.945 776.117C985.473 772.619 982.064 769.89 978.11 768.243Z" fill="white"/>
<path d="M1054.21 785.226C1054.21 790.537 1052.79 794.644 1049.92 797.577C1047.05 800.511 1043 801.978 1037.78 801.978C1032.56 801.978 1028.52 800.434 1025.74 797.577C1022.96 794.721 1021.46 790.537 1021.46 785.226V725.646H1004V784.778C1003.82 791.216 1005.17 797.604 1007.95 803.413C1010.47 808.45 1014.51 812.57 1019.49 815.194C1025.21 817.867 1031.46 819.252 1037.78 819.252C1044.09 819.252 1050.34 817.867 1056.06 815.194C1061.07 812.577 1065.12 808.457 1067.66 803.413C1070.46 797.609 1071.82 791.219 1071.64 784.778V725.646H1054.21V785.226Z" fill="white"/>
<path d="M1095.82 725.646H1089.52V818.297H1095.82H1106.98H1151.59V801.468H1106.98V780.702H1144.58V763.873H1106.98V742.459H1151.59V725.646H1106.98H1095.82Z" fill="white"/>
<path d="M1179.3 718.821H1192.55V717.494C1192.46 716.888 1192.52 716.271 1192.71 715.691C1192.91 715.111 1193.23 714.584 1193.67 714.151C1194.1 713.719 1194.63 713.393 1195.21 713.198C1195.79 713.004 1196.4 712.947 1197.01 713.032C1198.07 713.042 1199.11 713.246 1200.1 713.634C1201.15 714.035 1202.52 714.668 1204.22 715.517L1204.67 715.734L1205.1 715.965H1205.3C1206.44 716.552 1207.54 717.061 1208.57 717.509C1209.66 717.942 1210.78 718.293 1211.92 718.559C1213.13 718.839 1214.37 718.979 1215.61 718.976C1217.55 719.077 1219.49 718.646 1221.2 717.729C1222.91 716.812 1224.35 715.444 1225.34 713.773C1227.49 710.314 1228.56 705.122 1228.55 698.195V696.651H1215.3V697.932C1215.4 699.247 1215 700.55 1214.19 701.591C1213.76 702.026 1213.23 702.362 1212.65 702.575C1212.07 702.788 1211.46 702.874 1210.84 702.826C1210.05 702.807 1209.27 702.645 1208.54 702.348C1207.69 702.039 1206.49 701.514 1204.91 700.804L1204.25 700.464L1203.57 700.171L1203.38 700.047C1201.08 699.028 1199.09 698.241 1197.39 697.685C1195.73 697.139 1193.99 696.863 1192.24 696.867C1190.31 696.761 1188.38 697.175 1186.67 698.065C1184.95 698.956 1183.5 700.291 1182.48 701.931C1180.32 705.297 1179.24 710.392 1179.24 717.185L1179.3 718.821Z" fill="white"/>
<path d="M1221.8 793.47L1188.86 725.646H1167.5V818.235H1184.21V751.445L1217.02 818.235H1238.49V725.646H1221.8V793.47Z" fill="white"/>
<path d="M1308.56 728.919C1303.05 726.135 1296.97 724.684 1290.8 724.684C1284.63 724.684 1278.55 726.135 1273.05 728.919C1268 731.671 1263.87 735.834 1261.16 740.9C1258.27 746.432 1256.83 752.602 1256.96 758.84V785.087C1256.83 791.325 1258.27 797.496 1261.16 803.028C1263.87 808.093 1268 812.257 1273.05 815.008C1278.55 817.802 1284.63 819.258 1290.8 819.258C1296.97 819.258 1303.06 817.802 1308.56 815.008C1313.6 812.257 1317.72 808.092 1320.43 803.028C1323.35 797.506 1324.82 791.333 1324.71 785.087V758.84C1324.83 752.601 1323.39 746.43 1320.49 740.9C1317.77 735.826 1313.62 731.661 1308.56 728.919V728.919ZM1306.55 785.535C1306.61 788.497 1305.94 791.43 1304.6 794.073C1303.37 796.477 1301.45 798.464 1299.09 799.785C1296.53 801.104 1293.69 801.792 1290.81 801.792C1287.93 801.792 1285.09 801.104 1282.53 799.785C1280.17 798.464 1278.25 796.477 1277.01 794.073C1275.68 791.43 1275.01 788.497 1275.07 785.535V758.393C1275.01 755.43 1275.68 752.498 1277.01 749.855C1278.25 747.454 1280.17 745.472 1282.53 744.158C1285.09 742.839 1287.93 742.15 1290.81 742.15C1293.69 742.15 1296.53 742.839 1299.09 744.158C1301.45 745.472 1303.37 747.454 1304.6 749.855C1305.94 752.498 1306.61 755.43 1306.55 758.393V785.535Z" fill="white"/>
<path d="M1391.19 768.243C1386.44 766.37 1381.52 764.969 1376.51 764.059C1376.26 764.024 1376.02 763.972 1375.78 763.904L1375.04 763.75C1374.87 763.704 1374.7 763.673 1374.53 763.657L1374.02 763.549C1370.82 762.962 1367.65 762.199 1364.52 761.264C1362.38 760.61 1360.44 759.438 1358.86 757.852C1358.07 757.003 1357.46 756.004 1357.06 754.913C1356.67 753.823 1356.5 752.664 1356.56 751.506V751.506C1356.54 749.984 1356.94 748.484 1357.71 747.174C1358.49 745.864 1359.61 744.793 1360.96 744.08C1363.89 742.32 1368.01 741.44 1373.31 741.44C1377.12 741.483 1380.9 742.172 1384.49 743.478C1388.46 744.881 1392.22 746.813 1395.68 749.221L1403.06 734.431C1397.13 730.362 1390.48 727.464 1383.47 725.893C1380.13 725.147 1376.73 724.764 1373.31 724.75C1366.97 724.572 1360.66 725.713 1354.78 728.101C1349.99 730.067 1345.92 733.457 1343.13 737.812C1340.33 742.467 1338.94 747.826 1339.11 753.251C1339.11 760.003 1340.53 765.217 1343.37 768.891C1346.02 772.415 1349.63 775.097 1353.76 776.611C1358.79 778.305 1363.95 779.535 1369.2 780.285L1370.61 780.471C1370.72 780.491 1370.84 780.491 1370.95 780.471C1371.07 780.457 1371.18 780.457 1371.3 780.471C1374.23 780.897 1377.12 781.516 1379.96 782.323C1382.03 782.898 1383.92 783.993 1385.44 785.504C1386.17 786.293 1386.72 787.219 1387.08 788.226C1387.45 789.233 1387.6 790.302 1387.54 791.371V791.371C1387.59 793.027 1387.19 794.666 1386.37 796.108C1385.55 797.551 1384.36 798.742 1382.91 799.553C1379.82 801.499 1375.35 802.456 1369.67 802.456C1364.76 802.467 1359.9 801.658 1355.26 800.063C1350.77 798.572 1346.58 796.275 1342.91 793.285L1334.82 807.69C1337.87 810.167 1341.22 812.242 1344.79 813.866C1348.61 815.614 1352.61 816.929 1356.71 817.787C1360.98 818.688 1365.32 819.138 1369.68 819.13C1376.2 819.291 1382.68 818.163 1388.76 815.811C1393.67 813.903 1397.88 810.548 1400.84 806.192C1403.69 801.655 1405.13 796.373 1404.98 791.016V790.892C1404.98 784.603 1403.66 779.647 1401.02 776.024C1398.54 772.562 1395.13 769.866 1391.19 768.243V768.243Z" fill="white"/>
<path d="M528.596 413.062V437.41C528.593 440.936 529.519 444.401 531.28 447.456C533.042 450.51 535.578 453.047 538.631 454.81L699.987 547.955V501.637L537.628 407.844C536.712 407.315 535.674 407.037 534.616 407.037C533.559 407.037 532.52 407.316 531.605 407.845C530.69 408.374 529.929 409.134 529.401 410.05C528.873 410.966 528.595 412.005 528.596 413.062Z" fill="white"/>
<path d="M528.596 335.557V361.649C528.595 365.173 529.523 368.635 531.284 371.686C533.046 374.738 535.58 377.272 538.631 379.034L699.987 472.195V425.877L530.155 327.837C529.131 330.282 528.601 332.906 528.596 335.557V335.557Z" fill="white"/>
<path d="M528.596 488.838V513.186C528.595 516.704 529.519 520.16 531.275 523.209C533.031 526.257 535.557 528.791 538.601 530.555L692.438 619.362H692.53C694.82 620.665 697.343 621.504 699.956 621.832V577.429L537.628 483.62C536.712 483.091 535.674 482.813 534.616 482.813C533.559 482.813 532.52 483.092 531.605 483.621C530.69 484.15 529.929 484.91 529.401 485.826C528.873 486.742 528.595 487.781 528.596 488.838V488.838Z" fill="white"/>
<path d="M874.837 327.776L705.005 425.815V472.133L827.191 401.575C828.108 401.048 829.148 400.771 830.205 400.771C831.263 400.772 832.302 401.05 833.218 401.579C834.135 402.107 834.896 402.867 835.426 403.782C835.956 404.698 836.236 405.736 836.239 406.794V489.934C836.238 493.459 835.308 496.922 833.544 499.974C831.779 503.026 829.242 505.559 826.188 507.319L705.021 577.429V621.986C707.635 621.662 710.159 620.823 712.447 619.516H712.539L866.376 530.709C869.42 528.945 871.946 526.412 873.702 523.363C875.458 520.315 876.382 516.858 876.381 513.34V335.789C876.42 333.04 875.895 330.313 874.837 327.776V327.776Z" fill="white"/>
<path d="M810.795 475.298V450.95C810.796 449.893 810.518 448.854 809.99 447.938C809.462 447.022 808.702 446.262 807.786 445.733C806.871 445.204 805.832 444.925 804.775 444.925C803.717 444.925 802.679 445.203 801.763 445.732L705.021 501.591V547.909L800.744 492.636C803.792 490.88 806.324 488.354 808.088 485.311C809.852 482.268 810.786 478.815 810.795 475.298V475.298Z" fill="white"/>
<path d="M866.376 318.173L712.539 229.366C709.488 227.604 706.027 226.677 702.504 226.677C698.981 226.677 695.52 227.604 692.468 229.366L538.631 318.173C536.321 319.51 534.3 321.294 532.687 323.422L702.504 421.492L872.336 323.437C870.72 321.303 868.694 319.512 866.376 318.173V318.173Z" fill="white"/>
</g>
<defs>
<filter id="filter0_i" x="0" y="0" width="1409" height="823.269" filterUnits="userSpaceOnUse" color-interpolation-filters="sRGB">
<feFlood flood-opacity="0" result="BackgroundImageFix"/>
<feBlend mode="normal" in="SourceGraphic" in2="BackgroundImageFix" result="shape"/>
<feColorMatrix in="SourceAlpha" type="matrix" values="0 0 0 0 0 0 0 0 0 0 0 0 0 0 0 0 0 0 127 0" result="hardAlpha"/>
<feOffset dx="4" dy="4"/>
<feGaussianBlur stdDeviation="5"/>
<feComposite in2="hardAlpha" operator="arithmetic" k2="-1" k3="1"/>
<feColorMatrix type="matrix" values="0 0 0 0 0 0 0 0 0 0 0 0 0 0 0 0 0 0 0.05 0"/>
<feBlend mode="normal" in2="shape" result="effect1_innerShadow"/>
</filter>
</defs>
</svg>
