<svg width="726" height="122" viewBox="0 0 726 122" fill="none" xmlns="http://www.w3.org/2000/svg">
<g filter="url(#filter0_i)">
<path d="M17.527 31.0762H0V120.796H17.527V31.0762Z" fill="white"/>
<path d="M72.8754 91.5424L55.778 31.0762H33.5123V120.796H48.8658V58.2702L65.4071 110.801H80.3436L96.8723 57.0823V120.796H112.238V31.0762H89.9601L72.8754 91.5424Z" fill="white"/>
<path d="M153.889 31.0762L119.58 120.796H137.739L142.794 106.416H175.649L180.704 120.796H198.913L164.605 31.0762H153.889ZM148.531 90.1271L159.221 59.5212L169.95 90.1271H148.531Z" fill="white"/>
<path d="M235.281 86.9174H248.853V88.3959C248.925 91.3224 248.288 94.223 246.995 96.8498C245.84 99.1662 244 101.072 241.726 102.309C239.28 103.604 236.544 104.252 233.777 104.192C230.963 104.254 228.173 103.661 225.627 102.46C223.368 101.391 221.477 99.676 220.193 97.5321C218.891 95.2851 218.231 92.7236 218.285 90.1271V63.5902C218.229 60.6826 218.875 57.8043 220.168 55.1995C221.348 52.8487 223.194 50.8974 225.475 49.5888C227.895 48.2408 230.629 47.5605 233.398 47.6175C235.435 47.6117 237.456 47.9756 239.363 48.6916C241.249 49.375 242.972 50.447 244.418 51.8381C245.824 53.1965 246.874 54.8804 247.476 56.7411H265.735C264.771 51.6704 262.671 46.8838 259.594 42.7398C256.616 38.7483 252.713 35.5394 248.221 33.3887C243.603 31.1676 238.535 30.0391 233.411 30.0905C227.431 29.9658 221.522 31.3985 216.263 34.2479C211.333 36.9681 207.315 41.0825 204.713 46.0758C201.931 51.5097 200.541 57.5497 200.67 63.6534V90.1902C200.551 95.9863 201.968 101.711 204.776 106.782C207.485 111.524 211.516 115.375 216.377 117.864C221.742 120.563 227.685 121.908 233.689 121.782C239.692 121.902 245.622 120.447 250.887 117.561C255.777 114.844 259.759 110.748 262.336 105.784C265.116 100.335 266.505 94.2838 266.38 88.1684V70.6288H235.281V86.9174Z" fill="white"/>
<path d="M296.796 31.0762H279.269V120.796H296.796V31.0762Z" fill="white"/>
<path d="M365.35 96.7613L333.455 31.0762H312.782V120.733H328.944V56.0588L360.725 120.733H381.512V31.0762H365.35V96.7613Z" fill="white"/>
<path d="M423.175 31.0762L388.867 120.796H407.063L412.118 106.416H444.973L450.028 120.796H468.225L433.916 31.0762H423.175ZM417.817 90.1271L428.533 59.5212L439.261 90.1271H417.817Z" fill="white"/>
<path d="M489.29 54.6814C490.346 52.3118 492.112 50.329 494.345 49.0076C496.817 47.6456 499.61 46.9735 502.432 47.0615C504.731 47.0279 506.998 47.6034 509.003 48.7296C511.054 49.8947 512.789 51.5431 514.058 53.5315C515.522 55.8543 516.554 58.423 517.103 61.1134H534.63C533.739 55.1886 531.696 49.4958 528.615 44.3573C525.924 39.9338 522.126 36.2883 517.596 33.7804C512.934 31.2944 507.714 30.0416 502.432 30.1411C496.354 29.9955 490.336 31.3772 484.93 34.1595C480.167 36.7287 476.307 40.6986 473.873 45.5325C471.198 51.1846 469.898 57.39 470.082 63.6408V88.2695C469.898 94.5243 471.197 100.734 473.873 106.39C476.308 111.241 480.19 115.215 484.981 117.763C490.406 120.509 496.43 121.855 502.508 121.681C507.765 121.773 512.959 120.521 517.596 118.041C522.097 115.52 525.864 111.871 528.527 107.452C531.618 102.317 533.682 96.6306 534.605 90.7084H517.078C516.57 93.3969 515.567 95.9677 514.121 98.2904C512.866 100.287 511.127 101.934 509.066 103.08C507.022 104.184 504.729 104.745 502.407 104.71C499.585 104.798 496.792 104.126 494.319 102.764C492.091 101.449 490.325 99.4754 489.265 97.1152C488.015 94.3021 487.411 91.2453 487.495 88.1684V63.6534C487.423 60.5669 488.036 57.5027 489.29 54.6814V54.6814Z" fill="white"/>
<path d="M562.557 31.0762H545.03V120.796H562.557V31.0762Z" fill="white"/>
<path d="M630.062 11.5779L618.828 0.0407104L601.806 15.1541L611.865 25.5288L630.062 11.5779Z" fill="white"/>
<path d="M626.637 34.2606C621.311 31.5607 615.423 30.1537 609.452 30.1537C603.48 30.1537 597.592 31.5607 592.266 34.2606C587.385 36.9203 583.389 40.9479 580.766 45.8484C577.967 51.2045 576.567 57.1815 576.697 63.2238V88.6487C576.565 94.687 577.965 100.66 580.766 106.011C583.385 110.918 587.382 114.951 592.266 117.612C597.592 120.312 603.48 121.719 609.452 121.719C615.423 121.719 621.311 120.312 626.637 117.612C631.525 114.951 635.526 110.919 638.149 106.011C640.951 100.66 642.35 94.687 642.218 88.6487V63.2238C642.349 57.1815 640.949 51.2045 638.149 45.8484C635.522 40.9474 631.521 36.9201 626.637 34.2606V34.2606ZM624.691 89.0783C624.754 91.9462 624.108 94.7852 622.808 97.3426C621.616 99.6704 619.761 101.592 617.476 102.865C614.997 104.144 612.247 104.811 609.458 104.811C606.668 104.811 603.919 104.144 601.44 102.865C599.149 101.596 597.288 99.6735 596.095 97.3426C594.801 94.783 594.155 91.9455 594.212 89.0783V62.7941C594.152 59.9266 594.799 57.0885 596.095 54.5298C597.305 52.1899 599.189 50.2664 601.503 49.0076C603.982 47.7287 606.731 47.0614 609.521 47.0614C612.311 47.0614 615.06 47.7287 617.539 49.0076C619.824 50.2802 621.68 52.202 622.872 54.5298C624.173 57.0864 624.82 59.926 624.754 62.7941L624.691 89.0783Z" fill="white"/>
<path d="M708.927 31.0762V96.7613L677.019 31.0762H656.346V120.733H672.521V56.0588L704.289 120.733H725.089V31.0762H708.927Z" fill="white"/>
</g>
<defs>
<filter id="filter0_i" x="0" y="0.0407104" width="729.089" height="125.749" filterUnits="userSpaceOnUse" color-interpolation-filters="sRGB">
<feFlood flood-opacity="0" result="BackgroundImageFix"/>
<feBlend mode="normal" in="SourceGraphic" in2="BackgroundImageFix" result="shape"/>
<feColorMatrix in="SourceAlpha" type="matrix" values="0 0 0 0 0 0 0 0 0 0 0 0 0 0 0 0 0 0 127 0" result="hardAlpha"/>
<feOffset dx="4" dy="4"/>
<feGaussianBlur stdDeviation="5"/>
<feComposite in2="hardAlpha" operator="arithmetic" k2="-1" k3="1"/>
<feColorMatrix type="matrix" values="0 0 0 0 0 0 0 0 0 0 0 0 0 0 0 0 0 0 0.05 0"/>
<feBlend mode="normal" in2="shape" result="effect1_innerShadow"/>
</filter>
</defs>
</svg>
