<svg width="498" height="92" viewBox="0 0 498 92" fill="none" xmlns="http://www.w3.org/2000/svg">
<g filter="url(#filter0_i)">
<path d="M17.527 1.28186H0V91.0018H17.527V1.28186Z" fill="white"/>
<path d="M86.0807 66.967L54.1732 1.28186H33.5123V90.9387H49.6746V26.2645L81.443 90.9387H102.243V1.28186H86.0807V66.967Z" fill="white"/>
<path d="M172.035 66.967L140.127 1.28186H119.454V90.9387H135.629V26.2645L167.397 90.9387H188.197V1.28186H172.035V66.967Z" fill="white"/>
<path d="M253.516 4.46633C248.189 1.76637 242.302 0.359375 236.33 0.359375C230.358 0.359375 224.471 1.76637 219.144 4.46633C214.257 7.12678 210.255 11.1593 207.632 16.0668C204.831 21.4177 203.431 27.3911 203.563 33.4295V58.8543C203.438 64.8799 204.837 70.8395 207.632 76.1791C210.255 81.0866 214.257 85.1191 219.144 87.7796C224.471 90.4795 230.358 91.8865 236.33 91.8865C242.302 91.8865 248.189 90.4795 253.516 87.7796C258.399 85.1183 262.397 81.0857 265.015 76.1791C267.836 70.8465 269.262 64.8865 269.16 58.8543V33.4295C269.288 27.39 267.884 21.4165 265.078 16.0668C262.443 11.1513 258.423 7.1177 253.516 4.46633V4.46633ZM251.57 59.284C251.629 62.1515 250.983 64.9896 249.687 67.5483C248.495 69.8761 246.639 71.7979 244.354 73.0705C241.873 74.3495 239.122 75.0168 236.33 75.0168C233.538 75.0168 230.787 74.3495 228.306 73.0705C226.021 71.7979 224.165 69.8761 222.973 67.5483C221.689 64.9873 221.059 62.1478 221.141 59.284V32.9998C221.078 30.1319 221.724 27.2929 223.024 24.7355C224.216 22.4077 226.072 20.4859 228.356 19.2133C230.838 17.9343 233.589 17.267 236.381 17.267C239.172 17.267 241.923 17.9343 244.405 19.2133C246.69 20.4859 248.545 22.4077 249.737 24.7355C251.031 27.2951 251.677 30.1326 251.62 32.9998L251.57 59.284Z" fill="white"/>
<path d="M330.738 1.28186L311.67 61.1415L292.601 1.28186H275.2L305.061 91.0018H318.266L348.139 1.28186H330.738Z" fill="white"/>
<path d="M376.205 1.28186L341.909 91.0018H360.144L365.198 76.6214H398.054L403.108 91.0018H421.305L386.946 1.28186H376.205ZM370.86 60.3328L381.626 29.7269L392.355 60.3328H370.86Z" fill="white"/>
<path d="M477.222 91.0018H497.706L476.224 54.0144C478.28 53.4732 480.253 52.6526 482.087 51.5756C485.851 49.3531 488.886 46.0816 490.819 42.1613C492.954 37.7727 494.011 32.938 493.902 28.0588C494.01 23.1838 492.953 18.3535 490.819 13.969C488.891 10.053 485.866 6.78211 482.112 4.5547C478.171 2.28105 473.684 1.12749 469.135 1.21864H429.835V91.0018H446.743V54.899H456.991L477.222 91.0018ZM446.743 17.5072H467.782C469.415 17.4622 471.025 17.9019 472.407 18.7709C473.765 19.6813 474.828 20.9681 475.466 22.4734C476.214 24.2253 476.58 26.1164 476.54 28.0209C476.541 29.9322 476.154 31.8239 475.402 33.581C474.761 35.0841 473.699 36.3698 472.344 37.2835C470.982 38.1461 469.395 38.5858 467.782 38.5472H446.743V17.5072Z" fill="white"/>
</g>
<defs>
<filter id="filter0_i" x="0" y="0.359375" width="501.706" height="95.5271" filterUnits="userSpaceOnUse" color-interpolation-filters="sRGB">
<feFlood flood-opacity="0" result="BackgroundImageFix"/>
<feBlend mode="normal" in="SourceGraphic" in2="BackgroundImageFix" result="shape"/>
<feColorMatrix in="SourceAlpha" type="matrix" values="0 0 0 0 0 0 0 0 0 0 0 0 0 0 0 0 0 0 127 0" result="hardAlpha"/>
<feOffset dx="4" dy="4"/>
<feGaussianBlur stdDeviation="5"/>
<feComposite in2="hardAlpha" operator="arithmetic" k2="-1" k3="1"/>
<feColorMatrix type="matrix" values="0 0 0 0 0 0 0 0 0 0 0 0 0 0 0 0 0 0 0.05 0"/>
<feBlend mode="normal" in2="shape" result="effect1_innerShadow"/>
</filter>
</defs>
</svg>
