<svg width="561" height="91" viewBox="0 0 561 91" fill="none" xmlns="http://www.w3.org/2000/svg">
<g filter="url(#filter0_i)">
<path d="M17.527 0.645691H0V90.3657H17.527V0.645691Z" fill="white"/>
<path d="M33.5123 0.645691H54.1732L87.5591 69.3763L86.0807 70.9811V0.645691H102.243V90.3025H81.443L48.1961 22.6081L49.6746 21.0033V90.3025H33.5123V0.645691Z" fill="white"/>
<path d="M112.668 0.645691H130.069L149.137 60.4927L168.206 0.645691H185.607L155.746 90.3657H142.541L112.668 0.645691Z" fill="white"/>
<path d="M211.095 0.645691H194.187V90.3657H211.095V0.645691Z" fill="white"/>
<path d="M254.274 0.645691H200.29V16.9343H254.274V0.645691Z" fill="white"/>
<path d="M247.488 37.6711H200.29V53.9597H247.488V37.6711Z" fill="white"/>
<path d="M254.274 74.0645H200.29V90.3531H254.274V74.0645Z" fill="white"/>
<path d="M267.176 0.645691H287.85L321.235 69.3763L319.744 70.9811V0.645691H335.919V90.3025H315.119L281.872 22.6081L283.351 21.0033V90.3025H267.176V0.645691Z" fill="white"/>
<path d="M411.499 0.645691H345.725V16.9343H411.499V0.645691Z" fill="white"/>
<path d="M387.072 7.98767H370.164V90.3658H387.072V7.98767Z" fill="white"/>
<path d="M438.971 0.645691H449.699L484.008 90.3657H465.811L444.329 29.0907L422.859 90.3657H404.662L438.971 0.645691Z" fill="white"/>
<path d="M468.326 59.6967H421.128V75.9853H468.326V59.6967Z" fill="white"/>
<path d="M509.496 0.582336H492.588V90.3529H509.496V0.582336Z" fill="white"/>
<path d="M499.311 37.9743H530.536C532.149 38.0198 533.738 37.5796 535.098 36.7106C536.455 35.8002 537.518 34.5135 538.156 33.0081C538.909 31.2557 539.296 29.368 539.293 27.4606C539.333 25.5562 538.967 23.665 538.219 21.9132C537.581 20.4078 536.519 19.1211 535.161 18.2106C533.78 17.336 532.169 16.8958 530.536 16.947H499.311V0.582555H531.888C536.45 0.48446 540.951 1.63826 544.904 3.91862C548.657 6.14092 551.682 9.40768 553.61 13.3203C555.743 17.7098 556.8 22.5438 556.694 27.4227C556.8 32.3016 555.743 37.1357 553.61 41.5252C551.677 45.4421 548.642 48.7095 544.878 50.9268C540.932 53.1997 536.441 54.3532 531.888 54.2629H499.311V37.9743Z" fill="white"/>
<path d="M518.19 51.4829L536.273 48.6523L560.459 90.3658H539.975L518.19 51.4829Z" fill="white"/>
</g>
<defs>
<filter id="filter0_i" x="0" y="0.576782" width="564.459" height="93.789" filterUnits="userSpaceOnUse" color-interpolation-filters="sRGB">
<feFlood flood-opacity="0" result="BackgroundImageFix"/>
<feBlend mode="normal" in="SourceGraphic" in2="BackgroundImageFix" result="shape"/>
<feColorMatrix in="SourceAlpha" type="matrix" values="0 0 0 0 0 0 0 0 0 0 0 0 0 0 0 0 0 0 127 0" result="hardAlpha"/>
<feOffset dx="4" dy="4"/>
<feGaussianBlur stdDeviation="5"/>
<feComposite in2="hardAlpha" operator="arithmetic" k2="-1" k3="1"/>
<feColorMatrix type="matrix" values="0 0 0 0 0 0 0 0 0 0 0 0 0 0 0 0 0 0 0.05 0"/>
<feBlend mode="normal" in2="shape" result="effect1_innerShadow"/>
</filter>
</defs>
</svg>
