<svg width="524" height="92" viewBox="0 0 524 92" fill="none" xmlns="http://www.w3.org/2000/svg">
<g filter="url(#filter0_i)">
<path d="M49.9611 4.33581C44.6788 1.51755 38.7611 0.103394 32.7753 0.228905C26.7892 0.100554 20.8708 1.51488 15.5895 4.33581C10.7023 6.99625 6.70052 11.0288 4.07755 15.9362C1.27628 21.2871 -0.123607 27.2606 0.00856213 33.2989V58.7238C-0.117184 64.7494 1.28252 70.709 4.07755 76.0486C6.70052 80.956 10.7023 84.9886 15.5895 87.649C20.8708 90.47 26.7892 91.8843 32.7753 91.7559C38.7611 91.8814 44.6788 90.4673 49.9611 87.649C54.8445 84.9878 58.8421 80.9552 61.4604 76.0486C64.2661 70.6989 65.6703 64.7254 65.5421 58.6859V33.2989C65.6703 27.2595 64.2661 21.286 61.4604 15.9362C58.8421 11.0297 54.8445 6.99703 49.9611 4.33581ZM48.0277 59.1535C48.0872 62.021 47.4406 64.8591 46.1449 67.4178C44.9527 69.7456 43.0969 71.6674 40.8122 72.94C38.3527 74.2769 35.5866 74.9477 32.788 74.886C29.9891 74.9495 27.2225 74.2785 24.7637 72.94C22.479 71.6674 20.6232 69.7456 19.431 67.4178C18.1293 64.8612 17.4824 62.0216 17.5482 59.1535V32.8693C17.485 30.0014 18.1318 27.1624 19.431 24.6049C20.6232 22.2772 22.479 20.3554 24.7637 19.0827C27.2225 17.7442 29.9891 17.0733 32.788 17.1367C35.5866 17.075 38.3527 17.7459 40.8122 19.0827C43.0969 20.3554 44.9527 22.2772 46.1449 24.6049C47.4382 27.1645 48.0847 30.0021 48.0277 32.8693V59.1535Z" fill="white"/>
<path d="M136.282 48.5134C133.228 46.5611 129.772 45.3256 126.173 44.8994C129.551 44.4043 132.788 43.2076 135.675 41.3864C138.228 39.7413 140.302 37.4532 141.69 34.7522C143.091 31.8738 143.784 28.7025 143.712 25.5022C143.846 20.9203 142.737 16.3877 140.503 12.3854C138.323 8.68941 135.046 5.76514 131.126 4.01992C126.44 1.99536 121.369 1.01647 116.266 1.1514H79.6194V90.8714H117.302C122.421 91.0056 127.509 90.0269 132.213 88.0029C136.15 86.26 139.449 83.3368 141.653 79.6374C143.905 75.6093 145.023 71.0455 144.888 66.4322V66.2553C144.959 62.6593 144.211 59.0943 142.701 55.8301C141.263 52.8553 139.044 50.3266 136.282 48.5134V48.5134ZM115.697 17.44C118.614 17.2522 121.503 18.1076 123.848 19.8536C124.807 20.681 125.564 21.717 126.061 22.8823C126.559 24.0475 126.783 25.3111 126.716 26.5763C126.798 27.9536 126.584 29.3326 126.089 30.6206C125.595 31.9087 124.83 33.0761 123.848 34.0445C121.578 35.9356 118.67 36.8853 115.722 36.6982H96.5777V17.44H115.697ZM127.853 63.9049C127.939 65.3699 127.699 66.8358 127.151 68.197C126.602 69.5583 125.759 70.7811 124.682 71.7775C122.559 73.6477 119.564 74.5828 115.697 74.5828H96.5777V52.9868H115.697C117.953 52.9251 120.196 53.3564 122.268 54.2505C124.005 55.0092 125.462 56.29 126.438 57.9151C127.426 59.685 127.915 61.6895 127.853 63.7153V63.9049Z" fill="white"/>
<path d="M183.454 62.3C183.454 66.4532 182.57 69.6713 180.801 71.9543C179.908 73.0957 178.752 74.0036 177.431 74.6C176.111 75.1965 174.665 75.4637 173.219 75.3789C170.993 75.3669 168.8 74.8392 166.812 73.8372C164.727 72.8011 162.904 71.3063 161.479 69.4649L147.655 79.5742C150.054 83.5033 153.538 86.6543 157.688 88.6473C162.438 90.8028 167.6 91.8979 172.815 91.8564C178.031 91.815 183.175 90.638 187.89 88.4072C192.12 86.1335 195.538 82.6006 197.671 78.2979C200.002 73.3187 201.119 67.8578 200.931 62.3631V1.15137H183.454V62.3Z" fill="white"/>
<path d="M224.309 1.15137H218.192V90.8714H224.309H235.1H278.292V74.5828H235.1V54.4653H271.506V38.1767H235.1V17.44H278.292V1.15137H235.1H224.309Z" fill="white"/>
<path d="M281.325 17.44H305.752V90.8714H322.659V17.44H347.099V1.15137H281.325V17.44Z" fill="white"/>
<path d="M370.729 1.15137H353.202V90.8714H370.729V1.15137Z" fill="white"/>
<path d="M416.385 61.011L397.329 1.15137H379.928L409.789 90.8714H422.994L452.854 1.15137H435.454L416.385 61.011Z" fill="white"/>
<path d="M519.184 15.9362C516.569 11.027 512.571 6.99341 507.685 4.33578C502.358 1.63582 496.47 0.228821 490.499 0.228821C484.527 0.228821 478.639 1.63582 473.313 4.33578C468.426 6.99623 464.424 11.0288 461.801 15.9362C459 21.2871 457.6 27.2605 457.732 33.2989V58.7238C457.606 64.7494 459.006 70.709 461.801 76.0486C464.424 80.956 468.426 84.9886 473.313 87.649C478.639 90.349 484.527 91.756 490.499 91.756C496.47 91.756 502.358 90.349 507.685 87.649C512.571 84.9914 516.569 80.9578 519.184 76.0486C521.99 70.6988 523.394 64.7253 523.266 58.6859V33.2989C523.394 27.2594 521.99 21.286 519.184 15.9362V15.9362ZM505.739 59.1534C505.798 62.0209 505.152 64.8591 503.856 67.4178C502.664 69.7455 500.808 71.6673 498.523 72.94C496.042 74.219 493.29 74.8863 490.499 74.8863C487.707 74.8863 484.956 74.219 482.475 72.94C480.19 71.6673 478.334 69.7455 477.142 67.4178C475.84 64.8612 475.193 62.0216 475.259 59.1534V32.8693C475.196 30.0014 475.843 27.1624 477.142 24.6049C478.334 22.2772 480.19 20.3554 482.475 19.0827C484.956 17.8037 487.707 17.1364 490.499 17.1364C493.29 17.1364 496.042 17.8037 498.523 19.0827C500.808 20.3554 502.664 22.2772 503.856 24.6049C505.149 27.1645 505.796 30.002 505.739 32.8693V59.1534Z" fill="white"/>
</g>
<defs>
<filter id="filter0_i" x="0" y="0.220886" width="527.274" height="95.6367" filterUnits="userSpaceOnUse" color-interpolation-filters="sRGB">
<feFlood flood-opacity="0" result="BackgroundImageFix"/>
<feBlend mode="normal" in="SourceGraphic" in2="BackgroundImageFix" result="shape"/>
<feColorMatrix in="SourceAlpha" type="matrix" values="0 0 0 0 0 0 0 0 0 0 0 0 0 0 0 0 0 0 127 0" result="hardAlpha"/>
<feOffset dx="4" dy="4"/>
<feGaussianBlur stdDeviation="5"/>
<feComposite in2="hardAlpha" operator="arithmetic" k2="-1" k3="1"/>
<feColorMatrix type="matrix" values="0 0 0 0 0 0 0 0 0 0 0 0 0 0 0 0 0 0 0.05 0"/>
<feBlend mode="normal" in2="shape" result="effect1_innerShadow"/>
</filter>
</defs>
</svg>
