<svg width="537" height="93" viewBox="0 0 537 93" fill="none" xmlns="http://www.w3.org/2000/svg">
<g filter="url(#filter0_i)">
<path d="M50.7487 5.33661C46.1855 2.9857 41.1085 1.80875 35.9764 1.91209H0V91.6321H16.9078V56.8308H35.9764C41.1058 56.9361 46.1812 55.7682 50.7487 53.4316C54.9104 51.2618 58.3523 47.9297 60.6558 43.8404C63.0657 39.428 64.277 34.4611 64.1687 29.4346C64.2736 24.3965 63.0628 19.4182 60.6558 14.991C58.3509 10.8868 54.911 7.53463 50.7487 5.33661V5.33661ZM45.3528 35.2348C44.5356 36.8633 43.2681 38.223 41.7008 39.1522C40.0845 40.0962 38.2396 40.5771 36.3682 40.5422H16.9078V18.2007H36.4061C38.2983 18.1594 40.1652 18.6404 41.8019 19.5907C43.3578 20.5278 44.602 21.9038 45.3781 23.546C46.2521 25.3837 46.6848 27.4001 46.6418 29.4346C46.6822 31.4433 46.2401 33.4323 45.3528 35.2348V35.2348Z" fill="white"/>
<path d="M91.8177 1.91193H74.9099V91.6319H82.4413H91.8177H135.01V75.3433H91.8177V1.91193Z" fill="white"/>
<path d="M171.719 1.91193L137.411 91.6319H155.62L160.675 77.2514H193.53L198.584 91.6319H216.794L182.46 1.91193H171.719ZM166.361 60.9628L177.09 30.357L187.818 60.9628H166.361Z" fill="white"/>
<path d="M269.425 43.1579C264.848 41.35 260.103 39.9997 255.26 39.1269L254.552 38.9626C254.319 38.8987 254.083 38.8481 253.844 38.8109L253.352 38.7225L252.846 38.634C249.729 38.0462 246.645 37.2912 243.609 36.3721C241.538 35.7301 239.653 34.5988 238.112 33.0739C237.351 32.2503 236.763 31.2824 236.383 30.2274C236.004 29.1725 235.839 28.0521 235.9 26.9325C235.866 25.4599 236.24 24.0065 236.981 22.7331C237.721 21.4597 238.799 20.4158 240.096 19.717C242.939 18.0111 246.945 17.1897 252.139 17.1897C255.835 17.2316 259.497 17.9025 262.968 19.1736C266.81 20.5295 270.453 22.3954 273.798 24.7211L280.95 10.4038C278.07 8.43539 275.011 6.74301 271.814 5.34918C268.664 3.94705 265.384 2.85924 262.02 2.10157C258.794 1.37157 255.497 0.99865 252.189 0.989545C246.065 0.823143 239.973 1.92452 234.296 4.22452C229.657 6.12855 225.713 9.4101 222.998 13.6262C220.307 18.1103 218.956 23.2717 219.106 28.4995V28.4995C219.106 35.0368 220.488 40.0915 223.251 43.6634C225.818 47.0877 229.333 49.6842 233.361 51.1316C238.216 52.7699 243.211 53.9585 248.284 54.6825L249.649 54.8721C249.758 54.8896 249.869 54.8896 249.978 54.8721C250.094 54.8747 250.209 54.8961 250.319 54.9353C253.152 55.35 255.955 55.9494 258.71 56.7297C260.716 57.2796 262.545 58.3422 264.017 59.813C264.716 60.576 265.256 61.4708 265.606 62.445C265.955 63.4192 266.107 64.4533 266.051 65.4868V65.55C266.087 67.163 265.681 68.7551 264.877 70.1539C264.073 71.5526 262.901 72.7049 261.49 73.4858C258.44 75.356 254.16 76.2912 248.651 76.2912C243.922 76.2906 239.225 75.5092 234.751 73.9787C230.398 72.5282 226.344 70.302 222.784 67.4076L214.949 81.3079C217.892 83.7233 221.138 85.7453 224.603 87.3229C228.295 89.0148 232.165 90.2864 236.141 91.1139C240.268 91.9681 244.474 92.3916 248.689 92.3776C255.003 92.5422 261.287 91.4512 267.176 89.1679C271.93 87.3261 276.008 84.0769 278.865 79.8547C281.633 75.4677 283.032 70.3559 282.883 65.1709V65.0446C282.883 58.9537 281.62 54.1518 279.092 50.6388C276.63 47.2931 273.282 44.7021 269.425 43.1579V43.1579Z" fill="white"/>
<path d="M333.822 62.3781L316.724 1.91193H294.459V91.6319H309.812V29.1059L326.353 81.6363H341.29L357.819 27.9181V91.6319H373.185V1.91193H350.906L333.822 62.3781Z" fill="white"/>
<path d="M414.835 1.91193L380.527 91.6319H398.736L403.791 77.2514H436.646L441.7 91.6319H459.91L425.576 1.91193H414.835ZM409.427 60.9628L420.155 30.357L430.909 60.9628H409.427Z" fill="white"/>
<path d="M515.839 91.6321H536.336L514.854 54.6447C516.914 54.1012 518.89 53.2808 520.73 52.2058C524.499 49.9853 527.538 46.7136 529.474 42.7916C531.604 38.401 532.66 33.5677 532.558 28.6891C532.659 23.8147 531.603 18.9857 529.474 14.5993C527.543 10.6858 524.519 7.41582 520.768 5.185C516.818 2.90867 512.322 1.75509 507.765 1.84893H468.452V91.6321H485.36V55.5293H495.621L515.839 91.6321ZM485.36 18.1375H506.4C508.045 18.0891 509.664 18.5483 511.039 19.4526C512.414 20.357 513.476 21.6626 514.083 23.1922C514.835 24.9431 515.206 26.8343 515.17 28.7397C515.161 30.6512 514.77 32.5416 514.02 34.2998C513.388 35.8046 512.329 37.0917 510.974 38.0023C509.608 38.8665 508.016 39.3063 506.4 39.266H485.36V18.1375Z" fill="white"/>
</g>
<defs>
<filter id="filter0_i" x="0" y="0.973145" width="540.336" height="95.4206" filterUnits="userSpaceOnUse" color-interpolation-filters="sRGB">
<feFlood flood-opacity="0" result="BackgroundImageFix"/>
<feBlend mode="normal" in="SourceGraphic" in2="BackgroundImageFix" result="shape"/>
<feColorMatrix in="SourceAlpha" type="matrix" values="0 0 0 0 0 0 0 0 0 0 0 0 0 0 0 0 0 0 127 0" result="hardAlpha"/>
<feOffset dx="4" dy="4"/>
<feGaussianBlur stdDeviation="5"/>
<feComposite in2="hardAlpha" operator="arithmetic" k2="-1" k3="1"/>
<feColorMatrix type="matrix" values="0 0 0 0 0 0 0 0 0 0 0 0 0 0 0 0 0 0 0.05 0"/>
<feBlend mode="normal" in2="shape" result="effect1_innerShadow"/>
</filter>
</defs>
</svg>
