<svg width="615" height="93" viewBox="0 0 615 93" fill="none" xmlns="http://www.w3.org/2000/svg">
<g filter="url(#filter0_i)">
<path d="M16.9078 1.41727H0V91.1373H16.9078V1.41727Z" fill="white"/>
<path d="M7.70837 40.0474H36.4061C38.2647 40.0752 40.0956 39.5946 41.7009 38.6573C43.2541 37.7225 44.508 36.3634 45.3149 34.74C46.1935 32.9353 46.6269 30.9464 46.5786 28.9398C46.6217 26.9053 46.189 24.8888 45.3149 23.0511C44.5389 21.409 43.2947 20.0329 41.7388 19.0958C40.1021 18.1455 38.2351 17.6646 36.3429 17.7058H7.70837V1.41721H35.9765C41.1086 1.31387 46.1856 2.49083 50.7487 4.84174C54.9111 7.03976 58.351 10.3919 60.6558 14.4961C63.0628 18.9233 64.2737 23.9017 64.1688 28.9398C64.277 33.9662 63.0658 38.9332 60.6558 43.3455C58.3523 47.4348 54.9105 50.7669 50.7487 52.9367C46.1813 55.2733 41.1058 56.4413 35.9765 56.3359H7.70837V40.0474Z" fill="white"/>
<path d="M91.8177 1.35406H74.9099V91.1246H91.8177V1.35406Z" fill="white"/>
<path d="M81.6324 38.7458H112.858C114.47 38.7859 116.058 38.3461 117.419 37.4822C118.774 36.5685 119.836 35.2827 120.477 33.7796C121.229 32.0225 121.616 30.1308 121.615 28.2195C121.655 26.3151 121.289 24.4239 120.541 22.6721C119.918 21.1624 118.868 19.867 117.52 18.9443C116.138 18.0753 114.528 17.6355 112.895 17.6806H81.6324V1.35408H114.21C118.775 1.25754 123.281 2.41115 127.238 4.69015C130.985 6.92174 134.005 10.1918 135.932 14.1044C138.061 18.4901 139.114 23.3203 139.003 28.1943C139.112 33.0734 138.055 37.9082 135.919 42.2967C133.986 46.217 130.951 49.4886 127.187 51.711C123.24 53.9795 118.749 55.1285 114.197 55.0344H81.6324V38.7458Z" fill="white"/>
<path d="M100.512 52.267L118.595 49.4238L142.781 91.1373H122.297L100.512 52.267Z" fill="white"/>
<path d="M211.891 16.2021C209.271 11.292 205.269 7.25852 200.379 4.60166C195.055 1.90182 189.169 0.494843 183.199 0.494843C177.23 0.494843 171.344 1.90182 166.02 4.60166C161.13 7.25852 157.127 11.292 154.508 16.2021C151.707 21.553 150.307 27.5264 150.439 33.5648V58.9897C150.313 65.0153 151.713 70.9749 154.508 76.3145C157.127 81.2246 161.13 85.258 166.02 87.9149C171.344 90.6147 177.23 92.0217 183.199 92.0217C189.169 92.0217 195.055 90.6147 200.379 87.9149C205.269 85.258 209.271 81.2246 211.891 76.3145C214.692 70.9636 216.092 64.9901 215.96 58.9518V33.5648C216.092 27.5264 214.692 21.553 211.891 16.2021V16.2021ZM198.395 59.4193C198.454 62.2868 197.808 65.1249 196.512 67.6837C195.311 70.0092 193.452 71.9298 191.167 73.2059C188.688 74.4848 185.938 75.1521 183.149 75.1521C180.359 75.1521 177.61 74.4848 175.131 73.2059C172.843 71.9334 170.983 70.0119 169.786 67.6837C168.49 65.1249 167.843 62.2868 167.903 59.4193V33.1351C167.846 30.2679 168.492 27.4304 169.786 24.8708C170.983 22.5426 172.843 20.6211 175.131 19.3486C177.61 18.0697 180.359 17.4024 183.149 17.4024C185.938 17.4024 188.688 18.0697 191.167 19.3486C193.452 20.6247 195.311 22.5453 196.512 24.8708C197.805 27.4304 198.452 30.2679 198.395 33.1351V59.4193Z" fill="white"/>
<path d="M247.008 1.41727H230.1V91.1373H247.008V1.41727Z" fill="white"/>
<path d="M237.808 40.0474H266.494C268.369 40.0839 270.219 39.603 271.839 38.6574C273.403 37.7279 274.666 36.368 275.478 34.74C276.363 32.9373 276.796 30.947 276.742 28.9398C276.785 26.9053 276.352 24.8888 275.478 23.0511C274.698 21.4119 273.455 20.037 271.902 19.0959C270.261 18.1457 268.39 17.6649 266.494 17.7058H237.808V1.41724H266.064C271.2 1.31233 276.282 2.48932 280.849 4.84177C285.01 7.03646 288.447 10.3897 290.743 14.4961C293.16 18.92 294.376 23.8999 294.269 28.9398C294.379 33.968 293.163 38.9366 290.743 43.3455C288.448 47.4366 285.009 50.7697 280.849 52.9367C276.277 55.2749 271.197 56.4429 266.064 56.336H237.808V40.0474Z" fill="white"/>
<path d="M364.604 16.2022C361.986 11.2956 357.988 7.26299 353.105 4.60177C347.778 1.90181 341.891 0.494812 335.919 0.494812C329.947 0.494812 324.06 1.90181 318.733 4.60177C313.846 7.26222 309.844 11.2948 307.221 16.2022C304.42 21.5531 303.02 27.5265 303.152 33.5649V58.9898C303.027 65.0154 304.426 70.975 307.221 76.3146C309.844 81.222 313.846 85.2545 318.733 87.915C324.06 90.615 329.947 92.022 335.919 92.022C341.891 92.022 347.778 90.615 353.105 87.915C357.988 85.2538 361.986 81.2211 364.604 76.3146C367.41 70.9648 368.814 64.9913 368.686 58.9519V33.5649C368.814 27.5254 367.41 21.5519 364.604 16.2022V16.2022ZM351.159 59.4194C351.218 62.2869 350.572 65.125 349.276 67.6838C348.084 70.0115 346.228 71.9333 343.943 73.206C341.462 74.485 338.711 75.1523 335.919 75.1523C333.127 75.1523 330.376 74.485 327.895 73.206C325.61 71.9333 323.754 70.0115 322.562 67.6838C321.26 65.1272 320.614 62.2876 320.679 59.4194V33.1353C320.616 30.2674 321.263 27.4284 322.562 24.8709C323.754 22.5432 325.61 20.6214 327.895 19.3487C330.376 18.0697 333.127 17.4024 335.919 17.4024C338.711 17.4024 341.462 18.0697 343.943 19.3487C346.228 20.6214 348.084 22.5432 349.276 24.8709C350.569 27.4305 351.216 30.268 351.159 33.1353V59.4194Z" fill="white"/>
<path d="M397.219 90.7708C393.244 89.9433 389.374 88.6717 385.682 86.9798C382.217 85.4022 378.971 83.3802 376.028 80.9648L383.863 67.0645C387.422 69.9589 391.477 72.1851 395.829 73.6355C400.304 75.1661 405.001 75.9475 409.73 75.948C415.239 75.948 419.515 75.0129 422.556 73.1427C423.97 72.3634 425.144 71.2119 425.95 69.813C426.757 68.4141 427.165 66.8212 427.13 65.2069V65.1437C427.183 64.1105 427.03 63.0772 426.681 62.1033C426.331 61.1295 425.793 60.2345 425.096 59.4699C423.62 58.0041 421.793 56.9424 419.788 56.3866C417.033 55.6074 414.231 55.008 411.398 54.5922C411.287 54.5555 411.173 54.5342 411.057 54.529C410.943 54.5456 410.828 54.5456 410.715 54.529L409.426 54.2383C404.354 53.5143 399.358 52.3257 394.503 50.6874C390.475 49.2399 386.96 46.6434 384.393 43.2192C381.638 39.6641 380.261 34.6095 380.261 28.0553C380.1 22.8103 381.451 17.6298 384.153 13.1314C386.888 8.90336 390.859 5.62058 395.526 3.72977C401.185 1.44042 407.254 0.33929 413.356 0.494795C416.668 0.504606 419.969 0.877508 423.2 1.60682C426.579 2.35097 429.876 3.42606 433.044 4.81652C436.236 6.2132 439.291 7.90545 442.168 9.87117L435.016 24.1885C431.672 21.8607 428.029 19.9947 424.186 18.641C420.715 17.3698 417.053 16.6989 413.356 16.657C408.175 16.657 404.157 17.5163 401.326 19.1844C400.022 19.8727 398.933 20.9089 398.182 22.178C397.43 23.4472 397.044 24.8997 397.068 26.3746V26.3746C396.995 27.5137 397.157 28.6557 397.544 29.7295C397.931 30.8034 398.534 31.7863 399.317 32.6171C400.85 34.1247 402.722 35.2427 404.776 35.8773C407.801 36.7815 410.872 37.5239 413.976 38.1014L414.468 38.1898L414.961 38.2783C415.2 38.3154 415.436 38.366 415.669 38.4299L416.377 38.5942C421.241 39.4637 426.008 40.8141 430.605 42.6253C434.434 44.239 437.734 46.8916 440.133 50.2831C442.661 53.796 443.924 58.598 443.924 64.6888V64.8152C444.073 70.0002 442.674 75.1119 439.906 79.4989C437.049 83.7211 432.971 86.9704 428.217 88.8121C422.332 91.0944 416.052 92.1854 409.742 92.0218C405.536 92.038 401.339 91.6187 397.219 90.7708Z" fill="white"/>
<path d="M471.915 1.41727H454.388V91.1373H471.915V1.41727Z" fill="white"/>
<path d="M546.269 1.41727H480.495V17.7059H546.269V1.41727Z" fill="white"/>
<path d="M521.829 8.75919H504.921V91.1373H521.829V8.75919Z" fill="white"/>
<path d="M610.753 16.2022C608.13 11.2948 604.128 7.26222 599.241 4.60177C593.915 1.90181 588.027 0.494812 582.055 0.494812C576.084 0.494812 570.196 1.90181 564.87 4.60177C559.983 7.2594 555.985 11.293 553.37 16.2022C550.565 21.5519 549.16 27.5254 549.289 33.5649V58.9898C549.167 65.0165 550.571 70.9761 553.37 76.3146C555.985 81.2238 559.983 85.2574 564.87 87.915C570.196 90.615 576.084 92.022 582.055 92.022C588.027 92.022 593.915 90.615 599.241 87.915C604.128 85.2545 608.13 81.222 610.753 76.3146C613.549 70.9616 614.948 64.9896 614.822 58.9519V33.5649C614.948 27.5272 613.549 21.5552 610.753 16.2022V16.2022ZM597.295 59.4194C597.361 62.2876 596.714 65.1272 595.412 67.6838C594.234 70.0044 592.396 71.9254 590.13 73.206C587.649 74.485 584.898 75.1523 582.106 75.1523C579.314 75.1523 576.563 74.485 574.082 73.206C571.759 71.9493 569.867 70.0259 568.648 67.6838C567.352 65.125 566.706 62.2869 566.765 59.4194V33.1353C566.708 30.268 567.355 27.4305 568.648 24.8709C569.84 22.5432 571.696 20.6214 573.981 19.3487C576.462 18.0697 579.213 17.4024 582.005 17.4024C584.796 17.4024 587.548 18.0697 590.029 19.3487C592.314 20.6214 594.17 22.5432 595.362 24.8709C596.661 27.4284 597.308 30.2674 597.245 33.1353L597.295 59.4194Z" fill="white"/>
</g>
<defs>
<filter id="filter0_i" x="0" y="0.480347" width="618.83" height="95.5575" filterUnits="userSpaceOnUse" color-interpolation-filters="sRGB">
<feFlood flood-opacity="0" result="BackgroundImageFix"/>
<feBlend mode="normal" in="SourceGraphic" in2="BackgroundImageFix" result="shape"/>
<feColorMatrix in="SourceAlpha" type="matrix" values="0 0 0 0 0 0 0 0 0 0 0 0 0 0 0 0 0 0 127 0" result="hardAlpha"/>
<feOffset dx="4" dy="4"/>
<feGaussianBlur stdDeviation="5"/>
<feComposite in2="hardAlpha" operator="arithmetic" k2="-1" k3="1"/>
<feColorMatrix type="matrix" values="0 0 0 0 0 0 0 0 0 0 0 0 0 0 0 0 0 0 0.05 0"/>
<feBlend mode="normal" in2="shape" result="effect1_innerShadow"/>
</filter>
</defs>
</svg>
