<svg width="707" height="119" viewBox="0 0 707 119" fill="none" xmlns="http://www.w3.org/2000/svg">
<g filter="url(#filter0_i)">
<path d="M51.4167 78.8778C55.0675 76.7264 58.0102 73.5553 59.8833 69.7542C61.9526 65.4988 62.9792 60.812 62.8782 56.0813C62.9806 51.3505 61.954 46.6634 59.8833 42.4085C58.013 38.6104 55.0806 35.4366 51.442 33.2722C47.6021 31.0668 43.2325 29.9526 38.8054 30.0499H0.693359V117.129H17.121V82.138H27.066L46.6654 117.129H66.5301L45.7303 81.2535C47.7255 80.7255 49.6389 79.9261 51.4167 78.8778ZM17.121 45.8457H37.5038C39.0914 45.8123 40.6531 46.2522 41.9898 47.1093C43.2898 48.001 44.3071 49.2464 44.9215 50.6981C45.6433 52.3992 45.9965 54.2339 45.9577 56.0813C45.9782 57.9272 45.6258 59.7582 44.9215 61.4645C44.2981 62.9219 43.2669 64.1682 41.9519 65.0533C40.6376 65.9083 39.0967 66.3486 37.5291 66.317H17.121V45.8457Z" fill="white"/>
<path d="M84.0699 30.1005H78.1433V117.129H84.0699H94.5456H136.436V101.333H94.5456V81.8221H129.852V66.0137H94.5456V45.9089H136.436V30.1005H94.5456H84.0699Z" fill="white"/>
<path d="M173.815 30.1005L140.568 117.129H158.259L163.15 103.229H195.032L199.922 117.129H217.614L184.266 30.1005H173.815ZM168.609 87.3823L179.021 57.6988L189.421 87.3823H168.609Z" fill="white"/>
<path d="M242.255 30.1005H225.865V117.129H233.169H242.255H284.158V101.333H242.255V30.1005Z" fill="white"/>
<path d="M309.469 30.1005H292.473V117.129H309.469V30.1005Z" fill="white"/>
<path d="M376.696 44.8348V30.1005H322.459V45.9089H357.185L321.385 102.407V117.129H377.884V101.333H340.896L376.696 44.8348Z" fill="white"/>
<path d="M414.1 30.1005L380.828 117.129H398.519L403.41 103.229H435.292L440.17 117.129H457.861L424.513 30.1005H414.1ZM408.856 87.3823L419.256 57.6988L429.656 87.3823H408.856Z" fill="white"/>
<path d="M478.231 52.998C479.269 50.6949 480.995 48.7701 483.172 47.4885C485.569 46.1739 488.274 45.5239 491.007 45.6056C493.239 45.5751 495.44 46.1329 497.388 47.2231C499.352 48.3667 501.012 49.966 502.228 51.886C503.655 54.1424 504.661 56.6383 505.198 59.2532H522.194C521.342 53.4915 519.358 47.9555 516.356 42.9646C513.749 38.6745 510.068 35.138 505.678 32.7036C501.162 30.3043 496.107 29.0994 490.994 29.2033C485.101 29.0243 479.257 30.3278 473.998 32.9943C469.327 35.4984 465.551 39.3936 463.194 44.1398C460.579 49.6169 459.305 55.6378 459.478 61.7047V85.5879C459.305 91.6547 460.579 97.6756 463.194 103.153C465.54 107.876 469.304 111.746 473.96 114.222C479.221 116.882 485.064 118.185 490.956 118.013C496.055 118.104 501.092 116.891 505.589 114.488C509.981 112.055 513.662 108.518 516.267 104.227C519.27 99.2441 521.275 93.7246 522.169 87.9762H505.198C504.725 90.6075 503.765 93.1275 502.367 95.4065C501.164 97.3307 499.501 98.9247 497.527 100.044C495.521 101.123 493.271 101.667 490.994 101.624C488.261 101.705 485.557 101.055 483.159 99.7409C480.987 98.4711 479.261 96.5597 478.219 94.2692C477.014 91.5376 476.431 88.5723 476.513 85.5879V61.7047C476.437 58.7112 477.023 55.738 478.231 52.998V52.998Z" fill="white"/>
<path d="M549.312 30.1005H532.316V117.129H549.312V30.1005Z" fill="white"/>
<path d="M614.782 11.196L603.902 0L587.374 14.6585L597.129 24.7172L614.782 11.196Z" fill="white"/>
<path d="M611.471 33.1838C606.303 30.5667 600.591 29.203 594.797 29.203C589.004 29.203 583.292 30.5667 578.123 33.1838C573.39 35.7745 569.513 39.6866 566.965 44.443C564.253 49.6361 562.897 55.4303 563.023 61.2876V85.929C562.897 91.7904 564.253 97.5886 566.965 102.786C569.515 107.538 573.392 111.446 578.123 114.033C583.292 116.65 589.004 118.014 594.797 118.014C600.591 118.014 606.303 116.65 611.471 114.033C616.203 111.446 620.08 107.538 622.63 102.786C625.342 97.5886 626.698 91.7904 626.572 85.929V61.2876C626.698 55.4303 625.342 49.6361 622.63 44.443C620.082 39.6866 616.205 35.7745 611.471 33.1838V33.1838ZM609.576 86.3586C609.636 89.1421 609.011 91.8976 607.756 94.3829C606.597 96.6419 604.794 98.5064 602.575 99.7408C600.169 100.978 597.503 101.623 594.797 101.623C592.092 101.623 589.426 100.978 587.02 99.7408C584.801 98.5064 582.998 96.6419 581.839 94.3829C580.584 91.8976 579.959 89.1421 580.019 86.3586V60.8706C579.961 58.0873 580.585 55.3322 581.839 52.8463C583.002 50.59 584.804 48.7264 587.02 47.4884C589.426 46.2513 592.092 45.6059 594.797 45.6059C597.503 45.6059 600.169 46.2513 602.575 47.4884C604.791 48.7264 606.593 50.59 607.756 52.8463C609.009 55.3322 609.634 58.0873 609.576 60.8706V86.3586Z" fill="white"/>
<path d="M691.285 30.1005V93.8269L660.338 30.1005H640.283V117.066H655.965V54.3375L686.786 117.066H706.954V30.1005H691.285Z" fill="white"/>
</g>
<defs>
<filter id="filter0_i" x="0.693359" y="0" width="710.261" height="122.028" filterUnits="userSpaceOnUse" color-interpolation-filters="sRGB">
<feFlood flood-opacity="0" result="BackgroundImageFix"/>
<feBlend mode="normal" in="SourceGraphic" in2="BackgroundImageFix" result="shape"/>
<feColorMatrix in="SourceAlpha" type="matrix" values="0 0 0 0 0 0 0 0 0 0 0 0 0 0 0 0 0 0 127 0" result="hardAlpha"/>
<feOffset dx="4" dy="4"/>
<feGaussianBlur stdDeviation="5"/>
<feComposite in2="hardAlpha" operator="arithmetic" k2="-1" k3="1"/>
<feColorMatrix type="matrix" values="0 0 0 0 0 0 0 0 0 0 0 0 0 0 0 0 0 0 0.05 0"/>
<feBlend mode="normal" in2="shape" result="effect1_innerShadow"/>
</filter>
</defs>
</svg>
