<svg width="443" height="116" viewBox="0 0 443 116" fill="none" xmlns="http://www.w3.org/2000/svg">
<g filter="url(#filter0_i)">
<path d="M53.6281 67.4087C49.1807 65.6517 44.5715 64.3354 39.8669 63.4787C39.6322 63.4429 39.4001 63.3922 39.1719 63.327L38.4895 63.188C38.3319 63.1435 38.1715 63.1098 38.0093 63.0869C37.8462 63.0771 37.685 63.0474 37.5291 62.9985C34.5106 62.4534 31.524 61.7447 28.5824 60.8755C26.5747 60.26 24.7482 59.1624 23.2624 57.6785C22.5212 56.8796 21.948 55.94 21.5768 54.9155C21.2056 53.8909 21.044 52.8022 21.1015 51.714C21.0787 50.2831 21.4527 48.8738 22.1821 47.6425C22.9115 46.4112 23.9678 45.4061 25.2337 44.7386C27.9885 43.0537 31.8805 42.2113 36.9099 42.2113C40.504 42.2391 44.0674 42.8758 47.4488 44.0941C51.1634 45.4195 54.6826 47.2386 57.912 49.5026L64.8495 35.6023C62.0637 33.6901 59.1017 32.0483 56.0038 30.6993C52.931 29.3554 49.7361 28.3102 46.4632 27.5781C43.3306 26.8793 40.132 26.5192 36.9225 26.5039C30.98 26.3457 25.0689 27.4169 19.5598 29.6505C15.0582 31.4948 11.2301 34.6746 8.59124 38.7615C5.97343 43.1102 4.65775 48.1186 4.80026 53.1925V53.1925C4.80026 59.5361 6.13553 64.4349 8.80607 67.8889C11.2888 71.1955 14.6776 73.7108 18.5615 75.1296C23.2727 76.7213 28.1203 77.8761 33.0431 78.5794L34.3699 78.7564C34.4755 78.7945 34.5863 78.8158 34.6985 78.8195C34.8075 78.804 34.9181 78.804 35.027 78.8195C37.776 79.2161 40.4949 79.7988 43.165 80.5634C45.1245 81.1158 46.906 82.1699 48.3334 83.6215C49.0106 84.3634 49.5336 85.2326 49.872 86.1784C50.2104 87.1242 50.3575 88.1279 50.3047 89.131V89.1942C50.3419 90.7588 49.9493 92.3036 49.1694 93.6605C48.3896 95.0174 47.2525 96.1344 45.8819 96.8899C42.9249 98.7012 38.7759 99.6068 33.4348 99.6068C28.8315 99.6203 24.2579 98.8687 19.901 97.3827C15.6806 95.9942 11.7463 93.8536 8.28797 91.0644L0.693359 104.535C3.55151 106.874 6.69855 108.836 10.0571 110.373C13.6375 112.02 17.3937 113.254 21.2531 114.05C25.2579 114.899 29.3411 115.323 33.4348 115.314C39.5542 115.468 45.6437 114.412 51.3536 112.205C55.9787 110.42 59.9473 107.263 62.7265 103.158C65.4075 98.9015 66.7622 93.9443 66.6186 88.9162V88.8025C66.6186 82.9054 65.3802 78.2467 62.9034 74.8264C60.5702 71.5313 57.3555 68.9605 53.6281 67.4087V67.4087Z" fill="white"/>
<path d="M122.675 83.356C122.675 88.3433 121.327 92.2143 118.631 94.9691C115.935 97.7239 112.144 99.0971 107.258 99.0886C102.389 99.0886 98.5977 97.7155 95.885 94.9691C93.1724 92.2227 91.8329 88.3517 91.8666 83.356V27.3885H75.439V82.9896C75.2657 89.0347 76.5349 95.0342 79.1415 100.491C81.5074 105.225 85.2998 109.097 89.9837 111.561C95.3055 114.228 101.207 115.531 107.157 115.352C113.119 115.525 119.031 114.223 124.368 111.561C129.066 109.099 132.875 105.228 135.261 100.491C137.904 95.0438 139.204 89.0425 139.052 82.9896V27.3885H122.624L122.675 83.356Z" fill="white"/>
<path d="M159.308 27.3885H153.381V114.417H159.308H169.784H211.674V98.6084H169.784V79.0975H205.09V63.3017H169.784V43.1969H211.674V27.3885H169.784H159.308Z" fill="white"/>
<path d="M247.701 19.7307C247.636 18.6055 248.012 17.499 248.75 16.6474C249.179 16.2738 249.679 15.9897 250.219 15.8118C250.759 15.6338 251.33 15.5656 251.897 15.6112C252.909 15.6139 253.912 15.8068 254.854 16.1798C255.839 16.5589 257.128 17.1402 258.721 17.9363L259.138 18.1511L259.555 18.3533H259.732C260.818 18.9093 261.842 19.3895 262.815 19.7939C263.839 20.1976 264.89 20.527 265.961 20.7795C267.101 21.0395 268.267 21.1709 269.436 21.1713C271.257 21.2636 273.068 20.8584 274.675 19.999C276.283 19.1396 277.626 17.8586 278.56 16.2935C280.565 13.0333 281.572 8.15555 281.58 1.66033V0.219757H269.133V1.48342C269.216 2.71893 268.843 3.94201 268.084 4.92058C267.676 5.33168 267.183 5.6487 266.64 5.8495C266.096 6.0503 265.515 6.13004 264.938 6.08315C264.201 6.06693 263.473 5.91707 262.79 5.64087C261.993 5.33759 260.856 4.8574 259.378 4.17502C259.175 4.05052 258.964 3.94072 258.746 3.84647L258.127 3.5811L257.937 3.45473C256.104 2.59918 254.227 1.83995 252.314 1.18014C250.748 0.664096 249.11 0.399655 247.461 0.39667C245.641 0.287059 243.825 0.671998 242.205 1.51069C240.585 2.34939 239.223 3.6106 238.262 5.16068C236.232 8.32825 235.212 13.1049 235.204 19.4906V20.9944H247.651L247.701 19.7307Z" fill="white"/>
<path d="M275.173 91.1023L244.239 27.3885H224.185V114.354H239.867V51.6255L270.687 114.354H290.855V27.3885H275.173V91.1023Z" fill="white"/>
<path d="M354.215 30.4718C349.049 27.8549 343.339 26.4912 337.548 26.4912C331.756 26.4912 326.046 27.8549 320.88 30.4718C316.138 33.0558 312.256 36.9693 309.709 41.731C306.997 46.9241 305.641 52.7183 305.767 58.5756V83.2297C305.647 89.0783 307.003 94.8626 309.709 100.049C312.262 104.802 316.144 108.71 320.88 111.296C326.046 113.913 331.756 115.276 337.548 115.276C343.339 115.276 349.049 113.913 354.215 111.296C358.95 108.712 362.828 104.804 365.373 100.049C368.096 94.8546 369.457 89.0548 369.329 83.1918V58.5756C369.457 52.7166 368.096 46.9209 365.373 41.731C362.832 36.9702 358.953 33.0566 354.215 30.4718V30.4718ZM352.332 83.6214C352.393 86.4063 351.763 89.1628 350.5 91.6456C349.342 93.9011 347.544 95.7648 345.332 97.0036C342.924 98.2408 340.255 98.8862 337.548 98.8862C334.84 98.8862 332.172 98.2408 329.763 97.0036C327.547 95.7656 325.745 93.902 324.582 91.6456C323.329 89.1598 322.705 86.4047 322.763 83.6214V58.1586C322.705 55.3754 323.329 52.6202 324.582 50.1344C325.749 47.8807 327.55 46.018 329.763 44.7764C332.172 43.5392 334.84 42.8938 337.548 42.8938C340.255 42.8938 342.924 43.5392 345.332 44.7764C347.541 46.0188 349.338 47.8816 350.5 50.1344C351.763 52.6172 352.393 55.3737 352.332 58.1586V83.6214Z" fill="white"/>
<path d="M438.641 74.7758C436.314 71.4844 433.109 68.914 429.391 67.3581C424.931 65.5979 420.309 64.2816 415.591 63.4281C415.361 63.3923 415.133 63.3417 414.909 63.2765L414.214 63.1375C414.057 63.0905 413.896 63.0567 413.734 63.0364C413.571 63.0242 413.41 62.9946 413.254 62.9479C410.247 62.3955 407.273 61.6783 404.345 60.7997C402.333 60.1842 400.503 59.0867 399.012 57.6026C398.275 56.8015 397.705 55.8613 397.337 54.8371C396.968 53.8129 396.807 52.7253 396.864 51.6381V51.6381C396.841 50.2088 397.214 48.801 397.941 47.5701C398.668 46.3392 399.721 45.3331 400.984 44.6627C403.738 42.9779 407.63 42.1354 412.66 42.1354C416.243 42.1797 419.794 42.8291 423.161 44.0562C426.894 45.3922 430.43 47.2241 433.674 49.5026L440.612 35.6023C437.825 33.6926 434.863 32.0509 431.766 30.6993C428.694 29.3554 425.499 28.3101 422.226 27.578C419.089 26.8799 415.886 26.5198 412.672 26.5039C406.734 26.3441 400.827 27.4155 395.322 29.6504C390.824 31.5003 387 34.6845 384.366 38.7741C381.749 43.1228 380.433 48.1312 380.575 53.2051V53.2051C380.575 59.5487 381.915 64.4475 384.594 67.9015C387.074 71.2107 390.464 73.7266 394.349 75.1423C399.067 76.7482 403.924 77.9158 408.856 78.63L410.12 78.8069C410.226 78.8438 410.336 78.8651 410.448 78.8701C410.557 78.8526 410.668 78.8526 410.777 78.8701C413.544 79.2796 416.28 79.8792 418.965 80.6645C420.9 81.1955 422.667 82.2136 424.096 83.6214C424.773 84.3634 425.296 85.2325 425.635 86.1784C425.973 87.1242 426.12 88.1278 426.067 89.131V89.1942C426.102 90.7583 425.708 92.302 424.928 93.6584C424.149 95.0148 423.013 96.1322 421.644 96.8899C418.687 98.7011 414.534 99.6068 409.185 99.6068C404.584 99.6133 400.014 98.8531 395.664 97.3574C391.441 95.9728 387.506 93.8318 384.05 91.0391L376.469 104.56C379.323 106.905 382.471 108.868 385.832 110.398C389.412 112.047 393.168 113.281 397.028 114.076C401.029 114.924 405.108 115.347 409.197 115.339C415.321 115.495 421.415 114.438 427.129 112.231C431.755 110.448 435.724 107.29 438.502 103.183C441.188 98.929 442.543 93.9702 442.394 88.9414V88.8024C442.36 82.8885 441.109 78.213 438.641 74.7758Z" fill="white"/>
</g>
<defs>
<filter id="filter0_i" x="0.693359" y="0.219757" width="445.711" height="119.148" filterUnits="userSpaceOnUse" color-interpolation-filters="sRGB">
<feFlood flood-opacity="0" result="BackgroundImageFix"/>
<feBlend mode="normal" in="SourceGraphic" in2="BackgroundImageFix" result="shape"/>
<feColorMatrix in="SourceAlpha" type="matrix" values="0 0 0 0 0 0 0 0 0 0 0 0 0 0 0 0 0 0 127 0" result="hardAlpha"/>
<feOffset dx="4" dy="4"/>
<feGaussianBlur stdDeviation="5"/>
<feComposite in2="hardAlpha" operator="arithmetic" k2="-1" k3="1"/>
<feColorMatrix type="matrix" values="0 0 0 0 0 0 0 0 0 0 0 0 0 0 0 0 0 0 0.05 0"/>
<feBlend mode="normal" in2="shape" result="effect1_innerShadow"/>
</filter>
</defs>
</svg>
