<svg width="367" height="123" viewBox="0 0 367 123" fill="none" xmlns="http://www.w3.org/2000/svg">
<g filter="url(#filter0_i)">
<path d="M36.4693 91.4315L17.4006 31.5845H0L29.8603 121.304H43.0656L72.9386 31.5845H55.5379L36.4693 91.4315Z" fill="white"/>
<path d="M97.8074 31.5845H80.2804V121.304H97.8074V31.5845Z" fill="white"/>
<path d="M162.81 72.8302C158.211 71.02 153.445 69.6656 148.581 68.7865C148.343 68.7494 148.107 68.6987 147.874 68.6348C147.641 68.5709 147.405 68.5203 147.166 68.4832C147.004 68.4415 146.839 68.4119 146.673 68.3947C146.507 68.3732 146.342 68.3394 146.18 68.2936C143.076 67.7254 140.005 66.9872 136.981 66.0822C134.911 65.4408 133.028 64.3044 131.497 62.7714C130.729 61.9517 130.137 60.9847 129.754 59.929C129.372 58.8733 129.208 57.751 129.273 56.63V56.63C129.246 55.1546 129.631 53.7009 130.383 52.4312C131.135 51.1616 132.225 50.1259 133.531 49.4398C136.362 47.7339 140.38 46.9125 145.561 46.9125C149.256 46.9559 152.917 47.6224 156.391 48.8838C160.232 50.2473 163.874 52.1171 167.22 54.4439L174.385 40.0382C171.511 38.0678 168.456 36.3753 165.262 34.9835C162.098 33.5938 158.805 32.5188 155.43 31.7738C152.2 31.0445 148.899 30.6716 145.587 30.6618C139.442 30.4888 133.328 31.5903 127.63 33.8968C122.989 35.8042 119.046 39.0903 116.333 43.311C113.648 47.797 112.306 52.9588 112.466 58.1843V58.1843C112.466 64.7301 113.843 69.7848 116.598 73.3483C119.165 76.7725 122.68 79.369 126.707 80.8165C131.563 82.4547 136.558 83.6434 141.631 84.3674L142.996 84.5443C143.109 84.5662 143.225 84.5662 143.337 84.5443C143.45 84.5289 143.565 84.5289 143.678 84.5443C146.506 85.0069 149.3 85.6528 152.044 86.4777C154.048 87.0336 155.876 88.0953 157.351 89.5611C158.06 90.3359 158.605 91.2453 158.954 92.2353C159.304 93.2253 159.451 94.2755 159.386 95.3234V95.3234C159.418 96.9355 159.009 98.5258 158.202 99.9223C157.396 101.319 156.223 102.468 154.811 103.247C151.762 105.134 147.486 106.073 141.985 106.064C137.256 106.064 132.559 105.283 128.085 103.752C123.731 102.297 119.677 100.067 116.118 97.1683L108.283 111.069C111.227 113.484 114.472 115.506 117.938 117.084C121.627 118.781 125.498 120.053 129.475 120.875C133.606 121.736 137.816 122.159 142.036 122.138C148.331 122.32 154.6 121.26 160.485 119.017C165.239 117.175 169.317 113.926 172.174 109.704C174.94 105.316 176.339 100.205 176.192 95.0201V94.8937C176.192 88.8029 174.929 84.001 172.401 80.488C169.989 77.0835 166.664 74.4291 162.81 72.8302V72.8302Z" fill="white"/>
<path d="M204.119 31.5845H186.592V121.304H204.119V31.5845Z" fill="white"/>
<path d="M268.2 34.7688C262.873 32.0689 256.985 30.6619 251.014 30.6619C245.042 30.6619 239.154 32.0689 233.828 34.7688C228.945 37.4249 224.947 41.4534 222.329 46.3566C219.525 51.7115 218.121 57.6886 218.247 63.732V89.1568C218.119 95.1963 219.523 101.17 222.329 106.52C224.938 111.403 228.917 115.417 233.777 118.069C239.104 120.769 244.992 122.176 250.963 122.176C256.935 122.176 262.823 120.769 268.149 118.069C273.036 115.409 277.038 111.376 279.661 106.469C282.457 101.116 283.856 95.144 283.73 89.1063V63.732C283.854 57.6904 282.455 51.7147 279.661 46.3566C277.047 41.4627 273.065 37.4361 268.2 34.7688V34.7688ZM266.254 89.5865C266.317 92.4543 265.67 95.2933 264.371 97.8508C263.182 100.177 261.331 102.098 259.051 103.373C256.569 104.652 253.818 105.319 251.026 105.319C248.235 105.319 245.484 104.652 243.002 103.373C240.713 102.102 238.852 100.18 237.657 97.8508C236.364 95.2912 235.717 92.4537 235.774 89.5865V63.3023C235.715 60.4348 236.361 57.5967 237.657 55.038C238.849 52.7102 240.705 50.7884 242.99 49.5158C245.471 48.2368 248.222 47.5694 251.014 47.5694C253.805 47.5694 256.557 48.2368 259.038 49.5158C261.323 50.7884 263.179 52.7102 264.371 55.038C265.672 57.5945 266.319 60.4342 266.254 63.3023V89.5865Z" fill="white"/>
<path d="M271.624 12.0861L260.39 0.548828L243.369 15.6622L253.415 26.0369L271.624 12.0861Z" fill="white"/>
<path d="M350.477 31.5845V97.2696L318.582 31.5845H297.908V121.241H314.071V56.5671L345.852 121.241H366.652V31.5845H350.477Z" fill="white"/>
</g>
<defs>
<filter id="filter0_i" x="0" y="0.548828" width="370.652" height="125.628" filterUnits="userSpaceOnUse" color-interpolation-filters="sRGB">
<feFlood flood-opacity="0" result="BackgroundImageFix"/>
<feBlend mode="normal" in="SourceGraphic" in2="BackgroundImageFix" result="shape"/>
<feColorMatrix in="SourceAlpha" type="matrix" values="0 0 0 0 0 0 0 0 0 0 0 0 0 0 0 0 0 0 127 0" result="hardAlpha"/>
<feOffset dx="4" dy="4"/>
<feGaussianBlur stdDeviation="5"/>
<feComposite in2="hardAlpha" operator="arithmetic" k2="-1" k3="1"/>
<feColorMatrix type="matrix" values="0 0 0 0 0 0 0 0 0 0 0 0 0 0 0 0 0 0 0.05 0"/>
<feBlend mode="normal" in2="shape" result="effect1_innerShadow"/>
</filter>
</defs>
</svg>
