<svg xmlns="http://www.w3.org/2000/svg" viewBox="0 0 1415.84 1284.1"><defs><style>.cls-1{fill:#2a2d34;}</style></defs><title>3Dmensional Imagotipo Positivo</title><g id="Layer_2" data-name="Layer 2"><g id="Layer_1-2" data-name="Layer 1"><path id="_3Dmensional_Imagotipo_Positivo" data-name="3Dmensional Imagotipo Positivo" class="cls-1" d="M138.23,1141.7h91.61q36.63,0,36.64,35.6v71.2q0,35.6-36.64,35.6H138.23Zm27.48,30.52v81.37h64.13q9.15,0,9.16-5.09v-71.2q0-5.08-9.16-5.08Zm188.62,82.59,50.38-66.73v96h27.48V1141.7H403.88l-49.55,65.61-49.56-65.61h-28.3v142.4H304v-96Zm87.85-113.11v142.4H570.42v-30.51H469.66v-25.43H552.1v-30.52H469.66v-25.42H570.42V1141.7Zm238.26,142.4h28.21V1141.7H681.17v95.92l-72.45-95.92H580.41v142.4h27.48v-96Zm74.84-142.4q-36.63,0-36.64,35.6v15.26q0,35.6,36.64,35.6h55q9.15,0,9.16,5.08v15.26q0,5.09-9.16,5.09h-55q-9.15,0-9.16-5.09v-5.09H718.64v5.09q0,35.6,36.64,35.6h55q36.63,0,36.63-35.6v-15.26q0-35.6-36.63-35.6h-55q-9.15,0-9.16-5.08V1177.3q0-5.08,9.16-5.08h55q9.15,0,9.16,5.08v5.09h27.47v-5.09q0-35.6-36.63-35.6Zm129.08,0H856.87v142.4h27.49Zm46.62,0h55q36.63,0,36.64,35.6v71.2q0,35.6-36.64,35.6H931q-36.63,0-36.64-35.6v-71.2q0-35.6,36.64-35.6m55,30.52H931q-9.15,0-9.16,5.08v71.2q0,5.09,9.16,5.09h55q9.15,0,9.16-5.09v-71.2q0-5.08-9.16-5.08m146.66,111.88h28.21V1141.7h-27.48v95.92l-72.46-95.92h-28.31v142.4h27.49v-96Zm66.23-15.26-6.69,15.26h-30.5l62.75-142.4h21.06l62.75,142.4h-30.5l-6.69-15.26Zm13.47-30.51h45.25l-22.63-51.26Zm124.21,15.26V1141.7H1309v142.4h106.8v-30.51ZM128.24,1197.64H10a10,10,0,0,0-10,10v10.5a10,10,0,0,0,10,10H128.24Zm0,55.94H10a10,10,0,0,0-10,10v10.49a10,10,0,0,0,10,10H128.24Zm0-111.88H10a10,10,0,0,0-10,10v10.5a10,10,0,0,0,10,10H128.24ZM974.55,721.93l-259.82,150V746.08L977.27,594.5a16.35,16.35,0,0,1,24.53,14.16v66.07A54.51,54.51,0,0,1,974.55,721.93Zm201-447.55L714.73,540.46V666.31l331.62-191.46A16.36,16.36,0,0,1,1070.88,489V714.62a54.49,54.49,0,0,1-27.25,47.19L714.73,951.7v120.92a54,54,0,0,0,20.19-6.73l.25-.13,417.45-241,.1-.06a54.52,54.52,0,0,0,27.15-47.14v-482A54.44,54.44,0,0,0,1175.6,274.38Zm-935.36,0A54.44,54.44,0,0,0,236,295.51v70.8a54.49,54.49,0,0,0,27.25,47.19L701.11,666.31V540.46ZM236,505.85v66.07a54.51,54.51,0,0,0,27.25,47.2L701.11,871.93V746.08L260.5,491.69A16.36,16.36,0,0,0,236,505.85Zm0,205.62v66.07a54.51,54.51,0,0,0,27.16,47.15l.09,0,417.45,241,.26.14a54.1,54.1,0,0,0,20.18,6.72V951.7L260.5,697.31A16.35,16.35,0,0,0,236,711.47Zm916.65-463.15L735.17,7.3a54.53,54.53,0,0,0-54.5,0l-417.45,241a54.54,54.54,0,0,0-16.17,14.26L707.92,528.66l460.87-266.08A54.54,54.54,0,0,0,1152.62,248.32Z"/></g></g></svg>