<svg xmlns="http://www.w3.org/2000/svg" viewBox="0 0 5681.32 1693.38"><defs><style>.cls-1{fill:#2a2d34;}</style></defs><g id="Layer_2" data-name="Layer 2"><g id="Layer_1-2" data-name="Layer 1"><path id="Design_Positivo" data-name="Design Positivo" class="cls-1" d="M980.11,1228.24v99.67H614.65V1411h299v99.67h-299v83.06H980.11v99.68H515V1228.24Zm382.08,0q132.88,0,132.9,116.28v16.61h-99.68v-16.61q0-16.61-33.22-16.61H1162.84q-33.22,0-33.22,16.61v49.84q0,16.62,33.22,16.61h199.35q132.88,0,132.9,116.28v49.84q0,116.29-132.9,116.29H1162.84q-132.88,0-132.89-116.29v-16.61h99.67v16.61q0,16.62,33.22,16.61h199.35q33.21,0,33.22-16.61v-49.84q0-16.61-33.22-16.61H1162.84q-132.88,0-132.89-116.28v-49.84q0-116.28,132.89-116.28Zm282.4,0v465.14h-99.67V1228.24Zm382.08,0q132.9,0,132.9,116.28v16.61H2059.9v-16.61q0-16.61-33.23-16.61H1827.33q-33.22,0-33.23,16.61v232.57q0,16.62,33.23,16.61h199.34q33.23,0,33.23-16.61v-66.45H1877.16V1411h282.41v166.12q0,116.29-132.9,116.29H1827.33q-132.9,0-132.9-116.29V1344.52q0-116.28,132.9-116.28Zm282.41,151.5v313.64H2209.4V1228.24h102.67l262.8,313.3v-313.3h99.67v465.14H2572.21ZM457.84,1228.24H0v109H323.45a32.7,32.7,0,0,1,32.7,32.7v181.76a32.7,32.7,0,0,1-32.7,32.69H0v101.7a54.22,54.22,0,0,0,27.25,7.29H410.64a54.5,54.5,0,0,0,54.5-54.49V1255.49A54.23,54.23,0,0,0,457.84,1228.24ZM254.37,1406.31H0v109H254.37a32.7,32.7,0,0,0,32.7-32.69V1439A32.7,32.7,0,0,0,254.37,1406.31Z"/><path id="Development_Positivo" data-name="Development Positivo" class="cls-1" d="M980.11,617.09v99.67H614.65v83.06h299v99.67h-299v83.06H980.11v99.67H515V617.09Zm16.61,0h110.64L1262.52,934l155.15-316.95h110.64l-227.59,465.13h-76.41Zm1013.34,0v99.67H1644.59v83.06h299v99.67h-299v83.06h365.47v99.67H1544.92V617.09Zm49.84,0h99.67V982.55H2525v99.67H2059.9Zm614.64,0h199.34q132.9,0,132.9,116.28V965.94q0,116.3-132.9,116.28H2674.54q-132.9,0-132.9-116.28V733.37Q2541.64,617.09,2674.54,617.09Zm199.34,99.67H2674.54q-33.23,0-33.22,16.61V965.94q0,16.62,33.22,16.61h199.34q33.23,0,33.23-16.61V733.37Q2907.11,716.76,2873.88,716.76Zm182.74-99.67h332.24q132.88,0,132.9,116.28v49.84q0,116.28-132.9,116.28H3156.29v182.73h-99.67Zm99.67,99.67v83.06h232.57q33.21,0,33.22-16.61V733.37q0-16.61-33.22-16.61Zm515,51.83v313.63h-99.67V617.09h102.66L3854,831.38l179.74-214.29H4136.4v465.13h-99.67V768.59L3854,986.54Zm980.11-151.5v99.67H4285.91v83.06h299v99.67h-299v83.06h365.46v99.67H4186.24V617.09Zm149.51,151.5v313.63h-99.67V617.09h102.66l262.81,313.3V617.09h99.67v465.13H5064Zm697.71-51.83v365.46h-99.67V716.76H5216.18V617.09h465.14v99.67Zm-5033.45,311V644.33a54.19,54.19,0,0,0-7.3-27.24H0v457.84a54.22,54.22,0,0,0,27.25,7.29H410.64A54.49,54.49,0,0,0,465.14,1027.73Z"/><path id="Marketing_Positivo" data-name="Marketing Positivo" class="cls-1" d="M649.86,415.3l-24.25,49.84H515L742.56,0H819l227.59,465.14H935.92L911.67,415.3Zm48.84-99.67H862.83L780.77,148.18Zm464.14-216V465.14h-99.67V0h332.24q132.9,0,132.9,116.29v49.83q0,101.67-127.25,114.62l154.83,184.4H1426L1189.09,182.73h206.32q33.22,0,33.23-16.61V116.29q0-16.62-33.23-16.62Zm515,182.74V465.14h-99.67V0h99.67V182.73h110L1941,0h129.91l-195,232.57,195,232.57H1941L1787.79,282.41ZM2558.26,0V99.67H2192.79v83.06h299v99.68h-299v83.06h365.47v99.67H2093.12V0Zm299,99.67V465.14H2757.6V99.67H2574.87V0H3040V99.67ZM3189.51,0V465.14h-99.67V0ZM3339,151.5V465.14h-99.67V0H3342l262.81,313.3V0h99.67V465.14H3602.16ZM4086.56,0q132.9,0,132.9,116.29V132.9h-99.67V116.29q0-16.62-33.23-16.62H3887.22q-33.22,0-33.22,16.62V348.85q0,16.62,33.22,16.62h199.34q33.22,0,33.23-16.62V282.41H3937.06V182.73h282.4V348.85q0,116.29-132.9,116.29H3887.22q-132.9,0-132.9-116.29V116.29Q3754.32,0,3887.22,0ZM254.37,0h-43.6a32.69,32.69,0,0,0-32.69,32.7V465.14h109V32.7A32.7,32.7,0,0,0,254.37,0ZM410.65,0h-21.8a32.7,32.7,0,0,0-32.7,32.7V465.14h101.7a54.22,54.22,0,0,0,7.29-27.25V54.5A54.5,54.5,0,0,0,410.65,0ZM76.3,0h-49A54.22,54.22,0,0,0,0,7.29V465.14H109V32.7A32.7,32.7,0,0,0,76.3,0Z"/></g></g></svg>