<svg xmlns="http://www.w3.org/2000/svg" viewBox="0 0 298.28 52.5"><defs><style>.cls-1{fill:#2a2d34;}.cls-2{fill:#606166;}</style></defs><g id="Capa_2" data-name="Capa 2"><g id="MESA_2" data-name="MESA 2"><path id="_3Dmensional_Logotipo_Positivo" data-name="3Dmensional Logotipo Positivo" class="cls-1" d="M29.12,0h19.3q7.72,0,7.72,7.5v15q0,7.5-7.72,7.5H29.12Zm5.79,6.43V23.57H48.42c1.29,0,1.93-.36,1.93-1.07V7.5c0-.71-.64-1.07-1.93-1.07Zm39.74,17.4L85.26,9.77V30h5.79V0h-6L74.65,13.82,64.21,0h-6V30H64V9.77ZM93.16,0V30h27V23.57H99V18.21h17.36V11.79H99V6.43h21.22V0Zm50.19,30h6V0h-5.79V20.21L128.24,0h-6V30h5.79V9.77ZM159.12,0q-7.73,0-7.72,7.5v3.21q0,7.5,7.72,7.5H170.7c1.29,0,1.93.36,1.93,1.08V22.5c0,.71-.64,1.07-1.93,1.07H159.12c-1.29,0-1.93-.36-1.93-1.07V21.43H151.4V22.5q0,7.5,7.72,7.5H170.7q7.71,0,7.72-7.5V19.29q0-7.5-7.72-7.5H159.12c-1.29,0-1.93-.36-1.93-1.08V7.5c0-.71.64-1.07,1.93-1.07H170.7c1.29,0,1.93.36,1.93,1.07V8.57h5.79V7.5q0-7.5-7.72-7.5Zm27.19,0h-5.79V30h5.79Zm9.83,0h11.58q7.71,0,7.71,7.5v15q0,7.5-7.71,7.5H196.14q-7.72,0-7.72-7.5V7.5q0-7.5,7.72-7.5m11.58,6.43H196.14c-1.29,0-1.93.36-1.93,1.07v15c0,.71.64,1.07,1.93,1.07h11.58c1.28,0,1.92-.36,1.92-1.07V7.5c0-.71-.64-1.07-1.92-1.07M238.61,30h5.95V0h-5.79V20.21L223.5,0h-6V30h5.79V9.77Zm14-3.21L251.16,30h-6.43L258,0h4.44l13.22,30h-6.43l-1.41-3.21Zm2.83-6.43h9.54l-4.77-10.8Zm26.17,3.21V0h-5.79V30h22.5V23.57ZM27,11.79H2.11A2.1,2.1,0,0,0,0,13.89v2.22a2.1,2.1,0,0,0,2.11,2.1H27Zm0,11.78H2.11A2.11,2.11,0,0,0,0,25.68v2.21A2.1,2.1,0,0,0,2.11,30H27ZM27,0H2.11A2.1,2.1,0,0,0,0,2.11V4.32A2.11,2.11,0,0,0,2.11,6.43H27Z"/><path class="cls-2" d="M79.37,37.65h1.8l5.63,14.7H84.15l-3.88-11-3.88,11H73.74Zm-3,9.59h7.89v2.32H76.39Z"/><path class="cls-2" d="M113.77,44.28V47a6.13,6.13,0,0,1-.66,2.89,4.79,4.79,0,0,1-1.88,1.93,5.7,5.7,0,0,1-2.81.68,6,6,0,0,1-2.84-.64,4.57,4.57,0,0,1-1.9-1.82,5.33,5.33,0,0,1-.68-2.72V43a6,6,0,0,1,.67-2.88,4.72,4.72,0,0,1,1.88-1.93,5.65,5.65,0,0,1,2.81-.68,5.47,5.47,0,0,1,2.42.54,5.11,5.11,0,0,1,1.86,1.53,5.78,5.78,0,0,1,1,2.3H111a2.53,2.53,0,0,0-.58-1,2.58,2.58,0,0,0-.93-.67,2.94,2.94,0,0,0-1.12-.22,2.83,2.83,0,0,0-1.48.37,2.53,2.53,0,0,0-1,1.08,3.52,3.52,0,0,0-.35,1.6v4.33a2.8,2.8,0,0,0,.36,1.44,2.37,2.37,0,0,0,1,1,3.29,3.29,0,0,0,1.51.33,3.05,3.05,0,0,0,1.48-.35,2.4,2.4,0,0,0,1-1.05,3.52,3.52,0,0,0,.34-1.62V46.6h-2.66V44.28Z"/><path class="cls-2" d="M131.42,37.65h2.47v14.7h-2.47Zm1,0h8.82V40h-8.82Zm0,6.25h7.69v2.3h-7.69Zm0,6.13h8.82v2.32h-8.82Z"/><path class="cls-2" d="M158.5,37.65h2.68L167.64,49l-.25.27V37.65h2.39V52.34h-2.7L160.64,41.2l.25-.26v11.4H158.5Z"/><path class="cls-2" d="M191.12,52.5l-1.2-.66a4.44,4.44,0,0,1-1.84-1.9,6.2,6.2,0,0,1-.65-2.92V43a6.2,6.2,0,0,1,.65-2.92,4.5,4.5,0,0,1,1.84-1.9,5.7,5.7,0,0,1,2.83-.67,5.24,5.24,0,0,1,2.45.57A4.77,4.77,0,0,1,197,39.7a6.6,6.6,0,0,1,1,2.52h-2.54A3.65,3.65,0,0,0,194.9,41a2.92,2.92,0,0,0-1-.81,2.58,2.58,0,0,0-1.2-.28,2.83,2.83,0,0,0-1.48.37,2.65,2.65,0,0,0-1,1.08A3.71,3.71,0,0,0,190,43v4a3.68,3.68,0,0,0,.34,1.65,2.56,2.56,0,0,0,1,1.07,2.83,2.83,0,0,0,1.48.37,2.72,2.72,0,0,0,1.21-.27,2.77,2.77,0,0,0,.95-.8,3.32,3.32,0,0,0,.58-1.26H198a6.77,6.77,0,0,1-1,2.52,4.84,4.84,0,0,1-1.83,1.63,5.19,5.19,0,0,1-2.44.57Z"/><path class="cls-2" d="M220.05,46.53v5.82h-2.46V46.53l-4.5-8.88h2.66l3.07,6.48,3.07-6.48h2.65Z"/></g></g></svg>