<svg xmlns="http://www.w3.org/2000/svg" viewBox="0 0 943.89 1072.62"><defs><style>.cls-1{fill:#2a2d34;}</style></defs><title>3Dmensional Isotipo Positivo</title><g id="Layer_2" data-name="Layer 2"><g id="Layer_1-2" data-name="Layer 1"><path id="_3Dmensional_Isotipo_Positivo" data-name="3Dmensional Isotipo Positivo" class="cls-1" d="M738.58,721.93l-259.82,150V746.08L741.3,594.5a16.35,16.35,0,0,1,24.52,14.16v66.07A54.5,54.5,0,0,1,738.58,721.93Zm201-447.55L478.76,540.46V666.31L810.38,474.85A16.35,16.35,0,0,1,834.9,489V714.62a54.48,54.48,0,0,1-27.24,47.19L478.76,951.7v120.92a54,54,0,0,0,20.19-6.73l.24-.13,417.46-241,.09-.06a54.45,54.45,0,0,0,27.15-47.14v-482A54.43,54.43,0,0,0,939.63,274.38Zm-935.36,0A54.26,54.26,0,0,0,0,295.51v70.8A54.49,54.49,0,0,0,27.25,413.5L465.13,666.31V540.46ZM0,505.85v66.07a54.51,54.51,0,0,0,27.25,47.2L465.13,871.93V746.08L24.52,491.69A16.35,16.35,0,0,0,0,505.85ZM0,711.47v66.07a54.51,54.51,0,0,0,27.16,47.15l.09,0,417.45,241,.25.14a54.16,54.16,0,0,0,20.18,6.72V951.7L24.52,697.31A16.35,16.35,0,0,0,0,711.47ZM916.65,248.32,499.19,7.3a54.51,54.51,0,0,0-54.49,0l-417.45,241a54.54,54.54,0,0,0-16.17,14.26L472,528.66,932.82,262.58A54.54,54.54,0,0,0,916.65,248.32Z"/></g></g></svg>