<svg xmlns="http://www.w3.org/2000/svg" viewBox="0 0 60.1 60.1"><defs><style>.cls-1{fill:#ee4b7a;}</style></defs><title>instagram</title><g id="Capa_2" data-name="Capa 2"><g id="Capa_1-2" data-name="Capa 1"><g id="Group_321" data-name="Group 321"><g id="Group_320" data-name="Group 320"><path id="Path_928" data-name="Path 928" class="cls-1" d="M42.2,0H17.9A17.88,17.88,0,0,0,0,17.9V42.2A17.88,17.88,0,0,0,17.9,60.1H42.2A17.88,17.88,0,0,0,60.1,42.2V17.9A17.88,17.88,0,0,0,42.2,0ZM54.1,42.1A11.82,11.82,0,0,1,42.3,53.9H18A11.82,11.82,0,0,1,6.2,42.1V17.8A11.82,11.82,0,0,1,18,6H42.3A11.82,11.82,0,0,1,54.1,17.8Z"/><path id="Path_929" data-name="Path 929" class="cls-1" d="M30.1,14.5A15.5,15.5,0,1,0,45.6,30h0A15.45,15.45,0,0,0,30.1,14.5Zm0,25A9.5,9.5,0,1,1,39.6,30h0A9.56,9.56,0,0,1,30.1,39.5Z"/><circle id="Ellipse_33" data-name="Ellipse 33" class="cls-1" cx="45.7" cy="14.6" r="3.7"/></g></g></g></g></svg>