<?xml version="1.0" encoding="utf-8"?>
<!-- Generator: Adobe Illustrator 22.0.0, SVG Export Plug-In . SVG Version: 6.00 Build 0)  -->
<svg version="1.1" id="Capa_1" xmlns="http://www.w3.org/2000/svg" xmlns:xlink="http://www.w3.org/1999/xlink" x="0px" y="0px"
	 viewBox="0 0 189.4 215.3" style="enable-background:new 0 0 189.4 215.3;" xml:space="preserve">
<style type="text/css">
	.st0{fill:none;}
	.st1{fill:#EAEAEA;}
</style>
<g id="logo-c">
	<g id="right">
		<polygon class="st0" points="189.4,51.4 189.4,162.4 187.3,163.7 97.9,215.3 94.7,215.3 94.7,106.1 187.2,52.7 		"/>
		<g class="paths">
			<path id="Path_792" class="st1" d="M148.2,144.9L96.1,175v-25.3l52.7-30.4c1.6-0.9,3.6-0.4,4.5,1.2c0.3,0.5,0.4,1.1,0.4,1.6v13.3
				C153.7,139.3,151.6,142.9,148.2,144.9z"/>
			<path id="Path_793" class="st1" d="M188.6,55.1l-92.5,53.4v25.3l66.5-38.4c1.6-0.9,3.6-0.4,4.5,1.2c0.3,0.5,0.4,1.1,0.4,1.6v45.3
				c0,3.9-2.1,7.5-5.5,9.5l-66,38.1v24.3c1.4-0.2,2.8-0.6,4-1.4h0.1l83.9-48.4l0,0c3.4-2,5.4-5.6,5.4-9.5V59.3
				C189.4,57.8,189.1,56.4,188.6,55.1z"/>
		</g>
	</g>
	<g id="left">
		<polygon class="st0" points="0,51.4 0,162.4 2.2,163.7 91.5,215.3 94.7,215.3 94.7,106.1 2.2,52.7 		"/>
		<g class="paths">
			<path id="Path_794" class="st1" d="M0.9,55.1C0.3,56.4,0,57.8,0,59.3v14.2C0,77.4,2.1,81,5.5,83l87.9,50.7v-25.3L0.9,55.1z"/>
			<path id="Path_795" class="st1" d="M0,101.5v13.3c0,3.9,2.1,7.5,5.5,9.5L93.3,175v-25.3l-88.4-51c-1.6-0.9-3.6-0.4-4.5,1.2
				C0.2,100.4,0,101,0,101.5z"/>
			<path id="Path_796" class="st1" d="M0,142.8V156c0,3.9,2.1,7.5,5.4,9.5l0,0l83.8,48.4h0.1c1.2,0.7,2.6,1.2,4,1.4V191L4.9,139.9
				c-1.6-0.9-3.6-0.4-4.5,1.2C0.2,141.6,0,142.2,0,142.8z"/>
		</g>
	</g>
	<g id="top">
		<g class="paths">
			<path id="Path_797" class="st1" d="M184,49.8L100.2,1.5c-3.4-2-7.6-2-10.9,0L5.5,49.8c-1.3,0.7-2.4,1.7-3.3,2.9l92.5,53.4
				l92.5-53.4C186.3,51.5,185.2,50.6,184,49.8z"/>
		</g>
	</g>
</g>
</svg>
