<svg xmlns="http://www.w3.org/2000/svg" viewBox="0 0 189.43 215.26">
    <defs>
        <style>
            .cls-1{
                fill:#eaeaea;
                }
            .cls-2{
                fill:#124074;
            }
        </style>
    </defs>
    <title>Recurso 4</title>
    <g id="Capa_2" data-name="Capa 2">
        <g id="Capa_1-2" data-name="Capa 1">
            <g id="Group_266" data-name="Group 266">
                <g id="Group_264" data-name="Group 264">
                    <path id="Path_792" data-name="Path 792" class="cls-1" d="M148.22,144.88,96.08,175V149.73l52.69-30.42a3.28,3.28,0,0,1,4.92,2.84v13.26A11,11,0,0,1,148.22,144.88Z"/>
                    <path id="Path_793" data-name="Path 793" class="cls-1" d="M188.57,55.06l-92.49,53.4v25.26L162.63,95.3a3.28,3.28,0,0,1,4.92,2.84v45.27a10.92,10.92,0,0,1-5.47,9.47L96.08,191v24.27a10.9,10.9,0,0,0,4-1.35l.05,0L184,165.51h0a11,11,0,0,0,5.45-9.46V59.31A11.09,11.09,0,0,0,188.57,55.06Z"/>
                </g>
                <g id="Group_265" data-name="Group 265">
                    <path id="Path_794" data-name="Path 794" class="cls-1" d="M.86,55.06A10.89,10.89,0,0,0,0,59.3V73.51A10.92,10.92,0,0,0,5.47,83l87.87,50.74V108.46Z"/>
                    <path id="Path_795" data-name="Path 795" class="cls-1" d="M0,101.51v13.26a11,11,0,0,0,5.47,9.48L93.34,175V149.73l-88.42-51a3.28,3.28,0,0,0-4.48,1.2A3.24,3.24,0,0,0,0,101.51Z"/>
                    <path id="Path_796" data-name="Path 796" class="cls-1" d="M0,142.78V156a11,11,0,0,0,5.45,9.46h0l83.77,48.37.05,0a11,11,0,0,0,4,1.35V191L4.92,139.94A3.28,3.28,0,0,0,0,142.78Z"/>
                </g>
                <path id="Path_797" data-name="Path 797" class="cls-2" d="M184,49.83,100.18,1.47a10.91,10.91,0,0,0-10.94,0L5.47,49.83a11,11,0,0,0-3.25,2.86l92.49,53.4,92.49-53.4A10.87,10.87,0,0,0,184,49.83Z"/>
            </g>
        </g>
    </g>
</svg>