<svg xmlns="http://www.w3.org/2000/svg" xmlns:xlink="http://www.w3.org/1999/xlink" viewBox="0 0 361 223.43"><defs><style>.cls-1{fill:none;}.cls-2{clip-path:url(#clip-path);}.cls-3{fill:#09213c;}.cls-4{fill:#0a233f;}.cls-5{fill:#0a2441;}.cls-6{fill:#0a2543;}.cls-7{fill:#0b2646;}.cls-8{fill:#0b2848;}.cls-9{clip-path:url(#clip-path-2);}.cls-10{fill:#0c2a4d;}.cls-11{fill:#0c294a;}.cls-12{fill:#0b294a;}.cls-13{fill:#0c2b4f;}.cls-14{clip-path:url(#clip-path-3);}.cls-15{fill:#0c2c4f;}.cls-16{fill:#0d2d51;}.cls-17{fill:#0d2e54;}.cls-18{fill:#0d2f56;}.cls-19{fill:#0e3158;}.cls-20{fill:#0e325b;}.cls-21{fill:url(#Degradado_sin_nombre_3);}</style><clipPath id="clip-path" transform="translate(0 0)"><path class="cls-1" d="M109.4,10.71,118,2a14.81,14.81,0,0,1,7.54-2l-8.55,8.68A14.81,14.81,0,0,0,109.4,10.71Z"/></clipPath><clipPath id="clip-path-2" transform="translate(0 0)"><path class="cls-1" d="M242.88,130.87l8.55-8.68a14.82,14.82,0,0,1-1.8,7.6l-8.55,8.68A14.79,14.79,0,0,0,242.88,130.87Z"/></clipPath><clipPath id="clip-path-3" transform="translate(0 0)"><path class="cls-1" d="M223.93,8.68,232.48,0a15.77,15.77,0,0,1,15.67,15.2l-8.55,8.68A15.79,15.79,0,0,0,223.93,8.68Z"/></clipPath><radialGradient id="Degradado_sin_nombre_3" cx="-567.85" cy="509.4" r="2.62" gradientTransform="matrix(50.18, 0, 0, -4, 28674.63, 2233.11)" gradientUnits="userSpaceOnUse"><stop offset="0" stop-opacity="0.5"/><stop offset="1" stop-color="#eaeaea" stop-opacity="0"/></radialGradient></defs><title>Recurso 1</title><g id="Capa_2" data-name="Capa 2"><g id="Capa_1-2" data-name="Capa 1"><g id="Group_408" data-name="Group 408"><g id="Development_Isotipo_Positivo" data-name="Development Isotipo Positivo"><g id="Group_396" data-name="Group 396"><g class="cls-2"><g id="Group_395" data-name="Group 395"><g id="Group_394" data-name="Group 394"><path id="Path_1097" data-name="Path 1097" class="cls-3" d="M109.4,10.71,118,2a13.56,13.56,0,0,1,1.31-.68L110.71,10a12.49,12.49,0,0,0-1.31.68" transform="translate(0 0)"/><path id="Path_1098" data-name="Path 1098" class="cls-4" d="M110.71,10l8.55-8.68A15.09,15.09,0,0,1,121,.68l-8.55,8.68a15.09,15.09,0,0,0-1.73.67" transform="translate(0 0)"/><path id="Path_1099" data-name="Path 1099" class="cls-5" d="M112.44,9.36,121,.68a14,14,0,0,1,1.45-.37L113.89,9a14,14,0,0,0-1.45.37" transform="translate(0 0)"/><path id="Path_1100" data-name="Path 1100" class="cls-6" d="M113.89,9,122.44.31c.44-.09.88-.16,1.33-.21l-8.54,8.68c-.46.05-.9.12-1.34.21" transform="translate(0 0)"/><path id="Path_1101" data-name="Path 1101" class="cls-7" d="M115.23,8.78,123.78.1c.42,0,.85-.08,1.28-.09l-8.55,8.68c-.43,0-.86,0-1.28.09" transform="translate(0 0)"/><path id="Path_1102" data-name="Path 1102" class="cls-8" d="M116.5,8.69,125.06,0h.43l-8.55,8.68h-.44" transform="translate(0 0)"/></g></g></g></g><g id="Group_407" data-name="Group 407"><g id="Group_399" data-name="Group 399"><g class="cls-9"><g id="Group_398" data-name="Group 398"><g id="Group_397" data-name="Group 397"><path id="Path_1104" data-name="Path 1104" class="cls-10" d="M242.88,130.87l8.55-8.68v.23l-8.55,8.68v-.23" transform="translate(0 0)"/><path id="Path_1105" data-name="Path 1105" class="cls-11" d="M242.89,131.1l8.55-8.68q0,.61,0,1.23l-8.55,8.68q0-.62,0-1.23" transform="translate(0 0)"/><path id="Path_1106" data-name="Path 1106" class="cls-8" d="M242.86,132.33l8.55-8.68c0,.4-.07.81-.13,1.21l-8.55,8.68c.06-.4.1-.81.13-1.21" transform="translate(0 0)"/><path id="Path_1107" data-name="Path 1107" class="cls-7" d="M242.73,133.54l8.55-8.68c-.06.41-.14.82-.23,1.22l-8.55,8.69c.09-.4.17-.81.23-1.23" transform="translate(0 0)"/><path id="Path_1108" data-name="Path 1108" class="cls-6" d="M242.5,134.77l8.55-8.69q-.15.66-.36,1.29l-8.55,8.68c.13-.42.26-.85.36-1.28" transform="translate(0 0)"/><path id="Path_1109" data-name="Path 1109" class="cls-5" d="M242.14,136.05l8.55-8.68a15,15,0,0,1-.55,1.4l-8.55,8.68a15,15,0,0,0,.55-1.4" transform="translate(0 0)"/><path id="Path_1110" data-name="Path 1110" class="cls-4" d="M241.59,137.44l8.55-8.68c-.16.35-.33.7-.51,1l-8.55,8.69c.18-.34.35-.68.51-1" transform="translate(0 0)"/></g></g></g></g><g id="Group_400" data-name="Group 400"><path id="Path_1112" data-name="Path 1112" class="cls-12" d="M116.94,8.68,125.49,0h107l-8.55,8.68Z" transform="translate(0 0)"/></g><g id="Group_401" data-name="Group 401"><path id="Path_1113" data-name="Path 1113" class="cls-13" d="M239.61,23.88l8.55-8.68,3.27,107-8.55,8.68Z" transform="translate(0 0)"/></g><g id="Group_406" data-name="Group 406"><g id="Group_404" data-name="Group 404"><g class="cls-14"><g id="Group_403" data-name="Group 403"><g id="Group_402" data-name="Group 402"><path id="Path_1114" data-name="Path 1114" class="cls-8" d="M223.93,8.68,232.48,0l.81,0L224.74,8.7l-.81,0" transform="translate(0 0)"/><path id="Path_1115" data-name="Path 1115" class="cls-11" d="M224.74,8.7,233.29,0c.41,0,.82.06,1.23.11L226,8.82c-.41-.06-.82-.09-1.23-.12" transform="translate(0 0)"/><path id="Path_1116" data-name="Path 1116" class="cls-10" d="M226,8.82,234.51.14a12.13,12.13,0,0,1,1.23.21L227.19,9A12.13,12.13,0,0,0,226,8.82" transform="translate(0 0)"/><path id="Path_1117" data-name="Path 1117" class="cls-15" d="M227.19,9,235.74.35A12.93,12.93,0,0,1,237,.68l-8.55,8.68A12.93,12.93,0,0,0,227.19,9" transform="translate(0 0)"/><path id="Path_1118" data-name="Path 1118" class="cls-16" d="M228.45,9.36,237,.68c.46.14.9.3,1.34.48l-8.55,8.68c-.44-.18-.88-.34-1.34-.48" transform="translate(0 0)"/><path id="Path_1119" data-name="Path 1119" class="cls-17" d="M229.79,9.84l8.55-8.68a15.19,15.19,0,0,1,1.53.72l-8.55,8.68a15.19,15.19,0,0,0-1.53-.72" transform="translate(0 0)"/><path id="Path_1120" data-name="Path 1120" class="cls-18" d="M231.32,10.56l8.55-8.68a15.55,15.55,0,0,1,2,1.26l-8.55,8.68a15.55,15.55,0,0,0-2-1.26" transform="translate(0 0)"/><path id="Path_1121" data-name="Path 1121" class="cls-19" d="M233.28,11.82l8.55-8.68A15.94,15.94,0,0,1,246,7.83l-8.55,8.68a15.94,15.94,0,0,0-4.19-4.69" transform="translate(0 0)"/><path id="Path_1122" data-name="Path 1122" class="cls-18" d="M237.47,16.51,246,7.83a13.71,13.71,0,0,1,1,2.07l-8.55,8.69a14.83,14.83,0,0,0-1-2.08" transform="translate(0 0)"/><path id="Path_1123" data-name="Path 1123" class="cls-17" d="M238.49,18.59,247,9.9a15.1,15.1,0,0,1,.55,1.6L239,20.18a14.93,14.93,0,0,0-.55-1.59" transform="translate(0 0)"/><path id="Path_1124" data-name="Path 1124" class="cls-16" d="M239,20.18l8.55-8.68c.13.45.23.91.32,1.38l-8.55,8.68c-.09-.47-.19-.93-.32-1.38" transform="translate(0 0)"/><path id="Path_1125" data-name="Path 1125" class="cls-15" d="M239.36,21.56l8.55-8.68c.08.42.14.86.18,1.3l-8.55,8.68c0-.44-.1-.87-.18-1.3" transform="translate(0 0)"/><path id="Path_1126" data-name="Path 1126" class="cls-10" d="M239.54,22.86l8.55-8.69c0,.34.06.69.07,1l-8.55,8.68c0-.34,0-.69-.07-1" transform="translate(0 0)"/></g></g></g></g><g id="Group_405" data-name="Group 405"><path id="Path_1128" data-name="Path 1128" class="cls-20" d="M223.93,8.68a15.79,15.79,0,0,1,15.67,15.2l3.28,107a14.82,14.82,0,0,1-1.8,7.6H113.31L109.4,10.71a14.71,14.71,0,0,1,7.54-2Z" transform="translate(0 0)"/></g></g></g></g><ellipse id="Ellipse_37" data-name="Ellipse 37" class="cls-21" cx="180.5" cy="198.43" rx="180.5" ry="25"/></g></g></g></svg>