<svg xmlns="http://www.w3.org/2000/svg" viewBox="0 0 73.6 60.08"><defs><style>.cls-1{fill:#34ccfe;}</style></defs><title>twitter</title><g id="Capa_2" data-name="Capa 2"><g id="Capa_1-2" data-name="Capa 1"><g id="Group_319" data-name="Group 319"><g id="Group_318" data-name="Group 318"><path id="Path_927" data-name="Path 927" class="cls-1" d="M73.6,7.08a33.09,33.09,0,0,1-8.7,2.4,15.51,15.51,0,0,0,6.7-8.4A30.37,30.37,0,0,1,62,4.78a15.16,15.16,0,0,0-21.4-.7,15.32,15.32,0,0,0-4.4,14.5A43.1,43.1,0,0,1,5,2.78,15.11,15.11,0,0,0,9.7,23a15.19,15.19,0,0,1-6.9-1.9v.2A15.28,15.28,0,0,0,15,36.18a15.65,15.65,0,0,1-6.8.3A15.14,15.14,0,0,0,22.4,47,30.67,30.67,0,0,1,0,53.28a42.47,42.47,0,0,0,23.2,6.8C51.1,60.08,66.3,37,66.3,17V15a36.68,36.68,0,0,0,7.3-7.9Z"/></g></g></g></g></svg>