<svg xmlns="http://www.w3.org/2000/svg" viewBox="0 0 36.91 30"><defs><style>.cls-1{fill:#2a2d34;}</style></defs><title>twitter</title><g id="Capa_2" data-name="Capa 2"><g id="Capa_1-2" data-name="Capa 1"><g id="Group_390" data-name="Group 390"><g id="Group_387" data-name="Group 387"><g id="Group_386" data-name="Group 386"><g id="Group_385" data-name="Group 385"><path id="Path_1082" data-name="Path 1082" class="cls-1" d="M36.91,3.55a15.18,15.18,0,0,1-4.35,1.19A7.53,7.53,0,0,0,35.89.55a15.31,15.31,0,0,1-4.8,1.84A7.58,7.58,0,0,0,18.18,9.3,21.49,21.49,0,0,1,2.57,1.38,7.58,7.58,0,0,0,4.91,11.49a7.5,7.5,0,0,1-3.43-.94v.1a7.57,7.57,0,0,0,6.08,7.42,7.47,7.47,0,0,1-3.42.13,7.57,7.57,0,0,0,7.07,5.26A15.28,15.28,0,0,1,0,26.6,21.5,21.5,0,0,0,11.61,30C25.54,30,33.16,18.46,33.16,8.45c0-.33,0-.66,0-1a15.15,15.15,0,0,0,3.78-3.92Z"/></g></g></g></g></g></g></svg>