<svg xmlns="http://www.w3.org/2000/svg" viewBox="0 0 59.55 60"><defs><style>.cls-1{fill:#5efa75;}</style></defs><title>whatsapp</title><g id="Capa_2" data-name="Capa 2"><g id="Capa_1-2" data-name="Capa 1"><g id="Group_329" data-name="Group 329"><g id="Group_328" data-name="Group 328"><g id="Group_327" data-name="Group 327"><g id="Group_326" data-name="Group 326"><path id="Path_941" data-name="Path 941" class="cls-1" d="M44,35.9c-.7-.4-4.3-2.3-5-2.6s-1.2-.4-1.7.3a23.5,23.5,0,0,1-2.5,2.8,1.2,1.2,0,0,1-1.6.1,23.26,23.26,0,0,1-5.9-3.9,25.45,25.45,0,0,1-4-5.3,1,1,0,0,1,.4-1.5,16.65,16.65,0,0,0,1.2-1.3,8.34,8.34,0,0,0,.8-1.2,1.48,1.48,0,0,0,0-1.3c-.2-.4-1.5-4.1-2.1-5.6s-1.2-1.3-1.6-1.3-.9-.1-1.4-.1a2.52,2.52,0,0,0-2,.9A8.15,8.15,0,0,0,15.8,22c-.1,3.7,2.4,7.3,2.8,7.8s4.9,8.5,12.3,11.7,7.5,2.3,8.9,2.2,4.5-1.6,5.2-3.4a7,7,0,0,0,.6-3.5,6.86,6.86,0,0,0-1.6-.9ZM30.3,53.6a24.47,24.47,0,0,1-13.4-4l-9.4,3,3-9a24.35,24.35,0,1,1,34,5.5,25.2,25.2,0,0,1-14.2,4.5ZM30.3,0A29.23,29.23,0,0,0,1.1,29.2,29.88,29.88,0,0,0,5.3,44.3L0,60l16.2-5.2A29.23,29.23,0,1,0,44.4,3.6,29.84,29.84,0,0,0,30.3,0Z"/></g></g></g></g></g></g></svg>