<?xml version="1.0" encoding="utf-8"?>
<!-- Generator: Adobe Illustrator 22.0.0, SVG Export Plug-In . SVG Version: 6.00 Build 0)  -->
<svg version="1.1" id="Capa_1" xmlns="http://www.w3.org/2000/svg" xmlns:xlink="http://www.w3.org/1999/xlink" x="0px" y="0px"
	 viewBox="0 0 73.6 60.1" style="enable-background:new 0 0 73.6 60.1;" xml:space="preserve">
<style type="text/css">
	.st0{fill:#34CCFE;}
</style>
<g id="twitter-c">
	<path id="Path_927" class="st0" d="M73.6,7.1c-2.8,1.2-5.7,2-8.7,2.4c3.2-1.9,5.5-4.9,6.7-8.4c-3,1.8-6.2,3-9.6,3.7
		c-5.7-6.1-15.3-6.4-21.4-0.7c-3.9,3.7-5.6,9.2-4.4,14.5C24,18,12.7,12.2,5,2.8C1,9.7,3,18.6,9.7,23c-2.4-0.1-4.8-0.7-6.9-1.9v0.2
		c0,7.2,5.1,13.4,12.2,14.9c-2.2,0.6-4.5,0.7-6.8,0.3c2,6.2,7.7,10.4,14.2,10.5C16,52,8,54.2,0,53.3c6.9,4.5,15,6.8,23.2,6.8
		C51.1,60.1,66.3,37,66.3,17v-2C69.1,12.7,71.6,10.1,73.6,7.1L73.6,7.1z"/>
</g>
</svg>
