<svg xmlns="http://www.w3.org/2000/svg" xmlns:xlink="http://www.w3.org/1999/xlink" viewBox="0 0 454.41 240.87"><defs><style>.cls-1{fill:#191716;}.cls-2{fill:url(#Nueva_muestra_de_degradado_1);}.cls-3{fill:url(#Nueva_muestra_de_degradado_1-2);}.cls-4{fill:url(#Nueva_muestra_de_degradado_1-3);}.cls-5{fill:url(#Nueva_muestra_de_degradado_1-4);}.cls-6{fill:url(#Nueva_muestra_de_degradado_1-5);}.cls-7{fill:url(#Nueva_muestra_de_degradado_1-6);}.cls-8{fill:url(#Nueva_muestra_de_degradado_1-7);}.cls-9{fill:url(#Nueva_muestra_de_degradado_1-8);}</style><linearGradient id="Nueva_muestra_de_degradado_1" x1="181.41" y1="130.48" x2="235.2" y2="130.48" gradientUnits="userSpaceOnUse"><stop offset="0" stop-color="#ffd240"/><stop offset="0.25" stop-color="#e69300"/><stop offset="0.3" stop-color="#ea9d0d"/><stop offset="0.4" stop-color="#f3b62f"/><stop offset="0.5" stop-color="#ffd558"/><stop offset="0.65" stop-color="#ce902a"/><stop offset="0.71" stop-color="#ba7418"/><stop offset="0.78" stop-color="#bd7719"/><stop offset="0.84" stop-color="#c8821e"/><stop offset="0.87" stop-color="#d18c22"/><stop offset="1" stop-color="#eea72f"/></linearGradient><linearGradient id="Nueva_muestra_de_degradado_1-2" x1="218.5" y1="115.59" x2="302.09" y2="115.59" xlink:href="#Nueva_muestra_de_degradado_1"/><linearGradient id="Nueva_muestra_de_degradado_1-3" x1="291.45" y1="133.03" x2="362.47" y2="133.03" xlink:href="#Nueva_muestra_de_degradado_1"/><linearGradient id="Nueva_muestra_de_degradado_1-4" x1="346.8" y1="115.86" x2="405.33" y2="115.86" xlink:href="#Nueva_muestra_de_degradado_1"/><linearGradient id="Nueva_muestra_de_degradado_1-5" x1="382.67" y1="133.21" x2="453.7" y2="133.21" xlink:href="#Nueva_muestra_de_degradado_1"/><linearGradient id="Nueva_muestra_de_degradado_1-6" x1="92.49" y1="83.2" x2="227.04" y2="83.2" xlink:href="#Nueva_muestra_de_degradado_1"/><linearGradient id="Nueva_muestra_de_degradado_1-7" x1="80.03" y1="103.45" x2="130.92" y2="103.45" xlink:href="#Nueva_muestra_de_degradado_1"/><linearGradient id="Nueva_muestra_de_degradado_1-8" x1="143.39" y1="117.02" x2="239.85" y2="117.02" xlink:href="#Nueva_muestra_de_degradado_1"/></defs><g id="Capa_2" data-name="Capa 2"><g id="LOGOTIPO"><g id="WHITE"><path class="cls-1" d="M35.54,213.88,71,165.16v74.23H56.46v-30L35.54,238.22l-21-28.88v30H0V165.16Z"/><path class="cls-1" d="M123.76,166.69v14.53H94.61v14.62h21.86v14.53H94.61V225h29.15v14.49H80V166.69Z"/><path class="cls-1" d="M173.74,207V166.69h14.62v74.18l-43.73-41.66v40.27H130.06V165.34Z"/><path class="cls-1" d="M216.66,166.87a36.86,36.86,0,0,1,26.49,10.66q9.72,9.76,9.72,25.66t-9.72,25.58q-10.69,10.62-26.49,10.62h-19.3V166.91h19.3Zm0,14.44h-4.72v43.55h4.86c13.07,0,21.59-8.68,21.59-21.78S229.67,181.31,216.61,181.31Z"/><path class="cls-1" d="M319.27,177.13a36.58,36.58,0,1,1-26-10.85A35.49,35.49,0,0,1,319.27,177.13Zm-41.61,10.34a22.06,22.06,0,0,0,31.17,31.22,22.06,22.06,0,1,0-31.17-31.22Z"/><path class="cls-1" d="M384.64,166.87l-27.89,58h27.89v14.49h-51l27.89-58.08H333.62V166.87Z"/><path class="cls-1" d="M421.3,165.38l33.11,74H438.62l-4.9-11H408.88l-4.9,11H388.24ZM428,215.5l-6.61-15.34-6.71,15.34Z"/><path class="cls-2" d="M234.35,130.67c-7.15,8.1-33,33.85-39.88,36.23-3.18.95-14.62-7.79-12.88-11.44,1.43-4.93,10.17-24.63,12.08-28.92s4.45-10,6.36-14.14c1.43-4.61,16.21,5.72,14.14,10.32-4.29,9.7-10.49,22.73-13,30.51,8.1-6.51,18.11-16.36,28.28-26.85C232.12,123,237.21,127.33,234.35,130.67Zm-26.7-35.59c1.43-4.45,16.37,5.87,14.15,10.48-1.91,4.45-1.12,2.54-2.86,6.52-1.59,3.33-16.69-5.25-13.83-11.13A56,56,0,0,0,207.65,95.08Z"/><path class="cls-3" d="M277.57,77.51c-5.24.16-14,16.52-22.41,35.27,5.88-6.51,11.6-11.76,16.21-14.62,2.23-1.74,12.87,8,12.08,12.08-1.59,7-4.13,16.53-21.29,19.86,13.5-2.06,14.14,7,11.6,13.35-2.23,5.4-3.34,8.26-4.77,12.55,10.49-7,18.91-17.16,27.17-26.69,2.86-3.34,7.95.95,5.09,4.29-9.54,11-23.36,26.22-36.23,32.26-2.86,1.27-14.62-8.43-13.35-13.35a127.91,127.91,0,0,1,5.08-13.35c2.07-4.92-2.86-5.4-7.15-4.29l4.93-7c10-2.38,12.71-13.83,13.82-19.07-10.48,9.22-18,21-24.15,29.72,0,0-9.69,24.62-11,27.8-1.27,2.39-17-6.67-14.46-11.6,2.38-4.6,6.19-14.14,10.64-25.42,4.45-10.81,23.52-66.1,36.39-64.83C268.35,66.86,273.6,72.74,277.57,77.51Z"/><path class="cls-4" d="M329.21,102.64c11,1.12,17.16,14,10.81,30.67A66.15,66.15,0,0,1,332.71,147c5.72-1.12,12.08-4.45,23.83-18.59,2.86-3.34,7.95,1,5.09,4.29-7.15,8.58-21.13,24-34,20.81-7.15,7.79-15.57,12.71-22.88,12.71-15.89,0-15.89-19.7-8.58-37.66,7-17,20.34-31.3,33.53-28.28C330.17,100.42,329.69,102,329.21,102.64Zm-1.9,19.07c2.06-7.47.16-9.22-.8-11.44-.32-1,.8-3.65,1.43-5.08-16.84,11-28,53.55-20,53.55,2.38,0,6.2-4.14,10.65-13.67C315.71,137.13,318.09,123.94,327.31,121.71Z"/><path class="cls-5" d="M405.33,78c-9.7.32-36.39,64.2-39.09,76.43,8.1-7.15,16.84-16.84,24.31-24.63,2.86-3.18,7.78,1.27,4.77,4.45-9.38,10-23.52,24.47-34.65,32.26-2.06,1.59-15.73-4.77-13.66-10.33,1.27-4.29,4.93-14.46,9.53-26.38,11-28,27.81-65.78,36.87-64.83C396,67.36,401.35,73.24,405.33,78Z"/><path class="cls-6" d="M447.91,128.23c3.34-3,7.47,1.59,5.09,4.45-39.73,50.37-89.94,40.2-62.45-4.45,6.19-10,15.25-19.23,25.26-24.79,17.16-9.54,31.47,3,21.77,18-6,8.9-21.77,12.4-31.3,12.72C388.64,162.87,422.49,161.75,447.91,128.23Zm-37.82,0c6.36-.64,17.32-3.34,20.82-9.54,4-7,.79-10.8-7.79-4.29A78.41,78.41,0,0,0,410.09,128.23Z"/><path class="cls-7" d="M120.33,95.4c-10.38,15.37-17.62,26.09-22.92,36.32l1-3c-7.72,11.1-6,24.11-5.13,36.92,1.1.18,2.21.33,3.3.58a6.22,6.22,0,0,0,1.91.18c-5-12.37,11-34.88,25-55.83A231.21,231.21,0,0,1,139,90.23c9.27-11,20.5-23,32.15-34.48a466,466,0,0,1,35.14-31.41c-.4.64-.78,1.29-1.17,1.93C215.08,20,224.69,13,227,1.65A16.05,16.05,0,0,0,223.21,0l-.31.42C206.42,8.7,184,26.78,163.68,46.27a400.1,400.1,0,0,0-31,33Z"/><path class="cls-8" d="M96.5,140.39c.6-5.77,1.58-7.77,4.29-17l4.59-15.93c3.33-11.51,3.33-11.51,5.7-19.29,1.38-4.52,3-9.2,4.18-12.51,6.5-19.1,6.09-21.24,15.66-24.63-4.83-5.31-5.79-6.28-9.94-10.42-18.63-2-25.8,40.85-37.57,86.37-5,19.28-6.42,36,9.76,38.68,1.14.18,4.74.82,5.31.77l-.1-.23c-1.6-3.66-3.33-7.63-3.13-11.61s.63-8.26.9-10.81Z"/><path class="cls-9" d="M207.53,22.49c-.86,1.23-1.69,2.49-2.47,3.77-1.9,3.11-3.74,6.26-5.49,9.46C182.89,66.27,172,89,161.84,123.94c-14.71,50.67-17,72.76-17.94,82.56a125,125,0,0,0-.51,12.92c0,14.85,19.79,14.63,19.79,14.63-6.89-10.33-2.46-22.44-.55-33.28,4.91-27.79,8.2-36,14.74-56.4,14.94-46.68,48.74-118.06,62.48-124.82-2-3.5-6.08-16.58-16.64-19.55Z"/><path class="cls-1" d="M18.78,129.85a12.9,12.9,0,0,1,2.81,1.85,11.53,11.53,0,0,1,0,16.19,10.86,10.86,0,0,1-8,3.39H0V114.84H10.17a9.84,9.84,0,0,1,7.24,3,9.59,9.59,0,0,1,2.89,6.94A11.53,11.53,0,0,1,18.78,129.85ZM10.17,122H7.3v6.67c.65,0,1.56-.09,2.74-.18a3.44,3.44,0,0,0,3.21-3.35A3.13,3.13,0,0,0,10.17,122Zm7.6,17.84a4.55,4.55,0,0,0-4.23-4.48c-2.17-.12-4,0-6.24,0v8.84h6.24A4.27,4.27,0,0,0,17.77,139.8Z"/><path class="cls-1" d="M27.31,114.84,34,127.48l6.64-12.64h8.3L37.59,135.66v15.62H30.32V135.66L19,114.84Z"/></g></g></g></svg>