<svg xmlns="http://www.w3.org/2000/svg" xmlns:xlink="http://www.w3.org/1999/xlink" viewBox="0 0 500 263.95"><defs><style>.cls-1{fill:#fff;}.cls-2{fill:url(#Nueva_muestra_de_degradado_1);}.cls-3{fill:url(#Nueva_muestra_de_degradado_1-2);}.cls-4{fill:url(#Nueva_muestra_de_degradado_1-3);}.cls-5{fill:url(#Nueva_muestra_de_degradado_1-4);}.cls-6{fill:url(#Nueva_muestra_de_degradado_1-5);}.cls-7{fill:url(#Nueva_muestra_de_degradado_1-6);}.cls-8{fill:url(#Nueva_muestra_de_degradado_1-7);}.cls-9{fill:url(#Nueva_muestra_de_degradado_1-8);}</style><linearGradient id="Nueva_muestra_de_degradado_1" x1="199.61" y1="143.57" x2="258.79" y2="143.57" gradientUnits="userSpaceOnUse"><stop offset="0" stop-color="#ffd143"/><stop offset="0.25" stop-color="#e59306"/><stop offset="0.3" stop-color="#e99d13"/><stop offset="0.41" stop-color="#f4b734"/><stop offset="0.5" stop-color="#ffd459"/><stop offset="0.65" stop-color="#cd902c"/><stop offset="0.71" stop-color="#b9741a"/><stop offset="0.78" stop-color="#bc771b"/><stop offset="0.84" stop-color="#c7821f"/><stop offset="0.87" stop-color="#d18c23"/><stop offset="1" stop-color="#eda72f"/></linearGradient><linearGradient id="Nueva_muestra_de_degradado_1-2" x1="240.42" y1="127.19" x2="332.4" y2="127.19" xlink:href="#Nueva_muestra_de_degradado_1"/><linearGradient id="Nueva_muestra_de_degradado_1-3" x1="320.69" y1="146.37" x2="398.84" y2="146.37" xlink:href="#Nueva_muestra_de_degradado_1"/><linearGradient id="Nueva_muestra_de_degradado_1-4" x1="381.59" y1="127.49" x2="445.99" y2="127.49" xlink:href="#Nueva_muestra_de_degradado_1"/><linearGradient id="Nueva_muestra_de_degradado_1-5" x1="421.06" y1="146.57" x2="499.22" y2="146.57" xlink:href="#Nueva_muestra_de_degradado_1"/><linearGradient id="Nueva_muestra_de_degradado_1-6" x1="101.77" y1="91.55" x2="249.82" y2="91.55" xlink:href="#Nueva_muestra_de_degradado_1"/><linearGradient id="Nueva_muestra_de_degradado_1-7" x1="88.05" y1="113.83" x2="144.06" y2="113.83" xlink:href="#Nueva_muestra_de_degradado_1"/><linearGradient id="Nueva_muestra_de_degradado_1-8" x1="157.77" y1="128.76" x2="263.92" y2="128.76" xlink:href="#Nueva_muestra_de_degradado_1"/></defs><g id="Capa_2" data-name="Capa 2"><g id="Capa_1-2" data-name="Capa 1"><path class="cls-1" d="M39.11,235.34l39.05-53.61V263.4h-16V230.34l-23,31.78L16,230.34V263.4H0V181.73Z"/><path class="cls-1" d="M136.17,183.41v16H104.1v16.09h24.06v16H104.1v16.08h32.07V263.5H88.06V183.41Z"/><path class="cls-1" d="M238.39,183.61a40.61,40.61,0,0,1,29.16,11.73q10.69,10.74,10.69,28.24t-10.69,28.14q-11.79,11.68-29.16,11.68H217.16V183.66h21.23Zm0,15.89h-5.19v47.91h5.34c14.39,0,23.76-9.54,23.76-23.95S252.72,199.5,238.34,199.5Z"/><path class="cls-1" d="M351.3,194.9A40.27,40.27,0,1,1,322.69,183,39.08,39.08,0,0,1,351.3,194.9Zm-45.79,11.38a24.27,24.27,0,0,0,34.31,34.35,24.28,24.28,0,1,0-34.31-34.35Z"/><path class="cls-1" d="M423.23,183.61l-30.69,63.85h30.69V263.4H367.09l30.69-63.9H367.09V183.61Z"/><path class="cls-1" d="M463.57,182,500,263.4H482.63l-5.4-12.12H449.91l-5.4,12.12H427.19Zm7.32,55.14-7.27-16.88-7.38,16.88Z"/><polygon class="cls-1" points="191.17 227.71 144.66 183.41 143.1 183.41 143.1 263.5 159.14 263.5 159.14 219.2 205.65 263.5 207.26 263.5 207.26 183.41 191.17 183.41 191.17 227.71"/><path class="cls-2" d="M257.86,143.78C250,152.69,221.49,181,214,183.64c-3.5,1.05-16.09-8.57-14.17-12.59,1.58-5.42,11.19-27.1,13.29-31.82s4.9-11,7-15.56c1.58-5.07,17.84,6.3,15.57,11.37-4.72,10.66-11.54,25-14.34,33.57,8.92-7.17,19.93-18,31.12-29.55C255.41,135.39,261,140.11,257.86,143.78Zm-29.37-39.17c1.57-4.89,18,6.47,15.56,11.54-2.1,4.9-1.23,2.8-3.15,7.17-1.75,3.67-18.36-5.77-15.21-12.24A67.74,67.74,0,0,0,228.49,104.61Z"/><path class="cls-3" d="M305.42,85.28c-5.77.18-15.39,18.19-24.66,38.82,6.47-7.17,12.77-12.94,17.84-16.09,2.45-1.92,14.16,8.74,13.29,13.29-1.75,7.69-4.55,18.18-23.43,21.86,14.86-2.28,15.56,7.69,12.76,14.68-2.45,5.95-3.67,9.09-5.24,13.82,11.53-7.7,20.8-18.89,29.89-29.38,3.15-3.67,8.75,1.05,5.6,4.72-10.49,12.07-25.7,28.85-39.87,35.5-3.14,1.39-16.08-9.27-14.68-14.69a138.75,138.75,0,0,1,5.59-14.69c2.28-5.42-3.15-5.94-7.87-4.72l5.42-7.69c11-2.62,14-15.21,15.22-21-11.54,10.14-19.76,23.08-26.58,32.69,0,0-10.67,27.1-12.06,30.6-1.4,2.62-18.71-7.34-15.91-12.76,2.62-5.07,6.81-15.56,11.71-28,4.89-11.89,25.88-72.73,40-71.33C295.28,73.57,301.05,80,305.42,85.28Z"/><path class="cls-4" d="M362.24,112.94c12.07,1.22,18.88,15.39,11.89,33.75a72.94,72.94,0,0,1-8,15c6.29-1.22,13.29-4.89,26.22-20.45,3.15-3.68,8.75,1,5.6,4.72-7.87,9.44-23.25,26.4-37.42,22.9-7.87,8.57-17.13,14-25.17,14-17.49,0-17.49-21.68-9.45-41.44,7.7-18.71,22.38-34.44,36.9-31.12C363.29,110.49,362.77,112.24,362.24,112.94Zm-2.1,21c2.28-8.22.18-10.14-.87-12.59-.35-1,.87-4,1.57-5.59-18.53,12.06-30.77,58.92-22,58.92,2.62,0,6.82-4.55,11.72-15C347.38,150.88,350,136.37,360.14,133.92Z"/><path class="cls-5" d="M446,85.84c-10.66.35-40,70.63-43,84.1,8.92-7.87,18.53-18.54,26.75-27.11,3.15-3.49,8.57,1.4,5.25,4.9-10.32,11-25.88,26.93-38.12,35.49-2.27,1.75-17.31-5.24-15-11.36,1.4-4.72,5.42-15.91,10.49-29,12.07-30.77,30.6-72.38,40.57-71.33C435.67,74.12,441.62,80.59,446,85.84Z"/><path class="cls-6" d="M492.85,141.09c3.67-3.32,8.21,1.75,5.59,4.9-43.71,55.42-99,44.23-68.71-4.9,6.82-11,16.78-21.16,27.8-27.28,18.88-10.49,34.62,3.33,24,19.76-6.64,9.79-24,13.64-34.44,14C427.63,179.21,464.87,178,492.85,141.09Zm-41.62,0c7-.7,19.06-3.67,22.91-10.49,4.37-7.69.87-11.89-8.57-4.72A86.34,86.34,0,0,0,451.23,141.09Z"/><path class="cls-7" d="M132.4,105c-11.42,16.91-19.38,28.71-25.22,40l1.09-3.32c-8.49,12.22-6.55,26.53-5.64,40.63,1.21.19,2.43.36,3.63.64a7.17,7.17,0,0,0,2.1.2c-5.5-13.62,12.08-38.38,27.49-61.44a251.84,251.84,0,0,1,17-22.37c10.2-12.13,22.56-25.34,35.38-37.93a512.08,512.08,0,0,1,38.66-34.57c-.43.7-.85,1.42-1.28,2.12,11-6.87,21.59-14.64,24.17-27.09A17.84,17.84,0,0,0,245.61,0l-.34.46c-18.14,9.12-42.86,29-65.17,50.45A443.45,443.45,0,0,0,146,87.27Z"/><path class="cls-8" d="M106.18,154.47c.66-6.34,1.74-8.54,4.72-18.74L116,118.2c3.65-12.67,3.65-12.67,6.26-21.23,1.52-5,3.37-10.12,4.6-13.76,7.15-21,6.71-23.38,17.24-27.11-5.32-5.84-6.38-6.91-10.95-11.46-20.49-2.25-28.38,45-41.34,95-5.49,21.22-7.06,39.66,10.75,42.56,1.25.2,5.21.91,5.84.86l-.11-.26c-1.76-4-3.66-8.39-3.45-12.78s.7-9.08,1-11.89Z"/><path class="cls-9" d="M228.35,24.75q-1.42,2-2.72,4.14c-2.09,3.43-4.12,6.89-6,10.42-18.35,33.61-30.34,58.61-41.51,97.06-16.19,55.76-18.66,80.06-19.74,90.85a135.33,135.33,0,0,0-.57,14.21c0,16.34,21.78,16.1,21.78,16.1-7.57-11.37-2.7-24.69-.6-36.62,5.4-30.58,9-39.57,16.22-62C211.6,107.49,248.79,29,263.92,21.52c-2.2-3.86-6.7-18.25-18.31-21.52Z"/><path class="cls-1" d="M20.67,142.88a14,14,0,0,1,3.08,2,12.65,12.65,0,0,1,0,17.8,11.91,11.91,0,0,1-8.85,3.74H0v-40.1H11.19a10.81,10.81,0,0,1,8,3.33,10.55,10.55,0,0,1,3.19,7.64A12.84,12.84,0,0,1,20.67,142.88Zm-9.48-8.69H8v7.34c.72,0,1.72-.1,3-.2a3.78,3.78,0,0,0,3.54-3.68A3.45,3.45,0,0,0,11.19,134.19Zm8.36,19.63a5,5,0,0,0-4.65-4.92c-2.39-.14-4.45,0-6.87,0v9.73H14.9A4.7,4.7,0,0,0,19.55,153.82Z"/><path class="cls-1" d="M30.05,126.36l7.31,13.9,7.32-13.9H53.8L41.37,149.27v17.19h-8V149.27L21,126.36Z"/></g></g></svg>