<svg xmlns="http://www.w3.org/2000/svg" viewBox="0 0 683 178.45"><defs><style>.cls-1{fill:#000;}</style></defs><g id="Capa_2" data-name="Capa 2"><g id="Capa_1-2" data-name="Capa 1"><path class="cls-1" d="M681,.16H649.33c-2.36,0-2.2-.16-2.2,2.2V72.48a1.05,1.05,0,0,1-.79,1.1c-.47.16-.79-.16-1.1-.63-.16-.31-.32-.63-.47-.94l-33-70.75A1.84,1.84,0,0,0,609.84,0H577.11c-1.26,0-1.73,0-1.89.63,0,.31-.15.63-.15,1.26v175.3a1.18,1.18,0,0,0,.94,1.1h33c1.57,0,1.89-.16,1.89-1.89V83.49a1.88,1.88,0,0,1,.79-.79c.31-.16.63,0,.94.31l.16.16c.15.32.31.47.31.79,11.17,23.74,22.19,47.48,33.36,71.06a5,5,0,0,1,.63,2.52v18.39c0,1.89.15,2,2.2,2H681.9c.79,0,.94-.32,1.1-1.1V1.73c-.16-1.73-.16-1.57-2-1.57Z"/><path class="cls-1" d="M521.26,89.3v55.5a33.83,33.83,0,0,1-27.54,33,35.55,35.55,0,0,1-6.92.63H447.94a33.7,33.7,0,0,1-23.44-8.81,32.8,32.8,0,0,1-11-22.32,35,35,0,0,1-.16-4.09V33.8c0-16.19,11-29.71,27.07-33.17A27.16,27.16,0,0,1,446.52,0H487.9c8.81,0,16.37,3.3,22.82,9.28a32.81,32.81,0,0,1,10.22,19.65,40.79,40.79,0,0,1,.32,4.56V89.3Zm-35.88,0V43.08a7.75,7.75,0,0,0-7.7-7.39H457.06a6.24,6.24,0,0,0-3.77,1.1A8,8,0,0,0,449.35,44v90.25a9,9,0,0,0,.63,3.46,7.87,7.87,0,0,0,7.71,5h19.2a8.78,8.78,0,0,0,2-.16,8,8,0,0,0,6.3-8c.15-15.09.15-30.18.15-45.28Z"/><path class="cls-1" d="M323.64,89.15V2.36c0-2.2,0-2.2,2.2-2.2h31.47c2.05,0,2.05.15,2.05,2V177c0,1.1-.32,1.26-1.42,1.42h-33c-1.1,0-1.26-.32-1.42-1.26v-1.26c.16-28.93.16-57.86.16-86.78Z"/><path class="cls-1" d="M77.72,89.3c0-9.59,1.11-17.45,2.52-17.76H28.16a.6.6,0,0,0-.47.15c1.26,1,2.36,8.49,2.36,17.77s-1.1,16.82-2.36,17.77a1,1,0,0,0,.63.15H80.24c-1.41-.78-2.52-8.64-2.52-18.08Z"/><path class="cls-1" d="M1.57,178.45H106.36a1.49,1.49,0,0,0,1.57-1.57V144.17a1.49,1.49,0,0,0-1.57-1.57H1.57A1.49,1.49,0,0,0,0,144.17v32.71a1.7,1.7,0,0,0,1.57,1.57Z"/><path class="cls-1" d="M1.57,36H106.36a1.49,1.49,0,0,0,1.57-1.57V1.73A1.49,1.49,0,0,0,106.36.16H1.57A1.49,1.49,0,0,0,0,1.73v32.7A1.69,1.69,0,0,0,1.57,36Z"/><path class="cls-1" d="M268.1,142.6H197.62V1.73A1.49,1.49,0,0,0,196,.16H163.32a1.49,1.49,0,0,0-1.58,1.57V176.88a1.49,1.49,0,0,0,1.58,1.57H268.1a1.49,1.49,0,0,0,1.58-1.57V144.17a1.7,1.7,0,0,0-1.58-1.57Z"/></g></g></svg>