<svg xmlns="http://www.w3.org/2000/svg" viewBox="0 0 500 303.75"><defs><style>.cls-1{fill:#ef87b5;}.cls-2{fill:#5dc5f1;}.cls-3{fill:#70bd85;}</style></defs><g id="Capa_2" data-name="Capa 2"><g id="Capa_1-2" data-name="Capa 1"><path id="Hraven_s_Sweet" data-name="Hraven&apos;s Sweet" class="cls-1" d="M144.81,154.5c-2.95,13.27-5,25.92-5,31.33,0,1-.37,1.47-1.47,1.47-3,0-8-2.7-8.11-5.4,0-6.39,1.23-16,3.07-26.17-6.14,1-13.76,2.21-19.66,2.7-2.46,11.79-4.18,22.48-4.18,27.4,0,1-.36,1.47-1.47,1.47-3,0-8-2.7-8.11-5.4,0-5.9,1.11-14.62,2.7-23.84A13.31,13.31,0,0,1,99,157c-1.35-.61-3.32-6.75-3.32-8.47A2.42,2.42,0,0,1,96,147c.25-.37.49-.37.86-.24a35.45,35.45,0,0,0,7.25,2.21c4.06-20.52,10.08-40.92,13.27-40.92,2.46,0,10.81,3.2,10.81,5a.67.67,0,0,1-.36.61c-.5.74-1,1.23-1.48,2.09-3.44,6.27-7.49,19.91-10.81,33.79,6.14-.61,14.37-2,19.17-2,4-20,9.95-39.57,13-39.57,2.46,0,10.81,3.2,10.81,5a.67.67,0,0,1-.36.61,12.49,12.49,0,0,0-1.48,2.09c-3.56,6.39-7.74,20.52-10.93,34.65a4.91,4.91,0,0,1,1.22,2.09c.37,1.35.13,2-1.59,2Zm24.82-16.71c4.67,0,12.9,6.26,12.9,11.67,0,11.43-13.39,20.27-22.85,20.27-.25,6.52,1.72,11.8,7.37,11.8,6.79,0,13.13-9.39,17.79-18.91,2.69-10.11,8.24-20,15.87-24.1,3.81-2.21,8.24.74,12.66,2.95a6.19,6.19,0,0,0,.61-1.6c.5-1,1.11-1.59,1.85-1.59,2.33,0,6.39,2.21,7.86,3.56,1.35,1-.12,2.58-.61,3.81-4.06,10.81-7.13,25.07-8.73,34-.37,1.84.74,1.84,1.72.86,4-4,7.33-10,10.06-15.91A138,138,0,0,1,230.32,140c.37-1.11,1-1.85,2.09-1.85a17.48,17.48,0,0,1,7.86,2.46c1.36.86.13,2.71-.12,3.81-2.58,9.71-5.53,26.66-6,35.39-.12,1.1.25,1.47,1.11.37,4.42-5.9,9.7-17.08,13.14-24,.13-4.43,1.6-10.2,6-16.59,1.1-1.72,2.7-1.48,4.17-.62,2.95,1.73,4.55,5.41,3.44,8.11-2,4.55-4.67,10.2-7.74,15.86a5.72,5.72,0,0,0,3.57.49c2-.38,3.95-1.65,6-4,3.28-11.29,11.14-21.72,19.2-21.72,4.67,0,12.9,6.26,12.9,11.67,0,11.43-13.39,20.27-22.85,20.27-.25,6.52,1.72,11.8,7.37,11.8,8.26,0,15.85-13.89,20.57-25a123.66,123.66,0,0,1,5.72-16.66,2.19,2.19,0,0,1,1.72-1.59c2.46,0,6.51,2.21,8,3.56,1.23,1-.12,2.58-.62,3.81a174.09,174.09,0,0,0-6,19.54c4.43-9.46,10.94-21.14,16.84-26.05a3.2,3.2,0,0,1,2.33-.86c1.72,0,8.23,2.21,8.23,4.54a2.88,2.88,0,0,1-.36,1.36c-.5,1-.86,2-1.36,3.07a215.08,215.08,0,0,0-8.6,32.44c-.37,1.84.49,2.08,1.72.86,7.5-7.5,13.15-21.88,16.34-30.23a1.71,1.71,0,0,1,3.2,1.23c-3.2,8.23-13.88,35.75-24.45,35.75-4.3,0-7.5-3.31-7.13-6.51a181.53,181.53,0,0,1,8.23-35.26c-8.23,8.84-18.55,32.07-19.16,40.42,0,1.23-.74,1.35-1.48,1.35-3,0-7.74-3.31-7.74-5.89.28-3.21.73-6.66,1.34-10.21-5,8.66-11.5,16.1-19.27,16.1-13.82,0-17.58-10.78-15.87-22.28a10.83,10.83,0,0,1-4.16,1.76,8.18,8.18,0,0,1-5.78-.86,134.24,134.24,0,0,1-11.91,18.31c-1.11,1.48-3,3.07-4.8,3.07-3.68,0-10.56-3.07-10.56-7,0-2.3.05-4.7.16-7.17-4.21,7.65-9.27,14.17-14.41,14.17-4.3,0-7.13-4.42-6.76-8.35.25-1.6.37-3.07.61-4.67a1.74,1.74,0,0,0,.13-.86c-3.57,7.49-8.24,13.88-13.76,13.88-4.92,0-7.62-3.19-8.11-7.61a36.31,36.31,0,0,1-.16-6.4c-4.81,7.74-10.88,14-18,14C135.47,187.3,152.06,137.79,169.63,137.79Zm103.69,29.12c6.64,0,14-10,14-19.79,0-2.58-2.09-3.44-3.93-2C278.49,148.84,274.31,158.55,273.32,166.91Zm-80,8.23c-.12,1.35-.37,5.77,1.6,5.77,5.9,0,14-26.9,15.85-32.68A24.57,24.57,0,0,1,212,145a3.31,3.31,0,0,0-3-1.6C200.59,143.44,194.08,164.57,193.34,175.14Zm-33.42-8.23c6.64,0,14-10,14-19.79,0-2.58-2.09-3.44-3.93-2C165.08,148.84,160.91,158.55,159.92,166.91Zm194.49-40.18c5.28,0,10.2-3.07,12.17-11.92.49-2.46,1.1-4.79-.87-6.76-1.35-1.47-3.68-2.21-6.51-2.21-4.17-.12-7.86,13-1.23,14.38.5,0,.5.36.25.73a12.72,12.72,0,0,1-4.06,5C353.8,126.36,353.8,126.73,354.41,126.73Zm48.17,24.7c-3.08,9.33-8,15.35-15.24,19.29,1.47,10.81-10.2,17.32-19.66,17.32-7.86,0-10.94-6.51-7.74-11.43,1.84-3.07,5-4.17,8.48-4.54,2.7-.37,5.53-.37,7.86-.86-1.1-7.37-9.58-11.92-9.58-21.38,0-7.87,6.76-12.54,13.51-12.54,4.43,0,10.08,6.27,10.08,10.69,0,2.58-2.7,7.13-4.42,7.13-2.71,0-6.52-1.84-6.52-3.07a.64.64,0,0,1,.25-.49c2.09,0,3.81-3.32,3.81-5.65,0-1.48-.62-2.71-2-2.71-3.07,0-4.42,5.29-4.42,7.5,0,6.51,6.63,11.18,9.21,16.71,6.76-3.81,10.69-9.71,13.15-17.08C400,148.23,403.19,149.34,402.58,151.43Zm-26.42,23.34c-2.58.62-6.76.25-9.59,1-5.4,1.36-3.68,9,2.09,7A13,13,0,0,0,376.16,174.77ZM183.38,253.63c-7.25-3.69-19.91-5.29-19.91-15.73,0-10.69,13-24,22.24-24,3.57,0,4.79,2.83,4.79,5.65,0,7.62-12.41,13.76-12.41,22.73,0,3.69,5,7,8.11,7,.37,0,.62-.37.62-.86,0-8.73,12.41-19.29,12.41-28a7.45,7.45,0,0,0-2.83-5.53c-2.09-5.16-7.49-8-14.37-8-17.21,0-33.43,17.81-31.34,33.54,1.85,13.89,14.75,15.36,24.58,21.75,3.19,2.09,4.79,4.79,4.79,7.62,0,9.09-13,13.64-20.27,13.64-3.69,0-8.73-1.36-8.73-5.78,0-5.16,6-10.44,11.06-10.44,1,0,.74-1.11.61-1.85-.86-2.82-5.4-7-8.72-7-2.7,0-5.9,3.44-7.25,5.28a20.08,20.08,0,0,0-3.56,7.74c-2.46,11.92,7.37,18.93,18.18,18.93,13,.12,28.14-7.25,31.09-21C193.94,262,189.64,256.7,183.38,253.63Zm172-3.2c-3.2,8.24-16.47,35.76-26.42,35.76-6.88,0-6.64-7.25-6.27-12,.18-2,.44-4.25.75-6.55-5.15,9.67-12.14,18.59-20.65,18.59-10.51,0-15.19-6.24-16.09-14.28-4.84,7.86-11,14.28-18.19,14.28-13.82,0-17.57-10.78-15.87-22.29a10.81,10.81,0,0,1-4.15,1.77,8.23,8.23,0,0,1-5.78-.86,147.94,147.94,0,0,1-11.79,18.31c-1.23,1.47-3,3.07-4.92,3.07-2.83,0-7.74-2.34-9.34-4.55-1.1-1.47-1-4.3-.73-6.76-2.46,4.67-5.66,10.08-8.48,11.31-3.81,0-10.08-3.07-10.08-7,0-12.66,1.6-28.63,4.92-40.31.37-1.1,1-1.84,2.09-1.84a17.43,17.43,0,0,1,7.86,2.46c1.35.86.12,2.7-.12,3.81-2.46,9.46-6,25.68-6.27,34.65,0,1.72.61,2.45,1.84,1.23,3.07-2.83,6.15-10,9.83-18.31,1.48-7.74,3.44-15.61,5.29-22,.36-1.1,1-1.84,2.09-1.84a17.43,17.43,0,0,1,7.86,2.46c1.35.86.25,2.7-.12,3.81-3.44,9.83-8,26.66-8.48,35.38,0,1.11.24,1.48,1.1.37,4.43-5.9,9.71-17.08,13.15-24,.25-4.42,2-10.2,6.27-16.59a2.87,2.87,0,0,1,3.93-.61c3.07,1.72,4.42,5.65,3.44,8.11-2,4.55-4.55,10.2-7.62,15.85a5.14,5.14,0,0,0,3.44.49c2-.38,4-1.65,6-4,3.28-11.28,11.13-21.72,19.2-21.72,4.67,0,12.9,6.27,12.9,11.67,0,11.43-13.4,20.28-22.86,20.28-.24,6.51,1.72,11.79,7.38,11.79,6.14,0,11.9-7.66,16.4-16.16,1.84-13.25,11-27.58,20.46-27.58,4.67,0,12.9,6.27,12.9,11.67,0,11.43-13.4,20.28-22.86,20.28-.24,6.51,1.72,11.79,7.38,11.79,8.42,0,16.14-14.43,20.84-25.64,1.33-6.87,2.94-14,4.59-20.56h-2.71c-2.33,0-7.74.13-9-3.19-.37-1-.12-1.48,1.11-1.48a95.65,95.65,0,0,0,11.92-1,76.71,76.71,0,0,1,2.82-9.34c1.23-2.95,2.46-4.54,3.57-4.54,2.46,0,9.95,3.07,9.95,5,0,.24-.12.36-.37.61s-.24.37-.37.49a7.55,7.55,0,0,0-1.59,3c-.5,1.23-.86,2.46-1.23,3.69,3.68,0,7.62.36,9.21,1.47.74.37,1.48,3.69,1.48,4.92,0,.73-.13,1.1-.49,1.35h-.37c-3.57-1.23-8-1.35-11.8-1.35-4.18,14.49-8.35,32.56-9.83,43.62-.24,2.7.25,3.19,2,1.35,7.12-7.62,14.62-21.51,17.69-29.62A1.71,1.71,0,0,1,355.39,250.43Zm-57.75,15.36c6.63,0,14-10,14-19.78,0-2.58-2.09-3.44-3.94-2C302.8,247.73,298.62,257.44,297.64,265.79Zm-34.28,0c6.63,0,14-10,14-19.78,0-2.58-2.09-3.44-3.94-2C268.52,247.73,264.34,257.44,263.36,265.79Z"/><path id="Nube" class="cls-2" d="M500,221.79l-.09,2.07c0,.69,0,1.37-.12,2.06-.13,1.38-.24,2.75-.4,4.11a85.59,85.59,0,0,1-10.14,31.14A87.11,87.11,0,0,1,480,274.59,85.17,85.17,0,0,1,468.4,285.9a81,81,0,0,1-28.08,14.74,75.43,75.43,0,0,1-30.73,2.52A102.17,102.17,0,0,0,424.32,300c.59-.19,1.19-.34,1.78-.53l1.75-.59,1.76-.59,1.72-.68L433,297c.57-.22,1.12-.49,1.68-.73,1.12-.5,2.24-1,3.32-1.54A83.69,83.69,0,0,0,461.28,278a81.45,81.45,0,0,0,9-10.89,77.27,77.27,0,0,0,6.9-12.11,76.17,76.17,0,0,0,4.66-13,73.45,73.45,0,0,0,2.33-13.55,82.46,82.46,0,0,0-.06-13.7,80.16,80.16,0,0,0-2.39-13.44,78.56,78.56,0,0,0-11.6-24.58,79.73,79.73,0,0,0-44.49-30.9l-3.75-1-.84-3.13a140.33,140.33,0,0,0-6.05-17.5,146.4,146.4,0,0,0-8.35-16.72,153.15,153.15,0,0,0-10.53-15.75,177.45,177.45,0,0,0-12.52-14.64h0a108,108,0,0,1,15.69,11.7,120.16,120.16,0,0,1,13.64,14.33,123.9,123.9,0,0,1,11.27,16.51,126.71,126.71,0,0,1,7.2,14.71A87.49,87.49,0,0,1,443.91,138a88.63,88.63,0,0,1,14.73,7.24,91.71,91.71,0,0,1,13.16,9.93,90.12,90.12,0,0,1,11,12.29,86.91,86.91,0,0,1,14.32,29.74,88.06,88.06,0,0,1,2.65,16.35C500,216.28,500.05,219,500,221.79ZM310.36,47.06c-3.33-.49-6.68-.9-10.05-1.12a129.5,129.5,0,0,0-40.55,3.58c-3.32.85-6.62,1.8-9.89,2.88-2.44.81-4.84,1.76-7.23,2.71a84.42,84.42,0,0,0-11.44-6.25,88.59,88.59,0,0,0-14.48-5,87,87,0,0,0-30.69-2,84.77,84.77,0,0,0-15.25,3,89.89,89.89,0,0,0-14.5,5.76A88,88,0,0,0,143,58.87a93.17,93.17,0,0,0-8.68,7.45c-1.92-.3-3.86-.55-5.8-.73a77.46,77.46,0,0,0-9.87-.33A91.49,91.49,0,0,0,99,67.8a87,87,0,0,0-18.58,6.86A92,92,0,0,0,63.81,85.42,89.12,89.12,0,0,0,31.1,151.24a88.78,88.78,0,0,0-16.09,18A89.73,89.73,0,0,0,3.27,194.42l-.84,3.37L2,199.47l-.32,1.71-.64,3.42L.61,208,.4,209.75c-.06.57-.08,1.15-.13,1.73l-.22,3.45c0,1.15,0,2.31,0,3.45s0,2.31.07,3.45a85.78,85.78,0,0,0,1.64,13.66c.25,1.12.44,2.25.73,3.36l.86,3.32c.31,1.1.69,2.19,1,3.27s.74,2.16,1.14,3.23A84.72,84.72,0,0,0,38.74,290.2l1.4.9.71.45.72.41,2.89,1.66,3,1.51c.49.26,1,.49,1.49.72l1.52.67,1.52.67,1.54.6c1,.39,2,.83,3.1,1.15l3.13,1,3.17.87a82.55,82.55,0,0,0,12.89,2.22,84.86,84.86,0,0,0,13,.09,100.52,100.52,0,0,1-12.67-1.91A89.59,89.59,0,0,1,64,297.53a79.34,79.34,0,0,1-11.3-5.43l-1.34-.79c-.46-.26-.9-.52-1.33-.81l-2.61-1.69L44.85,287l-.62-.46-.61-.48-1.21-1a80.77,80.77,0,0,1-9-8.4,88.26,88.26,0,0,1-7.6-9.58,81,81,0,0,1-6-10.56c-.41-.92-.87-1.82-1.25-2.75L17.38,251c-.68-1.9-1.38-3.78-1.91-5.71a78.75,78.75,0,0,1,.69-46.94,77.57,77.57,0,0,1,27.11-37.44l2.89-2.18.11-3.82a78.46,78.46,0,0,1,2.1-16.25A75.83,75.83,0,0,1,87.64,88.89c.61-.3,1.2-.64,1.83-.91l1.86-.84.93-.42.95-.38,1.9-.75c1.26-.5,2.56-.91,3.85-1.37s2.61-.78,3.92-1.14a78,78,0,0,1,32.57-1.32l4.23.73,2.72-3a77.44,77.44,0,0,1,9.51-9A73.15,73.15,0,0,1,162.81,63a77,77,0,0,1,24.92-8.62,80.79,80.79,0,0,1,13.3-1,78.84,78.84,0,0,1,13.35,1.24,81.06,81.06,0,0,1,13,3.51c2.11.8,4.22,1.64,6.27,2.62s4.06,2,6.05,3.12L242,65.1l2-1c2.9-1.4,5.77-2.91,8.75-4.18s6-2.48,9.06-3.56a137.88,137.88,0,0,1,18.89-5.15,140.61,140.61,0,0,1,19.59-2.47c3.3-.17,6.63-.28,9.95-.24s6.66.21,10,.46C317,48.19,313.69,47.55,310.36,47.06Z"/><g id="Cereza"><path id="Fruta" class="cls-1" d="M417.23,38.29a30.37,30.37,0,0,0-10.43-5.8,29.42,29.42,0,0,0-11.47-1.28A28.05,28.05,0,0,0,382,35.9a35.66,35.66,0,0,1,5.27,9.4,35.26,35.26,0,0,1,2.13,14.83,34.9,34.9,0,0,1-4.09,14c-.56,1-1.15,2-1.79,2.94h0a35.27,35.27,0,0,1-7.29,7.81,34.52,34.52,0,0,1-12,6.09,35.43,35.43,0,0,1-34.68-9,27.63,27.63,0,0,0,10.15,6.46,26.66,26.66,0,0,0,30.8-9.32,26.28,26.28,0,0,0,4.35-9.35,27.36,27.36,0,0,0-33.11-33.13,26.07,26.07,0,0,0-9.37,4.37,26.79,26.79,0,0,0-9.29,30.82A27.78,27.78,0,0,0,329.59,82,35.39,35.39,0,0,1,320.24,49c.12-.54.26-1.07.42-1.61a34.63,34.63,0,0,1,6.1-12,34.78,34.78,0,0,1,39.55-11,35.52,35.52,0,0,1,11,6.54,33.9,33.9,0,0,1,5-2.11,33.13,33.13,0,0,1,5.42-1.3c.28.27.59.54.91.81s.75.61,1.21.91c.47-.3.81-.61,1.21-.91s.71-.61,1-.91l.29-.28c1,0,2,0,2.95.1a32.36,32.36,0,0,1,12.23,3.43A31.31,31.31,0,0,1,417.23,38.29Z"/><path id="Hoja" class="cls-3" d="M397.9,14.6a16.51,16.51,0,0,1-1.73,7.3,19.41,19.41,0,0,1-2.38,3.65c-.43.52-.89,1-1.41,1.55l-.29.28c-.31.3-.66.61-1,.91s-.74.61-1.21.91c-.46-.3-.8-.61-1.21-.91s-.63-.54-.91-.81l-.11-.1a20.11,20.11,0,0,1-1.69-1.83,18.47,18.47,0,0,1-2.38-3.65,16.35,16.35,0,0,1,0-14.6,18.4,18.4,0,0,1,2.37-3.65,20.47,20.47,0,0,1,1.71-1.82c.31-.31.67-.61,1-.92l.59-.45.29-.23.33-.23.33.23.3.23.59.45c.36.31.71.61,1,.92a19.1,19.1,0,0,1,1.71,1.82,18.47,18.47,0,0,1,2.38,3.65A16.38,16.38,0,0,1,397.9,14.6Z"/></g></g></g></svg>